<?xml version="1.0" encoding="UTF-8" standalone="no"?>
<svg
   xmlns:dc="http://purl.org/dc/elements/1.1/"
   xmlns:cc="http://creativecommons.org/ns#"
   xmlns:rdf="http://www.w3.org/1999/02/22-rdf-syntax-ns#"
   xmlns:svg="http://www.w3.org/2000/svg"
   xmlns="http://www.w3.org/2000/svg"
   xmlns:sodipodi="http://sodipodi.sourceforge.net/DTD/sodipodi-0.dtd"
   xmlns:inkscape="http://www.inkscape.org/namespaces/inkscape"
   version="1.0"
   width="298.000000pt"
   height="285.000000pt"
   viewBox="0 0 298.000000 285.000000"
   preserveAspectRatio="xMidYMid meet"
   id="svg3795"
   sodipodi:docname="elephanT.svg"
   inkscape:version="0.92.5 (2060ec1f9f, 2020-04-08)">
  <metadata
     id="metadata3801">
    <rdf:RDF>
      <cc:Work
         rdf:about="">
        <dc:format>image/svg+xml</dc:format>
        <dc:type
           rdf:resource="http://purl.org/dc/dcmitype/StillImage" />
        <dc:title></dc:title>
      </cc:Work>
    </rdf:RDF>
  </metadata>
  <defs
     id="defs3799" />
  <sodipodi:namedview
     pagecolor="#ffffff"
     bordercolor="#666666"
     borderopacity="1"
     objecttolerance="10"
     gridtolerance="10"
     guidetolerance="10"
     inkscape:pageopacity="0"
     inkscape:pageshadow="2"
     inkscape:window-width="1848"
     inkscape:window-height="1016"
     id="namedview3797"
     showgrid="false"
     inkscape:zoom="1.1026316"
     inkscape:cx="-43.934327"
     inkscape:cy="180.34623"
     inkscape:window-x="72"
     inkscape:window-y="27"
     inkscape:window-maximized="1"
     inkscape:current-layer="svg3795" />
  <g
     transform="translate(0.000000,285.000000) scale(0.100000,-0.100000)"
     fill="#000000"
     stroke="none"
     id="g3793">
    <path
       d="M0 1425 l0 -1425 1490 0 1490 0 0 1425 0 1425 -1490 0 -1490 0 0 -1425z m1700 1364 c425 -52 645 -268 700 -689 7 -47 16 -88 22 -91 17 -11 12 -245 -7 -334 -32 -151 -120 -324 -228 -449 l-34 -38 -7 53 c-4 30 -12 72 -17 93 -22 81 -107 128 -191 105 -51 -13 -113 -74 -123 -118 -10 -44 18 -119 77 -207 28 -42 47 -79 42 -83 -15 -13 -130 -61 -161 -67 l-30 -6 4 54 c8 100 43 292 70 380 19 63 23 92 16 99 -26 26 -50 -21 -87 -173 -43 -180 -51 -267 -51 -540 1 -221 3 -259 17 -275 40 -45 27 -178 -26 -261 -74 -117 -224 -170 -361 -127 -73 23 -154 95 -183 162 -22 52 -40 137 -24 115 6 -9 11 2 15 37 8 63 41 142 74 173 24 21 25 21 20 3 -3 -11 -8 -59 -12 -106 -5 -72 -4 -87 8 -92 27 -10 35 16 48 146 15 161 7 497 -16 627 -30 176 -75 320 -101 320 -25 0 -26 -25 -4 -90 35 -103 80 -358 80 -450 0 -14 -20 -8 -115 31 -106 44 -103 40 -62 96 47 64 97 170 97 206 0 61 -59 128 -130 147 -47 13 -104 1 -143 -31 -28 -21 -57 -99 -57 -153 0 -56 -13 -61 -51 -19 -20 22 -49 59 -65 83 -47 69 -49 74 -32 68 10 -4 5 15 -19 60 -62 124 -103 296 -103 437 0 189 40 384 107 524 98 206 293 332 577 376 101 16 354 18 466 4z m-1113 -409 c-9 -24 -21 -33 -52 -41 -236 -59 -358 -123 -405 -212 -37 -70 -26 -75 115 -53 108 17 171 17 243 -1 22 -5 22 -7 16 -127 -10 -196 25 -362 113 -535 l43 -84 -75 5 c-205 13 -407 208 -497 478 -28 83 -32 109 -32 205 -1 95 2 116 21 151 28 53 88 106 160 143 77 38 275 98 335 100 25 1 26 0 15 -29z m1896 15 c232 -54 365 -126 420 -229 19 -35 22 -56 21 -151 0 -96 -4 -122 -32 -205 -85 -257 -286 -457 -476 -477 l-58 -6 21 41 c11 22 33 80 48 129 25 83 27 102 31 330 l4 241 31 6 c103 17 136 17 242 1 62 -10 120 -15 129 -12 15 6 15 10 1 44 -38 91 -148 159 -345 214 -124 34 -135 39 -143 69 -6 25 16 26 106 5z m-2026 -1086 c39 -15 88 -24 150 -27 l91 -4 54 -62 c53 -59 55 -64 66 -145 20 -140 57 -165 135 -92 l41 39 51 -25 c27 -14 79 -36 115 -49 l65 -22 3 -110 3 -109 -83 33 c-163 65 -293 81 -390 48 -56 -19 -120 -72 -149 -124 -13 -22 -26 -40 -29 -40 -14 0 -89 105 -79 110 5 4 -13 44 -41 89 -87 146 -144 325 -157 494 l-6 88 51 -35 c29 -19 78 -44 109 -57z m579 75 c36 -17 64 -58 64 -92 0 -70 -195 -329 -219 -292 -30 44 -25 274 6 338 29 60 84 77 149 46z m998 5 c49 -23 61 -69 61 -231 0 -184 -5 -192 -76 -123 -82 81 -159 205 -159 258 0 29 43 85 74 97 30 12 71 12 100 -1z m630 -66 c-4 -50 -3 -64 5 -53 9 13 11 12 11 -3 0 -37 -32 -172 -62 -255 -38 -110 -67 -167 -134 -269 l-54 -81 -53 52 c-63 64 -121 86 -223 86 -89 0 -218 -36 -328 -91 -43 -21 -80 -39 -82 -39 -3 0 -3 57 -2 127 l3 126 30 10 c17 5 67 25 113 44 l82 35 35 -31 c45 -40 80 -49 104 -27 20 18 41 105 41 167 0 21 6 42 13 46 6 4 34 33 61 63 l48 54 76 -2 c92 -4 180 20 262 72 30 19 56 34 58 35 1 1 0 -29 -4 -66z m-1653 -593 c94 -24 169 -57 169 -74 0 -7 -8 -21 -19 -30 -10 -9 -31 -45 -47 -79 -36 -79 -39 -186 -7 -258 14 -31 18 -51 11 -62 -8 -15 -12 -15 -41 3 -38 24 -110 26 -151 5 -26 -14 -30 -13 -53 5 -39 30 -92 41 -138 29 -41 -12 -105 -69 -105 -95 0 -23 -16 -16 -30 14 -21 43 -24 186 -7 279 28 145 88 237 178 269 51 19 157 16 240 -6z m1244 6 c66 -28 113 -162 121 -346 6 -134 1 -149 -44 -126 -57 30 -156 11 -185 -35 -10 -16 -12 -16 -46 2 -42 22 -99 24 -144 5 -30 -12 -35 -11 -56 5 -34 28 -91 40 -131 29 -19 -6 -36 -10 -37 -10 -1 0 5 19 13 43 13 34 15 68 10 174 l-6 131 57 35 c54 33 198 89 254 100 55 10 161 6 194 -7z m-1413 -534 c16 -16 17 -25 9 -60 -5 -24 -6 -52 -3 -64 5 -20 3 -21 -47 -15 -74 9 -125 36 -129 68 -3 28 29 76 62 90 30 13 87 3 108 -19z m1031 -1 c17 -17 18 -23 7 -56 -7 -20 -10 -48 -7 -62 5 -25 4 -25 -45 -20 -105 13 -148 56 -116 115 27 52 119 65 161 23z m449 18 c29 -15 51 -74 38 -99 -20 -38 -190 -68 -182 -32 1 8 -2 30 -7 49 -9 32 -7 38 19 64 22 23 38 29 70 29 23 0 50 -5 62 -11z m-1288 -23 c18 -8 41 -24 50 -37 20 -29 21 -83 1 -99 -19 -15 -144 -16 -173 -1 -49 26 -14 121 51 140 18 5 33 10 35 10 1 1 18 -5 36 -13z m1023 4 c8 0 28 -13 44 -29 36 -36 41 -94 10 -111 -27 -14 -164 -13 -179 2 -17 17 -15 70 4 97 19 26 72 53 92 46 8 -3 20 -5 29 -5z m-799 -88 l33 -20 -32 -11 c-18 -6 -49 -11 -69 -11 l-37 0 -7 56 c-3 30 -3 60 0 66 4 5 22 -5 43 -25 20 -19 51 -44 69 -55z"
       id="path3777" />
    <path
       d="M1109 2315 c-64 -21 -141 -92 -169 -156 -60 -140 17 -315 158 -363 211 -72 419 118 358 327 -44 150 -204 238 -347 192z m155 -47 c25 -8 59 -31 86 -58 74 -73 90 -166 44 -258 -70 -140 -250 -169 -360 -58 -169 168 0 442 230 374z"
       id="path3779" />
    <path
       d="M1202 2070 c-46 -43 -34 -113 23 -136 60 -24 126 31 110 93 -8 34 -45 63 -80 63 -18 0 -41 -9 -53 -20z"
       id="path3781" />
    <path
       d="M1705 2317 c-138 -46 -214 -154 -202 -287 21 -234 306 -334 470 -165 128 132 83 362 -85 435 -63 27 -132 33 -183 17z m139 -48 c51 -14 121 -80 142 -135 36 -95 -1 -214 -84 -268 -62 -41 -120 -51 -186 -32 -103 30 -166 113 -166 217 1 157 140 261 294 218z"
       id="path3783" />
    <path
       d="M1666 2069 c-33 -26 -36 -84 -6 -117 49 -52 140 -16 140 55 0 70 -78 106 -134 62z"
       id="path3785" />
    <path
       d="M1429 1693 c-46 -7 -134 -66 -137 -91 -4 -30 17 -29 64 3 79 54 150 55 242 3 41 -22 57 -26 67 -18 23 19 6 38 -59 70 -60 30 -127 42 -177 33z"
       id="path3787" />
    <path
       d="M1380 1388 c-19 -13 -35 -29 -38 -35 -6 -21 29 -27 58 -9 36 21 121 21 161 0 34 -17 59 -13 59 11 0 26 -77 55 -146 55 -47 0 -69 -5 -94 -22z"
       id="path3789" />
    <path
       d="M1392 1135 c-41 -18 -42 -52 -2 -46 14 2 54 3 90 3 36 0 76 -1 90 -3 17 -3 25 1 28 14 8 40 -135 63 -206 32z"
       id="path3791" />
  </g>
  <path
     style="fill:#0000ff;stroke-width:0.90692127"
     d="M 75.021534,201.6006 C 48.606797,197.73014 23.685909,172.57461 12.154054,138.14118 8.9749816,128.64866 7.6339563,120.34734 7.5915812,109.89819 7.5501506,99.682008 8.9176196,93.932268 12.697252,88.430594 20.791528,76.648475 37.174394,68.21201 65.153078,61.418119 c 10.986556,-2.667798 13.150358,-2.765293 13.150358,-0.592523 0,3.173864 -2.746559,5.60096 -7.977853,7.049916 -32.390603,8.971504 -48.108366,17.439386 -53.661033,28.909665 -4.170035,8.614143 -2.248591,9.607413 14.355871,7.421133 6.302794,-0.82988 13.17477,-1.72416 15.271058,-1.98729 4.486,-0.56309 18.459612,1.16915 19.76852,2.45061 0.548096,0.5366 0.931689,9.03318 0.969519,21.47486 0.04825,15.86905 0.426269,22.35359 1.649508,28.29579 2.418285,11.74745 7.475374,26.10793 13.258732,37.65048 l 5.21908,10.41635 -3.746509,-0.11315 c -2.060582,-0.0622 -5.835539,-0.41924 -8.388795,-0.79336 z"
     id="path3805"
     inkscape:connector-curvature="0"
     transform="scale(0.74999999)" />
  <path
     style="fill:#0000ff;stroke-width:0.90692127"
     d="m 177.41727,364.43721 c -9.32284,-2.91361 -20.13808,-12.20449 -24.19876,-20.78806 -3.24651,-6.86255 -4.68972,-13.14095 -3.46975,-15.09443 0.54136,-0.86686 1.25021,-3.15678 1.57521,-5.08871 1.45588,-8.65425 5.94815,-19.34224 9.46588,-22.5212 l 1.96647,-1.7771 -0.7315,9.48593 c -1.0036,13.01424 -0.87755,16.26456 0.66864,17.24173 3.1774,2.00809 4.83399,-1.1402 6.46704,-12.29041 1.62633,-11.10435 1.61054,-65.04427 -0.0234,-79.80907 -2.03385,-18.37893 -6.60674,-38.25352 -11.12704,-48.36013 -2.18084,-4.87598 -2.87457,-5.69091 -4.63224,-5.44153 -3.08467,0.43766 -2.9948,2.90358 0.57828,15.86701 5.00754,18.16783 11.01995,54.49986 9.30303,56.21679 -1.15474,1.15477 -26.00581,-9.02068 -26.00581,-10.64828 0,-0.42325 2.2426,-4.21 4.98356,-8.415 9.22781,-14.15672 12.65325,-24.23702 10.47693,-30.83132 -1.24723,-3.77915 -7.54503,-10.60939 -11.82133,-12.82075 -7.18174,-3.71382 -18.21116,-2.52256 -24.071,2.59985 -3.81941,3.33877 -7.68272,12.95712 -7.68272,19.12741 0,8.54242 -1.87893,8.85671 -8.11934,1.35809 -7.440436,-8.94058 -12.203712,-16.40663 -10.958348,-17.17631 0.785616,-0.48553 -0.04828,-3.16462 -3.001253,-9.64211 -7.901132,-17.33157 -12.024728,-33.74372 -12.963401,-51.59506 -1.5408,-29.30236 6.74296,-65.53667 19.322966,-84.521332 13.498326,-20.370508 34.993276,-33.245521 65.903746,-39.474923 9.19189,-1.852446 12.71916,-2.041835 38.24045,-2.0532361 23.59025,-0.010539 29.57401,0.2588669 37.18377,1.6741138 19.04331,3.5416353 35.43733,9.8667563 47.04813,18.1520433 7.52371,5.368814 16.54725,15.093609 21.7485,23.438673 7.80884,12.528774 12.34414,26.093504 15.94691,47.695934 1.02406,6.140347 2.37331,12.058007 2.99833,13.150357 1.48729,2.59934 1.35295,30.05414 -0.19598,40.05178 -3.03639,19.59851 -14.5679,43.7757 -29.80387,62.48738 l -5.07541,6.23325 -1.15636,-8.01004 c -1.59998,-11.08307 -3.35699,-15.80577 -7.31523,-19.66276 -10.52401,-10.25482 -27.31846,-7.26695 -35.25266,6.27173 -1.95112,3.32935 -2.29016,4.84969 -1.96252,8.80057 0.43221,5.21191 4.18903,14.02632 9.71167,22.78598 1.89418,3.00442 4.10552,6.74658 4.91407,8.31593 l 1.47012,2.85334 -5.1894,2.47733 c -5.85297,2.79411 -16.78399,6.78018 -18.59331,6.78018 -2.48085,0 2.17982,-31.72364 7.99039,-54.38796 3.51481,-13.70957 3.7692,-16.16976 1.75205,-16.94381 -3.53019,-1.35466 -6.67727,5.00526 -10.83906,21.90456 -6.08746,24.71864 -8.34959,52.21921 -7.23631,87.97137 0.54332,17.44849 0.77607,19.45375 2.77593,23.91627 4.64884,10.37359 1.81668,25.90498 -6.79048,37.23839 -3.72211,4.90107 -12.36445,10.7404 -18.86989,12.74972 -6.90456,2.13261 -19.40714,2.38251 -25.4057,0.50782 z m 35.85664,-131.7968 c 0.60558,-4.26747 -13.17292,-7.6794 -22.87669,-5.66491 -5.87052,1.21872 -10.23171,4.34996 -9.33031,6.69898 0.52215,1.36068 2.27112,1.49808 16.24972,1.27656 15.51865,-0.24592 15.66734,-0.26745 15.95728,-2.31063 z m -26.173,-31.47658 c 4.26304,-2.20451 11.64631,-2.58297 17.26458,-0.88498 2.74344,0.82915 6.41647,1.56767 8.16229,1.64117 2.8342,0.11931 3.20519,-0.13586 3.46328,-2.38205 0.26091,-2.27067 -0.22489,-2.75529 -4.98807,-4.97603 -4.62438,-2.15603 -6.39892,-2.46185 -14.34633,-2.47239 -8.74552,-0.0116 -9.21907,0.092 -13.26797,2.90395 -4.60206,3.19608 -5.72042,4.94049 -4.16475,6.49617 1.41077,1.41076 4.789,1.27101 7.87697,-0.32584 z m -4.64113,-35.61377 c 7.25377,-3.98147 8.32944,-4.30787 14.19688,-4.30787 5.62062,0 7.29582,0.45229 14.61184,3.94511 9.1285,4.35812 11.5437,4.5432 11.96539,0.91689 0.23106,-1.98708 -0.43963,-2.81832 -4.08115,-5.058 -7.97785,-4.90671 -14.49435,-6.88801 -22.94954,-6.97765 -6.77485,-0.0718 -8.32861,0.23233 -12.82427,2.51034 -8.16782,4.13875 -13.49164,10.2408 -11.05799,12.67444 1.07323,1.07324 2.15951,0.67648 10.13884,-3.70326 z m -7.80435,-26.27758 c 11.04413,-5.18028 18.30423,-14.59447 20.78632,-26.95369 2.83665,-14.12475 -6.27052,-31.595636 -20.09774,-38.554833 -15.10146,-7.600514 -28.95409,-5.444304 -41.32192,6.431898 -6.49588,6.237661 -9.87005,12.201959 -11.30339,19.980255 -2.49126,13.51936 5.30482,30.79632 16.98548,37.64165 6.59944,3.86752 10.8715,4.83229 20.22217,4.56681 7.48342,-0.21248 9.4192,-0.62149 14.72908,-3.11209 z m 77.99231,-0.065 c 22.69894,-11.17464 27.55144,-41.073367 9.59267,-59.105317 -7.63865,-7.66978 -21.83412,-12.121719 -31.95309,-10.021028 -11.59537,2.407189 -22.68346,11.028318 -27.38099,21.289054 -5.69196,12.432911 -3.13994,28.445011 6.23023,39.090071 7.71085,8.75999 16.20003,12.26726 28.85653,11.92196 7.69828,-0.21002 9.36663,-0.57145 14.65465,-3.17474 z"
     id="path3807"
     inkscape:connector-curvature="0"
     transform="scale(0.74999999)" />
  <path
     style="fill:#0000ff;stroke-width:0.90692127"
     d="m 317.24127,198.21353 c 3.4653,-6.89926 8.50709,-22.73524 9.47662,-29.76553 0.47776,-3.46439 1.15715,-19.22668 1.50973,-35.02732 0.62953,-28.21109 0.67553,-28.73702 2.55415,-29.20527 1.05219,-0.26226 5.58611,-0.91821 10.07537,-1.45767 6.93066,-0.83284 10.28342,-0.70298 22.21957,0.86062 16.77628,2.19764 19.8433,2.28049 20.50586,0.55388 0.83386,-2.173 -2.90671,-9.273427 -7.43654,-14.11617 -7.74932,-8.284651 -18.23525,-13.386748 -42.04999,-20.460087 -10.26207,-3.047989 -13.63882,-4.445539 -15.24057,-6.307695 -4.19393,-4.875731 -0.7348,-5.208851 14.76905,-1.422285 23.07975,5.636855 37.09038,12.090547 46.27193,21.314145 8.63535,8.674904 9.03251,9.938593 8.99944,28.634832 l -0.0281,15.87112 -3.32388,9.6782 c -12.44768,36.24412 -37.99108,61.55705 -65.33532,64.74582 l -5.23087,0.60999 z"
     id="path3809"
     inkscape:connector-curvature="0"
     transform="scale(0.74999999)" />
  <path
     style="fill:#0000ff;stroke-width:0.90692127"
     d="m 317.73064,284.89501 c -3.31127,-3.08821 -8.4787,-6.73584 -11.78997,-8.32241 -5.16057,-2.47264 -7.06119,-2.86886 -15.25567,-3.18034 -14.59935,-0.55494 -28.50403,2.83071 -46.32088,11.27866 -5.68452,2.69535 -10.68393,4.90062 -11.10978,4.90062 -0.89354,0 -1.03494,-20.8254 -0.18921,-27.86598 0.4535,-3.77531 0.95927,-4.85298 2.48615,-5.29732 1.05426,-0.3068 7.55208,-2.81753 14.4396,-5.57939 l 12.52277,-5.02157 3.34835,2.86804 c 3.34413,2.86442 9.70328,6.37565 11.61507,6.4133 0.55624,0.011 2.08306,-0.82309 3.39292,-1.85343 2.92258,-2.2989 4.82314,-8.46782 5.90047,-19.152 l 0.79406,-7.87498 7.93612,-8.54748 7.93612,-8.54748 6.15953,0.44072 c 12.8872,0.92207 26.78196,-2.57256 38.47614,-9.67701 3.36625,-2.04507 6.28279,-3.7183 6.48121,-3.7183 0.19843,0 0.36077,3.49306 0.36077,7.76235 0,4.94396 0.32929,7.55884 0.90693,7.20185 4.63962,-2.86745 -8.94845,43.0286 -16.49806,55.72503 -4.91891,8.27228 -14.83796,23.61731 -15.24419,23.58313 -0.2494,-0.0209 -3.1062,-2.51218 -6.34845,-5.53601 z"
     id="path3813"
     inkscape:connector-curvature="0"
     transform="scale(0.74999999)" />
  <path
     style="fill:#0000ff;stroke-width:0.90692127"
     d="m 279.18649,348.47179 c -4.59099,-2.17249 -13.5699,-2.30741 -18.63679,-0.28004 -3.58411,1.43407 -3.80013,1.41701 -6.40064,-0.50563 -5.57259,-4.12 -13.25501,-5.5922 -19.63443,-3.76261 -1.61783,0.46399 -2.9415,0.71936 -2.9415,0.56749 0,-0.15187 0.65049,-2.06193 1.44553,-4.24457 1.56021,-4.28326 1.92002,-11.9699 1.39555,-29.813 l -0.33315,-11.33381 5.688,-3.4786 c 5.47436,-3.34793 19.48365,-9.42491 29.89476,-12.96779 6.72962,-2.29009 25.9659,-2.36561 31.0493,-0.1219 6.2344,2.75173 11.86219,14.97279 14.30938,31.07363 1.3779,9.06561 1.67316,29.94586 0.44084,31.17568 -0.60355,0.60233 -2.71451,0.29259 -6.31061,-0.92594 -3.95292,-1.33943 -6.50955,-1.66911 -9.52268,-1.22796 -5.21578,0.76364 -10.87163,3.25141 -13.10202,5.76302 -2.05325,2.31214 -2.61552,2.31842 -7.34154,0.082 z"
     id="path3815"
     inkscape:connector-curvature="0"
     transform="scale(0.74999999)" />
  <path
     style="fill:#0000ff;stroke-width:0.90692127"
     d="m 80.367299,354.64314 c -1.375222,-2.51704 -1.608696,-5.3315 -1.598718,-19.27207 0.0102,-14.24654 0.273781,-17.23454 2.070642,-23.47295 4.27922,-14.85675 11.204605,-24.65302 20.345737,-28.77996 11.14496,-5.03162 39.27571,-1.12004 53.15824,7.39165 2.91449,1.78693 2.9753,1.93733 1.56138,3.8615 -8.2224,11.18968 -10.56372,17.24684 -11.17291,28.90506 -0.40725,7.79363 -0.17698,9.68052 2.0788,17.03418 3.11375,10.15062 2.61342,11.1921 -4.00829,8.34352 -5.50204,-2.36691 -13.37052,-2.56504 -19.18052,-0.48295 -4.05828,1.45433 -4.15195,1.44335 -7.58957,-0.88948 -7.00108,-4.75107 -14.13736,-5.38574 -21.167358,-1.88254 -4.87658,2.4301 -11.119768,8.51272 -11.119768,10.83377 0,2.30042 -1.685716,1.50702 -3.377665,-1.58973 z"
     id="path3817"
     inkscape:connector-curvature="0"
     transform="scale(0.74999999)" />
  <path
     style="fill:#0000ff;stroke-width:0.90692127"
     d="m 71.964041,290.7052 c -2.483957,-3.36695 -4.512434,-6.73389 -4.507727,-7.4821 0.0047,-0.74821 -3.879012,-9.11456 -8.630487,-18.59189 C 47.184779,241.41189 42.502342,225.27445 40.582983,201.75951 L 39.96677,194.21 l 4.884324,3.11899 c 13.454232,8.5915 21.605726,11.20667 37.813934,12.13149 l 10.25658,0.58522 5.920302,6.88703 c 7.59013,8.82952 8.03785,9.75604 9.84735,20.37863 1.70246,9.99424 3.08268,13.89528 5.77988,16.33621 2.8837,2.60971 7.07349,1.30083 13.13782,-4.10422 l 5.20618,-4.64019 8.79527,4.11609 c 4.8374,2.26384 11.50062,5.05159 14.80716,6.19499 l 6.0119,2.07892 0.56328,5.38917 c 0.78347,7.49581 0.70574,22.35566 -0.11691,22.34957 -0.3741,-0.003 -4.94352,-1.66093 -10.15425,-3.6848 -25.51064,-9.90845 -46.09387,-10.82479 -58.998493,-2.62656 -4.836017,3.07229 -9.531589,7.86545 -13.517572,13.7985 -1.591782,2.36933 -3.080685,4.30787 -3.308673,4.30787 -0.227988,0 -2.446853,-2.75477 -4.930811,-6.12171 z"
     id="path3819"
     inkscape:connector-curvature="0"
     transform="scale(0.74999999)" />
  <path
     style="fill:#c87137;stroke-width:0.90692127"
     d="m 99.358193,369.47982 c -5.39654,-1.86407 -9.264781,-5.01957 -9.264781,-7.5577 0,-2.61947 2.359898,-6.58736 5.478537,-9.21152 3.221343,-2.71058 8.142221,-3.1508 12.915751,-1.15544 4.78662,2.00084 5.1822,3.01963 4.56551,11.75812 l -0.55618,7.88118 -4.17317,-0.0296 c -2.29524,-0.0163 -6.32979,-0.77455 -8.965667,-1.68503 z"
     id="path3821"
     inkscape:connector-curvature="0"
     transform="scale(0.74999999)" />
  <path
     style="fill:#c87137;stroke-width:0.90692127"
     d="m 123.6495,372.40487 c -6.69819,-2.65969 -5.63158,-11.26418 2.10708,-16.99815 5.76367,-4.27059 15.98121,-1.25076 19.30069,5.7044 1.54233,3.23156 1.25317,8.64257 -0.55889,10.45852 -1.04802,1.05027 -18.54231,1.75111 -20.84888,0.83523 z"
     id="path3823"
     inkscape:connector-curvature="0"
     transform="scale(0.74999999)" />
  <path
     style="fill:#c87137;stroke-width:0.90692127"
     d="m 154.17844,369.60734 c -0.94922,-1.56168 -1.68448,-14.73747 -0.82241,-14.73747 0.49398,0 3.64963,2.25534 7.01254,5.01186 3.36291,2.75652 6.88378,5.42363 7.82415,5.9269 0.94037,0.50327 1.70976,1.26034 1.70976,1.68239 0,1.83493 -14.69308,3.8125 -15.72404,2.11632 z"
     id="path3825"
     inkscape:connector-curvature="0"
     transform="scale(0.74999999)" />
  <path
     style="fill:#c87137;stroke-width:0.90692127"
     d="m 237.62,369.89406 c -8.60651,-2.31323 -11.9378,-6.90377 -9.19874,-12.67591 2.77981,-5.858 11.70646,-8.50327 18.23709,-5.40428 4.40002,2.08794 4.92702,3.58744 3.46748,9.8662 -0.68908,2.96433 -1.01995,6.31775 -0.73526,7.45204 0.48064,1.91502 0.23524,2.05797 -3.43512,2.00113 -2.174,-0.0337 -5.92496,-0.5913 -8.33545,-1.23918 z"
     id="path3827"
     inkscape:connector-curvature="0"
     transform="scale(0.74999999)" />
  <path
     style="fill:#c87137;stroke-width:0.90692127"
     d="m 260.43795,372.42068 c -4.69571,-0.82575 -5.13686,-9.70726 -0.71592,-14.41314 6.52255,-6.94293 16.83255,-6.07669 21.71579,1.82456 2.19662,3.5542 2.43256,9.73311 0.43496,11.39097 -1.42249,1.18056 -16.68308,2.0332 -21.43483,1.19761 z"
     id="path3829"
     inkscape:connector-curvature="0"
     transform="scale(0.74999999)" />
  <path
     style="fill:#c87137;stroke-width:0.90692127"
     d="m 292.22289,369.71763 c -1.09761,-0.31758 -1.6358,-2.06509 -2.10619,-6.83886 -0.60797,-6.16994 -0.53675,-6.51155 1.8846,-9.0389 4.08992,-4.26895 12.1657,-5.35582 17.87088,-2.40514 1.76865,0.91474 5.08444,7.3775 5.11778,9.97499 0.031,2.41572 -3.58448,5.19708 -8.57815,6.59909 -5.34207,1.49982 -12.09882,2.31356 -14.18892,1.70882 z"
     id="path3831"
     inkscape:connector-curvature="0"
     transform="scale(0.74999999)" />
  <path
     style="fill:#ffffff;stroke-width:0.90692127"
     d="m 229.30582,135.08504 c -9.56904,-3.17884 -16.07515,-8.62361 -19.67826,-16.46815 -2.93332,-6.3863 -2.88726,-17.92517 0.0985,-24.68074 2.48912,-5.631841 9.2722,-12.291406 15.30158,-15.022951 5.99734,-2.717034 17.07692,-2.713697 23.08276,0.007 5.15655,2.335919 12.42867,9.378051 15.34256,14.857341 2.96428,5.574049 3.04993,18.28903 0.16534,24.54525 -6.01514,13.0459 -21.99722,20.85344 -34.31251,16.76229 z m 6.7234,-13.98985 c 1.2902,-0.95463 2.92922,-3.38623 3.64227,-5.40356 1.12408,-3.1802 1.124,-4.12095 -6.2e-4,-7.0758 -3.72247,-9.78043 -17.00763,-9.78043 -20.73009,0 -1.12462,2.95485 -1.12471,3.90258 -6.2e-4,7.1284 2.55065,7.31965 10.89646,9.9329 17.08906,5.35096 z"
     id="path3833"
     inkscape:connector-curvature="0"
     transform="scale(0.74999999)" />
  <path
     style="fill:#ffffff;stroke-width:0.90692127"
     d="m 153.01804,135.49428 c -5.57979,-1.43673 -11.12546,-4.78742 -15.2869,-9.23634 -6.06653,-6.48561 -8.14625,-11.55231 -8.16194,-19.88449 -0.0156,-8.283009 2.76414,-15.032291 8.59104,-20.859185 8.7619,-8.761897 22.24327,-11.276401 32.76211,-6.110684 6.02913,2.960857 12.8397,9.908268 15.57683,15.889809 2.97557,6.50262 2.74317,16.25499 -0.54848,23.01581 -3.23481,6.64406 -8.66322,12.17693 -14.62482,14.90624 -5.15987,2.36227 -13.80478,3.43833 -18.30784,2.27884 z m 19.22054,-13.60803 c 7.09892,-3.2242 8.60908,-11.68346 3.0739,-17.21865 -4.96739,-4.967381 -11.66612,-4.785754 -16.25504,0.44074 -5.0534,5.75551 -3.12549,14.11978 3.96621,17.20751 3.70186,1.61179 4.83677,1.55888 9.21493,-0.4296 z"
     id="path3835"
     inkscape:connector-curvature="0"
     transform="scale(0.74999999)" />
  <path
     style="fill:#ffffff;stroke-width:0.90692127"
     d="m 117.1124,244.9172 c -1.89198,-3.31349 -1.59982,-33.28313 0.38715,-39.71453 3.30985,-10.71327 12.04353,-14.09125 21.76029,-8.41636 3.18537,1.86036 7.0232,7.70576 7.04777,10.73445 0.0409,5.04441 -11.83391,24.18821 -20.70049,33.37194 -5.78477,5.99169 -7.03364,6.58336 -8.49472,4.0245 z"
     id="path3837"
     inkscape:connector-curvature="0"
     transform="scale(0.74999999)" />
  <path
     style="fill:#ffffff;stroke-width:0.90692127"
     d="m 269.29209,241.27799 c -10.61435,-10.65751 -20.48529,-26.76269 -20.48675,-33.42567 -8.8e-4,-4.02932 4.90082,-10.87428 9.00428,-12.57398 3.97901,-1.64816 13.07556,-0.83671 15.57307,1.38919 4.114,3.6666 4.75274,6.98107 5.14514,26.69876 0.36395,18.28791 -0.21443,23.57996 -2.57709,23.57996 -0.55734,0 -3.55373,-2.55072 -6.65865,-5.66826 z"
     id="path3839"
     inkscape:connector-curvature="0"
     transform="scale(0.74999999)" />
  <path
     style="fill:none;stroke-width:0.90692127"
     d="M 0.30820941,189.81021 V 0.26366874 H 198.4705 396.63279 V 189.81021 379.35675 H 198.4705 0.30820941 Z M 144.83226,372.20917 c 2.10214,-1.74462 2.68092,-6.37894 1.316,-10.53739 -1.44851,-4.41318 -8.37423,-9.5341 -12.85185,-9.50275 -7.13015,0.0499 -13.92021,5.81422 -14.82885,12.58871 -0.59612,4.4444 0.85578,7.07614 4.52268,8.1979 4.1882,1.28124 20.05205,0.73908 21.84202,-0.74647 z m 137.60875,-0.63392 c 1.1415,-1.03304 1.73355,-2.77516 1.73355,-5.101 0,-10.44475 -10.95503,-17.08631 -20.5343,-12.44906 -2.2714,1.09956 -4.90464,3.26987 -5.85165,4.8229 -1.99408,3.27017 -2.3731,11.59117 -0.59496,13.06199 1.76513,1.46006 5.85216,1.87937 15.0445,1.54348 6.44056,-0.23534 8.88457,-0.68527 10.20286,-1.87831 z m -168.49752,-7.78751 c 0.29625,-4.5725 0.1645,-9.01268 -0.29275,-9.86707 -0.45726,-0.85439 -2.48401,-2.21469 -4.50387,-3.02288 -7.91559,-3.16719 -14.427035,-0.95883 -18.212461,6.17676 -1.718933,3.24023 -1.965476,4.52079 -1.257781,6.53309 1.527917,4.34462 10.706662,8.30276 19.554622,8.43253 l 4.17363,0.0612 0.53861,-8.31364 z m 136.24152,5.68394 c -0.31767,-1.44634 0.0437,-5.00881 0.80302,-7.91662 1.24042,-4.75004 1.23854,-5.50373 -0.0185,-7.42218 -1.693,-2.58386 -6.47363,-4.71173 -10.52481,-4.68462 -4.15568,0.0278 -10.23748,2.98789 -12.15652,5.91672 -5.5798,8.51585 2.91416,16.32955 18.09444,16.6453 4.37533,0.091 4.37932,0.0883 3.80235,-2.5386 z m -80.76994,-0.34482 3.59373,-1.26565 -2.68681,-1.67447 c -1.47775,-0.92096 -5.65836,-4.08685 -9.29024,-7.03532 -8.54826,-6.93971 -9.67136,-6.64749 -8.84055,2.30024 0.9742,10.49199 0.63644,10.07182 7.60861,9.46495 3.31184,-0.28826 7.6387,-1.09365 9.61526,-1.78975 z m 137.29963,-0.32358 c 6.53004,-1.80459 9.54751,-4.83523 8.70592,-8.74389 -1.5364,-7.13562 -4.78954,-10.34087 -10.84033,-10.68079 -7.18279,-0.4035 -8.6386,0.005 -12.35381,3.47105 l -3.66782,3.42131 0.65332,6.63015 c 0.54757,5.55699 0.96343,6.75717 2.56928,7.41493 2.28677,0.93668 8.25925,0.33166 14.93344,-1.51276 z m -104.27633,-3.85207 c 14.01358,-4.36151 23.99347,-14.88318 27.84712,-29.35879 2.06274,-7.74836 1.67509,-16.45883 -0.98247,-22.07645 -2.14334,-4.53063 -2.30099,-5.92828 -2.82317,-25.02784 -0.65717,-24.03684 0.70079,-52.47304 3.1965,-66.93568 3.73834,-21.66383 9.68827,-40.35799 12.84502,-40.35799 2.22387,0 1.9374,3.35324 -1.36132,15.93477 -3.6948,14.09215 -7.43132,34.76144 -8.4886,46.95637 l -0.73485,8.47588 3.58131,-0.57268 c 4.249,-0.67945 20.99778,-7.48722 22.30983,-9.06816 0.64989,-0.78306 -0.39785,-3.3174 -3.61391,-8.74145 -10.92052,-18.41812 -13.69198,-27.11467 -10.5669,-33.15789 1.85169,-3.58078 9.04204,-10.12503 12.89217,-11.73371 3.90046,-1.62972 11.38801,-1.66336 15.19442,-0.0683 4.29544,1.80003 8.38143,5.55775 10.19197,9.37317 0.87741,1.84901 2.31622,7.59704 3.19735,12.77339 0.88114,5.17636 1.79585,9.60534 2.0327,9.84218 0.76064,0.76064 8.7587,-8.91777 14.72567,-17.81946 10.5003,-15.66463 18.11647,-33.85576 20.91068,-49.94486 1.86902,-10.76191 2.28128,-38.4173 0.61603,-41.32555 -0.61855,-1.08026 -2.14826,-7.79972 -3.39935,-14.932136 C 317.14951,80.886675 315.05662,73.244757 310.65685,63.0394 297.99401,33.667698 274.16629,16.273461 237.01465,9.2806017 223.91042,6.8140598 189.58584,5.8304321 173.03007,7.4470171 131.05865,11.545309 102.40956,28.449311 87.601193,57.853168 77.35375,78.200739 71.137993,114.39015 73.610137,139.31195 c 1.709795,17.23653 5.627473,31.52101 13.165693,48.00422 1.767913,3.86576 2.829495,7.02864 2.359064,7.02864 -1.871206,0 -0.624315,2.85459 4.216923,9.6541 6.166829,8.66129 12.012023,14.83278 14.048563,14.83278 1.60872,0 2.6453,-3.36495 2.6453,-8.58714 0,-3.39361 2.78934,-11.96332 4.98428,-15.31321 3.7815,-5.77131 16.03817,-8.66888 23.49318,-5.55398 8.19198,3.42282 14.67583,12.3521 13.90905,19.15492 -0.5461,4.84502 -5.66954,15.79725 -11.70445,25.02024 -2.74152,4.1898 -4.37081,7.57846 -4.0481,8.41941 0.58272,1.51854 8.38687,5.26924 18.71753,8.99572 8.30277,2.99497 9.06378,2.96582 9.06378,-0.34727 0,-9.59313 -6.28726,-44.4058 -10.40921,-57.63595 -1.24325,-3.99045 -2.26659,-8.37768 -2.27407,-9.7494 -0.0168,-3.07834 2.03118,-3.30816 4.04081,-0.45346 2.11257,3.00093 6.34565,16.8187 8.96021,29.24821 3.86467,18.37245 4.62809,28.5719 4.64994,62.1241 0.0212,32.53959 -0.9614,45.46406 -3.78698,49.81117 -1.38058,2.124 -1.47074,2.14011 -2.68468,0.47995 -1.29669,-1.77332 -1.10828,-7.95733 0.64693,-21.23522 0.4261,-3.22332 0.64044,-5.99487 0.47631,-6.15899 -0.16413,-0.16414 -1.49159,0.70557 -2.94992,1.93267 -4.32153,3.63633 -9.14387,14.79407 -10.73066,24.82822 -0.33559,2.12205 -0.9821,3.62839 -1.43671,3.34742 -2.21197,-1.36707 0.44535,11.23367 3.74998,17.78202 4.04268,8.01083 14.55164,16.82874 23.91261,20.0647 6.37842,2.20493 18.63627,2.179 25.81286,-0.0546 z M 84.651885,356.63019 c 0,-2.31749 6.183198,-8.43184 11.024389,-10.90163 5.460086,-2.78553 12.847476,-2.05204 19.218116,1.90818 l 4.66203,2.89807 4.08711,-1.46463 c 5.62803,-2.01684 14.01497,-1.84927 18.92362,0.37808 2.17441,0.98666 4.49356,1.79393 5.15369,1.79393 2.32866,0 2.29289,-3.61193 -0.1122,-11.32586 -2.14957,-6.89444 -2.37834,-8.82057 -1.97188,-16.60188 0.5444,-10.42185 2.55559,-16.38384 8.32203,-24.66987 2.19317,-3.15147 3.78145,-6.26709 3.52952,-6.92363 -1.24491,-3.24417 -20.96798,-9.88475 -33.84611,-11.3957 -14.91709,-1.75018 -24.135127,0.66454 -31.734945,8.31316 -5.154532,5.18764 -8.291772,11.04082 -11.448066,21.35877 -2.319559,7.58266 -2.49485,9.29573 -2.549996,24.92043 -0.05223,14.79693 0.143127,17.15284 1.654439,19.95226 2.592367,4.80187 5.088253,5.66534 5.088253,1.76032 z m 203.070535,-8.02332 c 2.50123,-2.67757 10.10207,-5.55363 14.52844,-5.49736 1.28119,0.0162 4.54113,0.79318 7.2443,1.72645 2.70319,0.93327 5.43838,1.49598 6.0782,1.25045 1.98123,-0.76027 2.41379,-7.94073 1.30559,-21.67305 -2.14269,-26.55152 -8.58521,-41.46306 -18.85445,-43.63957 -1.88119,-0.3987 -7.70555,-0.71749 -12.94302,-0.70842 -7.37618,0.0128 -11.05589,0.49171 -16.32458,2.12475 -9.80331,3.03854 -21.2124,7.86222 -28.89158,12.21516 l -6.672,3.78202 0.54664,16.82822 c 0.54636,16.81935 0.47912,17.52754 -2.74358,28.89754 -0.53803,1.89825 -0.38845,2.09943 1.11116,1.49443 0.95309,-0.38451 4.18158,-0.90475 7.17442,-1.15608 4.93198,-0.41418 6.01765,-0.15552 11.5941,2.76233 6.01379,3.14668 6.23627,3.18976 9.86343,1.91003 5.25791,-1.85511 14.02209,-1.63896 18.447,0.45495 4.93518,2.33536 5.69779,2.2664 8.53593,-0.77185 z M 82.20845,291.55007 c 13.874524,-20.30607 35.14589,-22.96014 71.50536,-8.92184 l 10.29368,3.97436 0.25168,-7.358 c 0.13843,-4.0469 -0.0657,-10.75343 -0.45346,-14.9034 l -0.70514,-7.5454 -9.06921,-3.42758 c -4.98807,-1.88517 -11.60829,-4.7135 -14.71161,-6.28515 -3.10332,-1.57167 -5.99864,-2.85758 -6.43407,-2.85758 -0.43542,0 -3.12065,2.03803 -5.96717,4.52895 -5.24566,4.59037 -8.46836,6.08219 -11.02207,5.10225 -2.21713,-0.85079 -4.94042,-8.06181 -6.47944,-17.15688 -1.72589,-10.19944 -2.58894,-11.9625 -10.126645,-20.68704 l -5.961429,-6.90008 -10.9137,-0.54323 c -16.181454,-0.80544 -24.76484,-3.66224 -38.020939,-12.6545 l -5.341132,-3.62314 0.621472,8.5086 c 1.85553,25.40422 8.253433,46.6382 20.997643,69.68903 3.212655,5.81082 5.84119,11.36642 5.84119,12.34578 0,2.80074 8.851664,14.89862 10.90088,14.89862 0.312912,0 2.470262,-2.7827 4.79411,-6.18377 z m 248.26078,-8.9071 c 8.75793,-13.28817 11.94294,-19.18892 16.32047,-30.23633 6.3565,-16.04168 13.03742,-45.01283 9.93856,-43.09763 -0.57781,0.35711 -0.90692,-2.27502 -0.90692,-7.25324 v -7.81376 l -3.85442,2.36239 c -14.92051,9.14488 -22.13105,11.42781 -37.61562,11.9095 l -11.99509,0.37314 -3.94446,4.29213 c -12.71946,13.84057 -11.70158,12.15495 -12.47693,20.66176 -0.89845,9.85727 -3.23564,17.37633 -5.95502,19.15814 -2.8474,1.8657 -7.09885,0.39914 -12.41928,-4.28408 -2.23852,-1.97042 -4.46249,-3.58259 -4.94217,-3.58259 -0.47967,0 -6.94688,2.44482 -14.37157,5.43292 -7.42469,2.98811 -13.94908,5.4368 -14.49866,5.44153 -1.64718,0.0142 -3.22717,33.11713 -1.65567,34.68863 0.28563,0.28563 5.08098,-1.66966 10.65632,-4.34509 19.14392,-9.18654 32.84127,-12.6193 48.0997,-12.05446 8.24296,0.30513 9.96752,0.67309 15.14471,3.23138 3.70394,1.8303 7.99065,5.0609 11.71126,8.82602 3.22784,3.26644 5.98946,5.93898 6.13696,5.93898 0.14749,0 3.13002,-4.3422 6.62783,-9.64934 z M 121.41615,246.01834 c 5.51609,-3.40914 18.11338,-20.34309 23.16689,-31.14219 2.20471,-4.71136 2.70843,-6.76605 2.25338,-9.19169 -1.24706,-6.64742 -8.83116,-12.24922 -16.57561,-12.24318 -8.73507,0.007 -13.0634,5.52935 -14.87312,18.97662 -1.78619,13.27238 -0.13996,35.43527 2.63208,35.43527 0.23516,0 1.76353,-0.82567 3.39638,-1.83483 z m 157.42932,-1.35047 c 0.99127,-4.63206 0.84668,-32.47542 -0.19805,-38.13978 -1.80604,-9.79202 -5.47933,-13.09315 -14.56219,-13.08681 -5.88013,0.005 -9.57929,2.0294 -13.43933,7.35805 -3.803,5.24989 -3.62988,8.82266 0.85768,17.70061 4.42641,8.75697 10.75018,17.22917 18.06662,24.20454 6.08716,5.80341 8.35095,6.28261 9.27527,1.96339 z M 88.27957,202.94662 c 0,-0.25707 -2.402238,-5.25957 -5.338306,-11.11665 -6.437937,-12.84288 -10.29607,-23.49788 -12.984195,-35.85844 -1.735431,-7.97987 -2.018804,-12.10986 -2.07774,-30.28181 -0.03753,-11.57294 -0.327878,-21.30134 -0.645207,-21.61868 -2.528016,-2.52801 -21.847311,-3.02162 -35.63713,-0.91054 -15.91541,2.43651 -17.546736,1.84539 -14.419143,-5.224842 5.162837,-11.671089 20.59742,-20.138739 53.130523,-29.148221 5.600425,-1.550941 8.901985,-4.64252 8.901985,-8.335812 0,-2.817824 -2.246764,-2.808302 -14.057279,0.05957 -30.4313,7.389444 -48.981444,17.70364 -55.2252366,30.706169 -4.5770141,9.531516 -3.9814985,31.578856 1.2686516,46.968326 3.73072,10.93566 11.397946,25.90615 17.220682,33.62393 5.790524,7.67508 17.302156,18.46659 23.920151,22.42381 9.399324,5.6203 20.354901,8.71553 32.087828,9.0656 2.119929,0.0632 3.854416,-0.0953 3.854416,-0.35241 z m 240.33413,-1.56385 c 23.44724,-5.66238 46.78166,-31.47077 57.73024,-63.8509 3.07262,-9.08721 3.36174,-10.85059 3.75255,-22.88792 0.51774,-15.94665 -0.41802,-20.799042 -5.33519,-27.665797 -7.99352,-11.162817 -25.41027,-19.923865 -52.35654,-26.336599 -12.35797,-2.940977 -15.01543,-2.850439 -15.40608,0.524875 -0.37301,3.222813 2.01752,4.799991 11.61502,7.663157 26.77554,7.987788 37.94941,13.062703 45.94168,20.865652 5.36168,5.234684 9.31726,12.569632 7.66795,14.218942 -0.69639,0.69639 -3.77172,0.63933 -10.74138,-0.19928 -22.55719,-2.71417 -26.51912,-2.75988 -40.37422,-0.46588 l -3.40095,0.56311 -0.0496,14.65775 c -0.0273,8.06176 -0.40039,23.0241 -0.82915,33.24964 -0.86054,20.52289 -2.30259,27.47229 -8.75098,42.17183 -1.75053,3.99046 -3.42565,7.82064 -3.72248,8.51152 -0.44203,1.0288 0.43019,1.13935 4.81912,0.61081 2.94736,-0.35494 7.19535,-1.08885 9.43998,-1.63091 z"
     id="path3843"
     inkscape:connector-curvature="0"
     transform="scale(0.74999999)" />
  <path
     style="fill:none;stroke-width:0.90692127"
     d="M 0.30820941,189.81021 V 0.26366874 H 198.4705 396.63279 V 189.81021 379.35675 H 198.4705 0.30820941 Z M 144.83226,372.20917 c 2.10214,-1.74462 2.68092,-6.37894 1.316,-10.53739 -1.44851,-4.41318 -8.37423,-9.5341 -12.85185,-9.50275 -7.13015,0.0499 -13.92021,5.81422 -14.82885,12.58871 -0.59612,4.4444 0.85578,7.07614 4.52268,8.1979 4.1882,1.28124 20.05205,0.73908 21.84202,-0.74647 z m 137.60875,-0.63392 c 1.1415,-1.03304 1.73355,-2.77516 1.73355,-5.101 0,-10.44475 -10.95503,-17.08631 -20.5343,-12.44906 -2.2714,1.09956 -4.90464,3.26987 -5.85165,4.8229 -1.99408,3.27017 -2.3731,11.59117 -0.59496,13.06199 1.76513,1.46006 5.85216,1.87937 15.0445,1.54348 6.44056,-0.23534 8.88457,-0.68527 10.20286,-1.87831 z m -168.49752,-7.78751 c 0.29625,-4.5725 0.1645,-9.01268 -0.29275,-9.86707 -0.45726,-0.85439 -2.48401,-2.21469 -4.50387,-3.02288 -7.91559,-3.16719 -14.427035,-0.95883 -18.212461,6.17676 -1.718933,3.24023 -1.965476,4.52079 -1.257781,6.53309 1.527917,4.34462 10.706662,8.30276 19.554622,8.43253 l 4.17363,0.0612 0.53861,-8.31364 z m 136.24152,5.68394 c -0.31767,-1.44634 0.0437,-5.00881 0.80302,-7.91662 1.24042,-4.75004 1.23854,-5.50373 -0.0185,-7.42218 -1.693,-2.58386 -6.47363,-4.71173 -10.52481,-4.68462 -4.15568,0.0278 -10.23748,2.98789 -12.15652,5.91672 -5.5798,8.51585 2.91416,16.32955 18.09444,16.6453 4.37533,0.091 4.37932,0.0883 3.80235,-2.5386 z m -80.76994,-0.34482 3.59373,-1.26565 -2.68681,-1.67447 c -1.47775,-0.92096 -5.65836,-4.08685 -9.29024,-7.03532 -8.54826,-6.93971 -9.67136,-6.64749 -8.84055,2.30024 0.9742,10.49199 0.63644,10.07182 7.60861,9.46495 3.31184,-0.28826 7.6387,-1.09365 9.61526,-1.78975 z m 137.29963,-0.32358 c 6.53004,-1.80459 9.54751,-4.83523 8.70592,-8.74389 -1.5364,-7.13562 -4.78954,-10.34087 -10.84033,-10.68079 -7.18279,-0.4035 -8.6386,0.005 -12.35381,3.47105 l -3.66782,3.42131 0.65332,6.63015 c 0.54757,5.55699 0.96343,6.75717 2.56928,7.41493 2.28677,0.93668 8.25925,0.33166 14.93344,-1.51276 z m -104.27633,-3.85207 c 14.01358,-4.36151 23.99347,-14.88318 27.84712,-29.35879 2.06274,-7.74836 1.67509,-16.45883 -0.98247,-22.07645 -2.14334,-4.53063 -2.30099,-5.92828 -2.82317,-25.02784 -0.65717,-24.03684 0.70079,-52.47304 3.1965,-66.93568 3.73834,-21.66383 9.68827,-40.35799 12.84502,-40.35799 2.22387,0 1.9374,3.35324 -1.36132,15.93477 -3.6948,14.09215 -7.43132,34.76144 -8.4886,46.95637 l -0.73485,8.47588 3.58131,-0.57268 c 4.249,-0.67945 20.99778,-7.48722 22.30983,-9.06816 0.64989,-0.78306 -0.39785,-3.3174 -3.61391,-8.74145 -10.92052,-18.41812 -13.69198,-27.11467 -10.5669,-33.15789 1.85169,-3.58078 9.04204,-10.12503 12.89217,-11.73371 3.90046,-1.62972 11.38801,-1.66336 15.19442,-0.0683 4.29544,1.80003 8.38143,5.55775 10.19197,9.37317 0.87741,1.84901 2.31622,7.59704 3.19735,12.77339 0.88114,5.17636 1.79585,9.60534 2.0327,9.84218 0.76064,0.76064 8.7587,-8.91777 14.72567,-17.81946 10.5003,-15.66463 18.11647,-33.85576 20.91068,-49.94486 1.86902,-10.76191 2.28128,-38.4173 0.61603,-41.32555 -0.61855,-1.08026 -2.14826,-7.79972 -3.39935,-14.932136 C 317.14951,80.886675 315.05662,73.244757 310.65685,63.0394 297.99401,33.667698 274.16629,16.273461 237.01465,9.2806017 223.91042,6.8140598 189.58584,5.8304321 173.03007,7.4470171 131.05865,11.545309 102.40956,28.449311 87.601193,57.853168 77.35375,78.200739 71.137993,114.39015 73.610137,139.31195 c 1.709795,17.23653 5.627473,31.52101 13.165693,48.00422 1.767913,3.86576 2.829495,7.02864 2.359064,7.02864 -1.871206,0 -0.624315,2.85459 4.216923,9.6541 6.166829,8.66129 12.012023,14.83278 14.048563,14.83278 1.60872,0 2.6453,-3.36495 2.6453,-8.58714 0,-3.39361 2.78934,-11.96332 4.98428,-15.31321 3.7815,-5.77131 16.03817,-8.66888 23.49318,-5.55398 8.19198,3.42282 14.67583,12.3521 13.90905,19.15492 -0.5461,4.84502 -5.66954,15.79725 -11.70445,25.02024 -2.74152,4.1898 -4.37081,7.57846 -4.0481,8.41941 0.58272,1.51854 8.38687,5.26924 18.71753,8.99572 8.30277,2.99497 9.06378,2.96582 9.06378,-0.34727 0,-9.59313 -6.28726,-44.4058 -10.40921,-57.63595 -1.24325,-3.99045 -2.26659,-8.37768 -2.27407,-9.7494 -0.0168,-3.07834 2.03118,-3.30816 4.04081,-0.45346 2.11257,3.00093 6.34565,16.8187 8.96021,29.24821 3.86467,18.37245 4.62809,28.5719 4.64994,62.1241 0.0212,32.53959 -0.9614,45.46406 -3.78698,49.81117 -1.38058,2.124 -1.47074,2.14011 -2.68468,0.47995 -1.29669,-1.77332 -1.10828,-7.95733 0.64693,-21.23522 0.4261,-3.22332 0.64044,-5.99487 0.47631,-6.15899 -0.16413,-0.16414 -1.49159,0.70557 -2.94992,1.93267 -4.32153,3.63633 -9.14387,14.79407 -10.73066,24.82822 -0.33559,2.12205 -0.9821,3.62839 -1.43671,3.34742 -2.21197,-1.36707 0.44535,11.23367 3.74998,17.78202 4.04268,8.01083 14.55164,16.82874 23.91261,20.0647 6.37842,2.20493 18.63627,2.179 25.81286,-0.0546 z M 84.651885,356.63019 c 0,-2.31749 6.183198,-8.43184 11.024389,-10.90163 5.460086,-2.78553 12.847476,-2.05204 19.218116,1.90818 l 4.66203,2.89807 4.08711,-1.46463 c 5.62803,-2.01684 14.01497,-1.84927 18.92362,0.37808 2.17441,0.98666 4.49356,1.79393 5.15369,1.79393 2.32866,0 2.29289,-3.61193 -0.1122,-11.32586 -2.14957,-6.89444 -2.37834,-8.82057 -1.97188,-16.60188 0.5444,-10.42185 2.55559,-16.38384 8.32203,-24.66987 2.19317,-3.15147 3.78145,-6.26709 3.52952,-6.92363 -1.24491,-3.24417 -20.96798,-9.88475 -33.84611,-11.3957 -14.91709,-1.75018 -24.135127,0.66454 -31.734945,8.31316 -5.154532,5.18764 -8.291772,11.04082 -11.448066,21.35877 -2.319559,7.58266 -2.49485,9.29573 -2.549996,24.92043 -0.05223,14.79693 0.143127,17.15284 1.654439,19.95226 2.592367,4.80187 5.088253,5.66534 5.088253,1.76032 z m 203.070535,-8.02332 c 2.50123,-2.67757 10.10207,-5.55363 14.52844,-5.49736 1.28119,0.0162 4.54113,0.79318 7.2443,1.72645 2.70319,0.93327 5.43838,1.49598 6.0782,1.25045 1.98123,-0.76027 2.41379,-7.94073 1.30559,-21.67305 -2.14269,-26.55152 -8.58521,-41.46306 -18.85445,-43.63957 -1.88119,-0.3987 -7.70555,-0.71749 -12.94302,-0.70842 -7.37618,0.0128 -11.05589,0.49171 -16.32458,2.12475 -9.80331,3.03854 -21.2124,7.86222 -28.89158,12.21516 l -6.672,3.78202 0.54664,16.82822 c 0.54636,16.81935 0.47912,17.52754 -2.74358,28.89754 -0.53803,1.89825 -0.38845,2.09943 1.11116,1.49443 0.95309,-0.38451 4.18158,-0.90475 7.17442,-1.15608 4.93198,-0.41418 6.01765,-0.15552 11.5941,2.76233 6.01379,3.14668 6.23627,3.18976 9.86343,1.91003 5.25791,-1.85511 14.02209,-1.63896 18.447,0.45495 4.93518,2.33536 5.69779,2.2664 8.53593,-0.77185 z M 82.20845,291.55007 c 13.874524,-20.30607 35.14589,-22.96014 71.50536,-8.92184 l 10.29368,3.97436 0.25168,-7.358 c 0.13843,-4.0469 -0.0657,-10.75343 -0.45346,-14.9034 l -0.70514,-7.5454 -9.06921,-3.42758 c -4.98807,-1.88517 -11.60829,-4.7135 -14.71161,-6.28515 -3.10332,-1.57167 -5.99864,-2.85758 -6.43407,-2.85758 -0.43542,0 -3.12065,2.03803 -5.96717,4.52895 -5.24566,4.59037 -8.46836,6.08219 -11.02207,5.10225 -2.21713,-0.85079 -4.94042,-8.06181 -6.47944,-17.15688 -1.72589,-10.19944 -2.58894,-11.9625 -10.126645,-20.68704 l -5.961429,-6.90008 -10.9137,-0.54323 c -16.181454,-0.80544 -24.76484,-3.66224 -38.020939,-12.6545 l -5.341132,-3.62314 0.621472,8.5086 c 1.85553,25.40422 8.253433,46.6382 20.997643,69.68903 3.212655,5.81082 5.84119,11.36642 5.84119,12.34578 0,2.80074 8.851664,14.89862 10.90088,14.89862 0.312912,0 2.470262,-2.7827 4.79411,-6.18377 z m 248.26078,-8.9071 c 8.75793,-13.28817 11.94294,-19.18892 16.32047,-30.23633 6.3565,-16.04168 13.03742,-45.01283 9.93856,-43.09763 -0.57781,0.35711 -0.90692,-2.27502 -0.90692,-7.25324 v -7.81376 l -3.85442,2.36239 c -14.92051,9.14488 -22.13105,11.42781 -37.61562,11.9095 l -11.99509,0.37314 -3.94446,4.29213 c -12.71946,13.84057 -11.70158,12.15495 -12.47693,20.66176 -0.89845,9.85727 -3.23564,17.37633 -5.95502,19.15814 -2.8474,1.8657 -7.09885,0.39914 -12.41928,-4.28408 -2.23852,-1.97042 -4.46249,-3.58259 -4.94217,-3.58259 -0.47967,0 -6.94688,2.44482 -14.37157,5.43292 -7.42469,2.98811 -13.94908,5.4368 -14.49866,5.44153 -1.64718,0.0142 -3.22717,33.11713 -1.65567,34.68863 0.28563,0.28563 5.08098,-1.66966 10.65632,-4.34509 19.14392,-9.18654 32.84127,-12.6193 48.0997,-12.05446 8.24296,0.30513 9.96752,0.67309 15.14471,3.23138 3.70394,1.8303 7.99065,5.0609 11.71126,8.82602 3.22784,3.26644 5.98946,5.93898 6.13696,5.93898 0.14749,0 3.13002,-4.3422 6.62783,-9.64934 z M 121.41615,246.01834 c 5.51609,-3.40914 18.11338,-20.34309 23.16689,-31.14219 2.20471,-4.71136 2.70843,-6.76605 2.25338,-9.19169 -1.24706,-6.64742 -8.83116,-12.24922 -16.57561,-12.24318 -8.73507,0.007 -13.0634,5.52935 -14.87312,18.97662 -1.78619,13.27238 -0.13996,35.43527 2.63208,35.43527 0.23516,0 1.76353,-0.82567 3.39638,-1.83483 z m 157.42932,-1.35047 c 0.99127,-4.63206 0.84668,-32.47542 -0.19805,-38.13978 -1.80604,-9.79202 -5.47933,-13.09315 -14.56219,-13.08681 -5.88013,0.005 -9.57929,2.0294 -13.43933,7.35805 -3.803,5.24989 -3.62988,8.82266 0.85768,17.70061 4.42641,8.75697 10.75018,17.22917 18.06662,24.20454 6.08716,5.80341 8.35095,6.28261 9.27527,1.96339 z M 88.27957,202.94662 c 0,-0.25707 -2.402238,-5.25957 -5.338306,-11.11665 -6.437937,-12.84288 -10.29607,-23.49788 -12.984195,-35.85844 -1.735431,-7.97987 -2.018804,-12.10986 -2.07774,-30.28181 -0.03753,-11.57294 -0.327878,-21.30134 -0.645207,-21.61868 -2.528016,-2.52801 -21.847311,-3.02162 -35.63713,-0.91054 -15.91541,2.43651 -17.546736,1.84539 -14.419143,-5.224842 5.162837,-11.671089 20.59742,-20.138739 53.130523,-29.148221 5.600425,-1.550941 8.901985,-4.64252 8.901985,-8.335812 0,-2.817824 -2.246764,-2.808302 -14.057279,0.05957 -30.4313,7.389444 -48.981444,17.70364 -55.2252366,30.706169 -4.5770141,9.531516 -3.9814985,31.578856 1.2686516,46.968326 3.73072,10.93566 11.397946,25.90615 17.220682,33.62393 5.790524,7.67508 17.302156,18.46659 23.920151,22.42381 9.399324,5.6203 20.354901,8.71553 32.087828,9.0656 2.119929,0.0632 3.854416,-0.0953 3.854416,-0.35241 z m 240.33413,-1.56385 c 23.44724,-5.66238 46.78166,-31.47077 57.73024,-63.8509 3.07262,-9.08721 3.36174,-10.85059 3.75255,-22.88792 0.51774,-15.94665 -0.41802,-20.799042 -5.33519,-27.665797 -7.99352,-11.162817 -25.41027,-19.923865 -52.35654,-26.336599 -12.35797,-2.940977 -15.01543,-2.850439 -15.40608,0.524875 -0.37301,3.222813 2.01752,4.799991 11.61502,7.663157 26.77554,7.987788 37.94941,13.062703 45.94168,20.865652 5.36168,5.234684 9.31726,12.569632 7.66795,14.218942 -0.69639,0.69639 -3.77172,0.63933 -10.74138,-0.19928 -22.55719,-2.71417 -26.51912,-2.75988 -40.37422,-0.46588 l -3.40095,0.56311 -0.0496,14.65775 c -0.0273,8.06176 -0.40039,23.0241 -0.82915,33.24964 -0.86054,20.52289 -2.30259,27.47229 -8.75098,42.17183 -1.75053,3.99046 -3.42565,7.82064 -3.72248,8.51152 -0.44203,1.0288 0.43019,1.13935 4.81912,0.61081 2.94736,-0.35494 7.19535,-1.08885 9.43998,-1.63091 z"
     id="path3845"
     inkscape:connector-curvature="0"
     transform="scale(0.74999999)" />
  <path
     style="fill:#ffeeaa;stroke-width:0.90692127"
     d="M 0.30820941,189.81021 V 0.26366874 H 198.4705 396.63279 V 189.81021 379.35675 H 198.4705 0.30820941 Z M 144.83226,372.20917 c 2.10214,-1.74462 2.68092,-6.37894 1.316,-10.53739 -1.44851,-4.41318 -8.37423,-9.5341 -12.85185,-9.50275 -7.13015,0.0499 -13.92021,5.81422 -14.82885,12.58871 -0.59612,4.4444 0.85578,7.07614 4.52268,8.1979 4.1882,1.28124 20.05205,0.73908 21.84202,-0.74647 z m 137.60875,-0.63392 c 1.1415,-1.03304 1.73355,-2.77516 1.73355,-5.101 0,-10.44475 -10.95503,-17.08631 -20.5343,-12.44906 -2.2714,1.09956 -4.90464,3.26987 -5.85165,4.8229 -1.99408,3.27017 -2.3731,11.59117 -0.59496,13.06199 1.76513,1.46006 5.85216,1.87937 15.0445,1.54348 6.44056,-0.23534 8.88457,-0.68527 10.20286,-1.87831 z m -168.49752,-7.78751 c 0.29625,-4.5725 0.1645,-9.01268 -0.29275,-9.86707 -0.45726,-0.85439 -2.48401,-2.21469 -4.50387,-3.02288 -7.91559,-3.16719 -14.427035,-0.95883 -18.212461,6.17676 -1.718933,3.24023 -1.965476,4.52079 -1.257781,6.53309 1.527917,4.34462 10.706662,8.30276 19.554622,8.43253 l 4.17363,0.0612 0.53861,-8.31364 z m 136.24152,5.68394 c -0.31767,-1.44634 0.0437,-5.00881 0.80302,-7.91662 1.24042,-4.75004 1.23854,-5.50373 -0.0185,-7.42218 -1.693,-2.58386 -6.47363,-4.71173 -10.52481,-4.68462 -4.15568,0.0278 -10.23748,2.98789 -12.15652,5.91672 -5.5798,8.51585 2.91416,16.32955 18.09444,16.6453 4.37533,0.091 4.37932,0.0883 3.80235,-2.5386 z m -80.76994,-0.34482 3.59373,-1.26565 -2.68681,-1.67447 c -1.47775,-0.92096 -5.65836,-4.08685 -9.29024,-7.03532 -8.54826,-6.93971 -9.67136,-6.64749 -8.84055,2.30024 0.9742,10.49199 0.63644,10.07182 7.60861,9.46495 3.31184,-0.28826 7.6387,-1.09365 9.61526,-1.78975 z m 137.29963,-0.32358 c 6.53004,-1.80459 9.54751,-4.83523 8.70592,-8.74389 -1.5364,-7.13562 -4.78954,-10.34087 -10.84033,-10.68079 -7.18279,-0.4035 -8.6386,0.005 -12.35381,3.47105 l -3.66782,3.42131 0.65332,6.63015 c 0.54757,5.55699 0.96343,6.75717 2.56928,7.41493 2.28677,0.93668 8.25925,0.33166 14.93344,-1.51276 z m -104.27633,-3.85207 c 14.01358,-4.36151 23.99347,-14.88318 27.84712,-29.35879 2.06274,-7.74836 1.67509,-16.45883 -0.98247,-22.07645 -2.14334,-4.53063 -2.30099,-5.92828 -2.82317,-25.02784 -0.65717,-24.03684 0.70079,-52.47304 3.1965,-66.93568 3.73834,-21.66383 9.68827,-40.35799 12.84502,-40.35799 2.22387,0 1.9374,3.35324 -1.36132,15.93477 -3.6948,14.09215 -7.43132,34.76144 -8.4886,46.95637 l -0.73485,8.47588 3.58131,-0.57268 c 4.249,-0.67945 20.99778,-7.48722 22.30983,-9.06816 0.64989,-0.78306 -0.39785,-3.3174 -3.61391,-8.74145 -10.92052,-18.41812 -13.69198,-27.11467 -10.5669,-33.15789 1.85169,-3.58078 9.04204,-10.12503 12.89217,-11.73371 3.90046,-1.62972 11.38801,-1.66336 15.19442,-0.0683 4.29544,1.80003 8.38143,5.55775 10.19197,9.37317 0.87741,1.84901 2.31622,7.59704 3.19735,12.77339 0.88114,5.17636 1.79585,9.60534 2.0327,9.84218 0.76064,0.76064 8.7587,-8.91777 14.72567,-17.81946 10.5003,-15.66463 18.11647,-33.85576 20.91068,-49.94486 1.86902,-10.76191 2.28128,-38.4173 0.61603,-41.32555 -0.61855,-1.08026 -2.14826,-7.79972 -3.39935,-14.932136 C 317.14951,80.886675 315.05662,73.244757 310.65685,63.0394 297.99401,33.667698 274.16629,16.273461 237.01465,9.2806017 223.91042,6.8140598 189.58584,5.8304321 173.03007,7.4470171 131.05865,11.545309 102.40956,28.449311 87.601193,57.853168 77.35375,78.200739 71.137993,114.39015 73.610137,139.31195 c 1.709795,17.23653 5.627473,31.52101 13.165693,48.00422 1.767913,3.86576 2.829495,7.02864 2.359064,7.02864 -1.871206,0 -0.624315,2.85459 4.216923,9.6541 6.166829,8.66129 12.012023,14.83278 14.048563,14.83278 1.60872,0 2.6453,-3.36495 2.6453,-8.58714 0,-3.39361 2.78934,-11.96332 4.98428,-15.31321 3.7815,-5.77131 16.03817,-8.66888 23.49318,-5.55398 8.19198,3.42282 14.67583,12.3521 13.90905,19.15492 -0.5461,4.84502 -5.66954,15.79725 -11.70445,25.02024 -2.74152,4.1898 -4.37081,7.57846 -4.0481,8.41941 0.58272,1.51854 8.38687,5.26924 18.71753,8.99572 8.30277,2.99497 9.06378,2.96582 9.06378,-0.34727 0,-9.59313 -6.28726,-44.4058 -10.40921,-57.63595 -1.24325,-3.99045 -2.26659,-8.37768 -2.27407,-9.7494 -0.0168,-3.07834 2.03118,-3.30816 4.04081,-0.45346 2.11257,3.00093 6.34565,16.8187 8.96021,29.24821 3.86467,18.37245 4.62809,28.5719 4.64994,62.1241 0.0212,32.53959 -0.9614,45.46406 -3.78698,49.81117 -1.38058,2.124 -1.47074,2.14011 -2.68468,0.47995 -1.29669,-1.77332 -1.10828,-7.95733 0.64693,-21.23522 0.4261,-3.22332 0.64044,-5.99487 0.47631,-6.15899 -0.16413,-0.16414 -1.49159,0.70557 -2.94992,1.93267 -4.32153,3.63633 -9.14387,14.79407 -10.73066,24.82822 -0.33559,2.12205 -0.9821,3.62839 -1.43671,3.34742 -2.21197,-1.36707 0.44535,11.23367 3.74998,17.78202 4.04268,8.01083 14.55164,16.82874 23.91261,20.0647 6.37842,2.20493 18.63627,2.179 25.81286,-0.0546 z M 84.651885,356.63019 c 0,-2.31749 6.183198,-8.43184 11.024389,-10.90163 5.460086,-2.78553 12.847476,-2.05204 19.218116,1.90818 l 4.66203,2.89807 4.08711,-1.46463 c 5.62803,-2.01684 14.01497,-1.84927 18.92362,0.37808 2.17441,0.98666 4.49356,1.79393 5.15369,1.79393 2.32866,0 2.29289,-3.61193 -0.1122,-11.32586 -2.14957,-6.89444 -2.37834,-8.82057 -1.97188,-16.60188 0.5444,-10.42185 2.55559,-16.38384 8.32203,-24.66987 2.19317,-3.15147 3.78145,-6.26709 3.52952,-6.92363 -1.24491,-3.24417 -20.96798,-9.88475 -33.84611,-11.3957 -14.91709,-1.75018 -24.135127,0.66454 -31.734945,8.31316 -5.154532,5.18764 -8.291772,11.04082 -11.448066,21.35877 -2.319559,7.58266 -2.49485,9.29573 -2.549996,24.92043 -0.05223,14.79693 0.143127,17.15284 1.654439,19.95226 2.592367,4.80187 5.088253,5.66534 5.088253,1.76032 z m 203.070535,-8.02332 c 2.50123,-2.67757 10.10207,-5.55363 14.52844,-5.49736 1.28119,0.0162 4.54113,0.79318 7.2443,1.72645 2.70319,0.93327 5.43838,1.49598 6.0782,1.25045 1.98123,-0.76027 2.41379,-7.94073 1.30559,-21.67305 -2.14269,-26.55152 -8.58521,-41.46306 -18.85445,-43.63957 -1.88119,-0.3987 -7.70555,-0.71749 -12.94302,-0.70842 -7.37618,0.0128 -11.05589,0.49171 -16.32458,2.12475 -9.80331,3.03854 -21.2124,7.86222 -28.89158,12.21516 l -6.672,3.78202 0.54664,16.82822 c 0.54636,16.81935 0.47912,17.52754 -2.74358,28.89754 -0.53803,1.89825 -0.38845,2.09943 1.11116,1.49443 0.95309,-0.38451 4.18158,-0.90475 7.17442,-1.15608 4.93198,-0.41418 6.01765,-0.15552 11.5941,2.76233 6.01379,3.14668 6.23627,3.18976 9.86343,1.91003 5.25791,-1.85511 14.02209,-1.63896 18.447,0.45495 4.93518,2.33536 5.69779,2.2664 8.53593,-0.77185 z M 82.20845,291.55007 c 13.874524,-20.30607 35.14589,-22.96014 71.50536,-8.92184 l 10.29368,3.97436 0.25168,-7.358 c 0.13843,-4.0469 -0.0657,-10.75343 -0.45346,-14.9034 l -0.70514,-7.5454 -9.06921,-3.42758 c -4.98807,-1.88517 -11.60829,-4.7135 -14.71161,-6.28515 -3.10332,-1.57167 -5.99864,-2.85758 -6.43407,-2.85758 -0.43542,0 -3.12065,2.03803 -5.96717,4.52895 -5.24566,4.59037 -8.46836,6.08219 -11.02207,5.10225 -2.21713,-0.85079 -4.94042,-8.06181 -6.47944,-17.15688 -1.72589,-10.19944 -2.58894,-11.9625 -10.126645,-20.68704 l -5.961429,-6.90008 -10.9137,-0.54323 c -16.181454,-0.80544 -24.76484,-3.66224 -38.020939,-12.6545 l -5.341132,-3.62314 0.621472,8.5086 c 1.85553,25.40422 8.253433,46.6382 20.997643,69.68903 3.212655,5.81082 5.84119,11.36642 5.84119,12.34578 0,2.80074 8.851664,14.89862 10.90088,14.89862 0.312912,0 2.470262,-2.7827 4.79411,-6.18377 z m 248.26078,-8.9071 c 8.75793,-13.28817 11.94294,-19.18892 16.32047,-30.23633 6.3565,-16.04168 13.03742,-45.01283 9.93856,-43.09763 -0.57781,0.35711 -0.90692,-2.27502 -0.90692,-7.25324 v -7.81376 l -3.85442,2.36239 c -14.92051,9.14488 -22.13105,11.42781 -37.61562,11.9095 l -11.99509,0.37314 -3.94446,4.29213 c -12.71946,13.84057 -11.70158,12.15495 -12.47693,20.66176 -0.89845,9.85727 -3.23564,17.37633 -5.95502,19.15814 -2.8474,1.8657 -7.09885,0.39914 -12.41928,-4.28408 -2.23852,-1.97042 -4.46249,-3.58259 -4.94217,-3.58259 -0.47967,0 -6.94688,2.44482 -14.37157,5.43292 -7.42469,2.98811 -13.94908,5.4368 -14.49866,5.44153 -1.64718,0.0142 -3.22717,33.11713 -1.65567,34.68863 0.28563,0.28563 5.08098,-1.66966 10.65632,-4.34509 19.14392,-9.18654 32.84127,-12.6193 48.0997,-12.05446 8.24296,0.30513 9.96752,0.67309 15.14471,3.23138 3.70394,1.8303 7.99065,5.0609 11.71126,8.82602 3.22784,3.26644 5.98946,5.93898 6.13696,5.93898 0.14749,0 3.13002,-4.3422 6.62783,-9.64934 z M 121.41615,246.01834 c 5.51609,-3.40914 18.11338,-20.34309 23.16689,-31.14219 2.20471,-4.71136 2.70843,-6.76605 2.25338,-9.19169 -1.24706,-6.64742 -8.83116,-12.24922 -16.57561,-12.24318 -8.73507,0.007 -13.0634,5.52935 -14.87312,18.97662 -1.78619,13.27238 -0.13996,35.43527 2.63208,35.43527 0.23516,0 1.76353,-0.82567 3.39638,-1.83483 z m 157.42932,-1.35047 c 0.99127,-4.63206 0.84668,-32.47542 -0.19805,-38.13978 -1.80604,-9.79202 -5.47933,-13.09315 -14.56219,-13.08681 -5.88013,0.005 -9.57929,2.0294 -13.43933,7.35805 -3.803,5.24989 -3.62988,8.82266 0.85768,17.70061 4.42641,8.75697 10.75018,17.22917 18.06662,24.20454 6.08716,5.80341 8.35095,6.28261 9.27527,1.96339 z M 88.27957,202.94662 c 0,-0.25707 -2.402238,-5.25957 -5.338306,-11.11665 -6.437937,-12.84288 -10.29607,-23.49788 -12.984195,-35.85844 -1.735431,-7.97987 -2.018804,-12.10986 -2.07774,-30.28181 -0.03753,-11.57294 -0.327878,-21.30134 -0.645207,-21.61868 -2.528016,-2.52801 -21.847311,-3.02162 -35.63713,-0.91054 -15.91541,2.43651 -17.546736,1.84539 -14.419143,-5.224842 5.162837,-11.671089 20.59742,-20.138739 53.130523,-29.148221 5.600425,-1.550941 8.901985,-4.64252 8.901985,-8.335812 0,-2.817824 -2.246764,-2.808302 -14.057279,0.05957 -30.4313,7.389444 -48.981444,17.70364 -55.2252366,30.706169 -4.5770141,9.531516 -3.9814985,31.578856 1.2686516,46.968326 3.73072,10.93566 11.397946,25.90615 17.220682,33.62393 5.790524,7.67508 17.302156,18.46659 23.920151,22.42381 9.399324,5.6203 20.354901,8.71553 32.087828,9.0656 2.119929,0.0632 3.854416,-0.0953 3.854416,-0.35241 z m 240.33413,-1.56385 c 23.44724,-5.66238 46.78166,-31.47077 57.73024,-63.8509 3.07262,-9.08721 3.36174,-10.85059 3.75255,-22.88792 0.51774,-15.94665 -0.41802,-20.799042 -5.33519,-27.665797 -7.99352,-11.162817 -25.41027,-19.923865 -52.35654,-26.336599 -12.35797,-2.940977 -15.01543,-2.850439 -15.40608,0.524875 -0.37301,3.222813 2.01752,4.799991 11.61502,7.663157 26.77554,7.987788 37.94941,13.062703 45.94168,20.865652 5.36168,5.234684 9.31726,12.569632 7.66795,14.218942 -0.69639,0.69639 -3.77172,0.63933 -10.74138,-0.19928 -22.55719,-2.71417 -26.51912,-2.75988 -40.37422,-0.46588 l -3.40095,0.56311 -0.0496,14.65775 c -0.0273,8.06176 -0.40039,23.0241 -0.82915,33.24964 -0.86054,20.52289 -2.30259,27.47229 -8.75098,42.17183 -1.75053,3.99046 -3.42565,7.82064 -3.72248,8.51152 -0.44203,1.0288 0.43019,1.13935 4.81912,0.61081 2.94736,-0.35494 7.19535,-1.08885 9.43998,-1.63091 z"
     id="path3847"
     inkscape:connector-curvature="0"
     transform="scale(0.74999999)" />
  <path
     style="fill:#ffeeaa;stroke-width:0.90692127"
     d="m 163.0574,121.42312 c -8.06439,-3.51271 -7.78086,-15.2487 0.45078,-18.65836 8.75207,-3.625226 17.70639,6.41861 12.76625,14.31959 -1.73495,2.77479 -6.54359,5.66204 -9.29031,5.57819 -0.63953,-0.0195 -2.40655,-0.57727 -3.92672,-1.23942 z"
     id="path3851"
     inkscape:connector-curvature="0"
     transform="scale(0.74999999)" />
  <path
     style="fill:#00ff00;stroke-width:0.90692127"
     d="m 223.75605,121.01721 c -6.77898,-4.25593 -6.17557,-14.34496 1.06339,-17.78008 4.32559,-2.05262 8.39954,-1.25911 11.80963,2.30025 3.82997,3.99763 3.76633,9.66389 -0.15257,13.58278 -3.64976,3.64976 -8.72345,4.40642 -12.72045,1.89705 z"
     id="path3853"
     inkscape:connector-curvature="0"
     transform="scale(0.74999999)" />
  <path
     style="fill:#00ff00;stroke-width:0.90692127"
     d="m 162.64711,120.63694 c -1.24702,-0.6201 -3.01395,-2.65223 -3.92653,-4.51584 -1.39437,-2.84753 -1.49246,-3.89369 -0.61454,-6.55384 1.422,-4.3087 4.84362,-6.82149 9.28868,-6.82149 4.83538,0 9.76313,4.65875 9.76313,9.23018 0,7.10197 -8.01975,11.8887 -14.51074,8.66099 z"
     id="path3855"
     inkscape:connector-curvature="0"
     transform="scale(0.74999999)" />
  <path
     style="fill:#1a1a1a;stroke-width:0.75"
     id="path3861"
     d="m 126.54521,81.624486 c 0.66499,0.232028 1.06684,0.667733 1.36945,1.285073 0.18979,0.501982 0.24523,1.04112 0.2273,1.574265 -0.18133,1.161682 -1.29187,1.201627 -2.48581,1.802302 -0.0542,0.0273 -0.11966,-0.02062 -0.17957,-0.03037 -0.062,-0.01013 -0.1241,-0.01958 -0.18616,-0.02933 -0.59739,-0.21162 -1.04012,-0.646582 -1.46085,-1.102837 -0.38582,-0.437858 -0.56459,-0.972998 -0.6062,-1.54617 0.0256,-0.188535 0.0579,-0.471893 0.24573,-0.586598 1.58917,-0.97041 1.61693,-1.272172 2.7854,-1.41105 0,0 -2.01228,1.514685 -2.01228,1.514685 v 0 c -0.0716,0.0162 -0.14456,0.02708 -0.21471,0.0486 -0.0676,0.0207 -0.2574,0.114668 -0.19718,0.07772 0.65366,-0.401123 1.32276,-0.776565 1.98002,-1.171763 0.0524,-0.0315 -0.11583,0.04365 -0.16475,0.08027 -0.11893,0.08894 -0.12916,0.165945 -0.18355,0.297255 -0.003,0.519075 0.16499,1.001453 0.50646,1.397708 0.38362,0.413347 0.8051,0.82875 1.38012,0.939675 0.0584,0.003 0.11667,0.012 0.17501,0.0088 0.0485,-0.0023 0.18453,-0.0516 0.14332,-0.02587 -0.6747,0.420375 -1.3716,0.804127 -2.05205,1.215142 -0.0384,0.02318 0.0898,-0.02258 0.12458,-0.05092 0.0951,-0.07757 0.11427,-0.191205 0.15092,-0.299355 0.0524,-0.490455 -0.006,-0.994942 -0.15976,-1.463527 -0.25498,-0.546203 -0.65066,-0.951975 -1.25938,-1.08516 0,0 2.07394,-1.43859 2.07394,-1.43859 z"
     inkscape:connector-curvature="0" />
  <path
     style="fill:#1a1a1a;stroke-width:0.75"
     id="path3863"
     d="m 172.95253,81.050976 c 0.46641,0.07765 0.78222,0.354195 1.00694,0.753788 0.21005,0.451492 0.23933,0.953122 0.26218,1.44288 0.0148,0.480405 0.0543,0.963517 -0.10591,1.423612 -0.50252,0.79518 -2.11133,1.831463 -3.24797,1.518465 -0.44228,-0.209302 -0.39054,-0.716955 -0.34766,-1.12905 0.0334,-0.28947 0.0533,-0.578137 0.10748,-0.86448 0,0 2.27177,-1.088587 2.27177,-1.088587 v 0 c -0.087,0.272317 -0.0848,0.5496 -0.11883,0.83265 -0.0197,0.166305 -0.15559,0.639547 0.0236,0.758977 0.0391,0.02603 0.0888,0.0306 0.13322,0.0459 0.19556,0.01793 0.37375,0.01207 0.56201,-0.05535 0.0601,-0.02152 0.22761,-0.114765 0.1731,-0.08164 -1.14796,0.69756 -2.72993,1.615567 -1.8555,1.10775 0.2573,-0.392925 0.16881,-0.869378 0.16945,-1.317225 -0.0175,-0.450075 -0.0287,-0.915008 -0.21181,-1.334265 -0.19315,-0.334365 -0.46579,-0.526523 -0.86449,-0.529485 0,0 2.0425,-1.483965 2.0425,-1.483965 z"
     inkscape:connector-curvature="0" />
  <path
     style="fill:#1a1a1a;stroke-width:0.75"
     id="path3865"
     d="m 171.07433,83.946194 c -0.007,-0.02287 -0.0127,-0.04605 -0.0202,-0.06863 -0.0394,-0.11802 -0.0236,-0.04567 -0.0581,-0.17733 -0.0283,-0.107903 -0.0421,-0.218295 -0.0592,-0.328313 -0.042,-0.210345 -0.0813,-0.421845 -0.11554,-0.63381 -0.0208,-0.138892 -0.0345,-0.279502 -0.0294,-0.42 0.0613,-0.297247 0.43488,-0.529965 0.73215,-0.471577 0.14289,0.02347 0.2025,0.03007 0.27243,0.16407 0.0583,0.12312 0.08,0.25779 0.0938,0.39204 0.0103,0.132585 0.0114,0.26562 0.0115,0.398527 -1e-4,0.126518 -3.2e-4,0.253043 -7.5e-4,0.379568 0.005,0.13074 -0.0127,0.259297 -0.0831,0.371025 -0.1603,0.173707 -0.53455,0.51201 -0.76457,0.292597 -0.0203,-0.01927 -0.0365,-0.04245 -0.0548,-0.06367 -0.13257,-0.199635 -0.18486,-0.434197 -0.22498,-0.666795 -0.0279,-0.171787 -0.0332,-0.295702 0.0832,-0.433785 0.32581,-0.25284 0.5607,-0.431932 0.93232,-0.372277 0.11135,0.02048 0.2493,0.06645 0.33903,0.138397 0.0703,0.05633 0.10168,0.11199 0.15264,0.184425 0.0935,0.212505 0.20499,0.42588 0.24529,0.65697 0.009,0.05205 0.0121,0.105023 0.0181,0.15753 0.0158,0.1848 0.0188,0.368985 -0.0319,0.549023 -0.0271,0.09619 -0.0485,0.13713 -0.0877,0.227235 -0.16109,0.315187 -0.35366,0.357712 -0.73609,0.548122 -0.0211,0.0105 -0.11116,-0.03045 -0.12576,-0.0363 -0.1764,-0.121125 -0.22964,-0.286065 -0.27044,-0.48774 -0.0322,-0.234517 -0.093,-0.46365 -0.13282,-0.696825 -0.019,-0.134145 -0.049,-0.27192 0.008,-0.399757 0.3228,-0.41763 0.56883,-0.42603 0.90376,-0.249668 0.25781,0.151778 0.37594,0.347505 0.48878,0.615938 0.0642,0.178822 0.10355,0.366742 0.10386,0.557002 -0.009,0.04852 -0.0194,0.120023 -0.0678,0.14928 -0.34123,0.206078 -0.4177,0.349868 -0.70966,0.34044 -0.1639,-0.01537 -0.31531,-0.0504 -0.45665,-0.135922 -0.13068,-0.0972 -0.17913,-0.233813 -0.20454,-0.388095 -0.003,-0.05895 -0.008,-0.07877 0.006,-0.135803 0.006,-0.0246 0.0296,-0.08268 0.0538,-0.09789 0.53949,-0.34032 0.36599,-0.297157 0.6373,-0.3549 0.13795,-0.02415 0.24841,0.003 0.33706,0.113685 0.008,0.0198 0.0248,0.04942 0.0205,0.0732 -0.002,0.01418 -0.005,0.03225 -0.0175,0.03953 -0.19131,0.112035 -0.38611,0.218745 -0.58626,0.314078 -0.0169,0.008 -0.0369,-0.006 -0.0553,-0.0085 -0.0207,-0.003 -0.0414,-0.006 -0.0621,-0.009 -0.12383,-0.01815 -0.25555,-0.0096 -0.34989,-0.103508 -0.11711,-0.29409 0.44273,-0.44292 0.70439,-0.422655 0.11442,0.0201 0.18315,0.09369 0.0976,0.19533 -0.29786,0.262028 -0.51935,0.360368 -0.85503,0.37506 -0.1374,0.003 -0.20861,0.02858 -0.28477,-0.103387 -0.0394,-0.14043 -0.0448,-0.28944 -0.0387,-0.434535 0.005,-0.290333 0.46179,-0.55254 0.69657,-0.369008 0.0164,0.01283 0.0296,0.0294 0.0444,0.0441 0.0862,0.10482 0.10554,0.22905 0.0961,0.360443 -0.0158,0.135892 -0.11,0.222007 -0.21119,0.302782 -0.19489,0.11046 -0.38596,0.227918 -0.58465,0.331388 -0.072,0.0375 -0.15917,-0.09941 -0.18507,-0.145568 -0.0463,-0.102435 -0.07,-0.215025 -0.0409,-0.325132 0.23683,-0.13779 0.4178,-0.476993 0.60165,-0.299153 0.0642,0.0621 0.0683,0.152738 0.0783,0.235868 0.0156,0.16977 0.0189,0.340357 0.021,0.510735 0.0236,0.1224 0.0361,0.238702 -0.0533,0.336097 -0.47876,0.26091 -0.53563,0.47439 -0.83249,0.1509 -0.0994,-0.1497 -0.11926,-0.333555 -0.13487,-0.508485 -0.0112,-0.142237 -0.009,-0.284992 -0.009,-0.42753 0.005,-0.127762 0.0434,-0.250425 0.0647,-0.375802 0.0287,-0.144743 0.0641,-0.287498 0.10236,-0.429953 0.0565,-0.149205 0.12975,-0.292462 0.20486,-0.4332 0.16966,-0.286252 0.50046,-0.471922 0.82683,-0.524947 0.12632,0.0079 0.24949,0.04305 0.37525,0.06038 0.15672,0.003 0.25121,0.04252 0.37654,0.13386 0.0749,0.0546 0.10616,0.132907 0.13034,0.218565 0,0 -0.55383,0.300082 -0.55383,0.300082 v 0 c -0.0171,-0.07388 -0.0401,-0.136605 -0.10598,-0.181365 -0.12046,-0.08084 -0.2174,-0.10017 -0.3609,-0.109275 -0.11965,-0.01905 -0.24112,-0.05827 -0.3626,-0.0414 -0.21235,0.05933 -0.49439,0.262493 0.38144,-0.249165 0.0171,-0.01 -0.0349,0.0192 -0.05,0.03187 -0.0365,0.03045 -0.0583,0.06705 -0.0854,0.105338 -0.0766,0.13584 -0.14334,0.277627 -0.20924,0.418785 -0.0382,0.14067 -0.0782,0.280132 -0.10439,0.423615 -0.0188,0.12369 -0.0564,0.24318 -0.0696,0.367425 -0.002,0.14133 -0.002,0.282795 0.005,0.424012 0.0116,0.160928 0.0232,0.333233 0.11583,0.470723 0.0413,0.04275 0.0828,0.08864 0.14159,0.107445 0.0427,0.01365 0.0836,-0.0089 0.0708,-7.5e-4 -0.16633,0.102412 -0.33726,0.19716 -0.50589,0.29574 0.014,-0.003 0.0297,-0.0015 0.0421,-0.009 0.0948,-0.05415 0.056,-0.186278 0.0419,-0.268545 1.6e-4,-0.168428 -2.9e-4,-0.3372 -0.016,-0.50505 -0.005,-0.0414 -0.009,-0.09289 -0.0224,-0.134093 -0.003,-0.0098 -0.0152,-0.03878 -0.0304,-0.0426 -0.005,-7.5e-4 -0.0163,0.0088 -0.0125,0.006 0.17201,-0.105667 0.34442,-0.210697 0.51663,-0.31605 -0.0717,0.06533 -0.0183,0.192825 0.01,0.268988 0.0163,0.02805 0.0365,0.0705 0.0712,0.0816 0.019,0.006 0.047,-0.0077 0.062,-0.01275 -0.16509,0.09725 -0.33018,0.194505 -0.49528,0.291757 0.098,-0.06285 0.20193,-0.13818 0.23419,-0.255022 0.0161,-0.111008 0.006,-0.21933 -0.0693,-0.308205 -0.0285,-0.02347 -0.0388,-0.0381 -0.0767,-0.04522 -0.0127,-0.0023 -0.0496,0.0083 -0.0388,7.5e-4 0.16454,-0.109913 0.33654,-0.20823 0.5048,-0.312338 -0.008,0.0067 -0.0192,0.01102 -0.0236,0.0204 -0.007,0.0147 -0.006,0.0321 -0.009,0.04815 -0.013,0.132825 -0.005,0.269775 0.0237,0.400095 0.005,0.0092 0.009,0.01987 0.0162,0.0276 0.0439,0.04605 0.17281,0.01515 0.22821,0.01875 0.0582,-0.0053 0.11634,-0.0094 0.17314,-0.02423 0.0163,-0.0045 0.0626,-0.02423 0.0482,-0.01545 -0.4335,0.265628 -0.67967,0.367613 -0.45877,0.27435 0.019,-0.0105 0.0367,-0.0246 0.0575,-0.0309 0.005,-0.0015 0.0149,0.0053 0.017,3.08e-4 0.008,-0.01973 -0.0898,-0.036 -0.0963,-0.03135 -0.038,0.003 -0.0596,0.0023 -0.0964,0.01358 -0.0134,0.0037 -0.0504,0.02362 -0.0385,0.01627 0.16909,-0.10446 0.34444,-0.198855 0.51059,-0.307905 0.008,-0.0053 -0.0181,-0.0085 -0.0278,-0.0089 -0.003,-1.28e-4 -0.002,0.0053 -0.004,0.0075 0.0851,0.07425 0.22105,0.04747 0.32411,0.07132 0.0202,0.0015 0.0404,0.0045 0.0606,0.0045 0.0159,-7.5e-5 0.0608,-0.01342 0.0474,-0.0053 -0.16541,0.105127 -0.34248,0.191205 -0.50734,0.297202 -0.0203,0.01297 0.0473,0.0068 0.0491,0.0023 0.002,-0.006 -0.002,-0.01342 -0.004,-0.02017 -0.0726,-0.08882 -0.19082,-0.08288 -0.29263,-0.05197 -0.22219,0.101145 -0.0706,0.03427 0.44353,-0.270495 0.0139,-0.0082 -0.0296,0.0144 -0.0415,0.02542 -0.0436,0.04028 -0.0501,0.09893 -0.0468,0.154313 0.019,0.136342 0.0548,0.25842 0.17505,0.33996 0.13577,0.07275 0.28363,0.104145 0.4378,0.10554 0.0209,-0.003 0.0422,-0.0038 0.0628,-0.0089 0.0172,-0.0045 0.0647,-0.02752 0.0497,-0.01823 -0.16316,0.10056 -0.3308,0.193695 -0.49493,0.29265 -0.0134,0.0081 0.0298,-0.01065 0.0425,-0.01987 0.0319,-0.02332 0.0353,-0.04508 0.0505,-0.08013 0.0121,-0.18258 -0.0273,-0.36528 -0.0831,-0.538305 -0.10351,-0.257265 -0.21824,-0.4401 -0.46961,-0.574748 -0.0703,-0.03135 -0.14352,-0.06765 -0.22258,-0.0696 -0.0163,-3.97e-4 -0.0625,0.01455 -0.0487,0.006 0.40879,-0.264187 0.69129,-0.373567 0.46551,-0.284317 -0.0256,0.02887 -0.0399,0.03802 -0.0489,0.07845 -0.0205,0.09212 0.0135,0.191602 0.0159,0.28353 0.0349,0.23376 0.0913,0.463275 0.12812,0.69663 0.0325,0.165397 0.0821,0.342142 0.2427,0.425737 0.0179,0.0037 0.0355,0.01013 0.0537,0.0102 0.0158,1.05e-4 0.0308,-0.0067 0.0463,-0.0096 -0.16121,0.09685 -0.32241,0.193695 -0.48363,0.290535 -0.0194,0.01125 0.0379,-0.02438 0.0538,-0.03997 0.0469,-0.04583 0.0725,-0.09516 0.10707,-0.15054 0.12515,-0.25833 0.16845,-0.458872 0.13923,-0.74862 -0.005,-0.0501 -0.008,-0.100605 -0.0159,-0.150315 -0.037,-0.223942 -0.14498,-0.429292 -0.23713,-0.633967 -0.0215,-0.0297 -0.0402,-0.06165 -0.0644,-0.08917 -0.10101,-0.115155 -0.25636,-0.16674 -0.40374,-0.187005 -0.072,-0.0053 -0.13744,-0.0068 -0.2082,0.01087 -0.02,0.0052 -0.0765,0.0297 -0.059,0.01875 0.39316,-0.24633 0.6664,-0.367418 0.42768,-0.259508 -0.14408,0.112725 -0.134,0.21 -0.11416,0.382035 0.0327,0.221385 0.0771,0.447368 0.21028,0.632805 0.0323,0.03173 0.0472,0.0552 0.0891,0.06997 0.0546,0.01928 0.0868,-0.006 0.0807,-0.0023 -0.19887,0.123308 -0.69686,0.40887 -0.46621,0.27651 0.0914,-0.08818 0.10715,-0.21066 0.10303,-0.333435 -5e-5,-0.126472 4.9e-4,-0.252937 7.5e-4,-0.379402 -1.7e-4,-0.131183 7.5e-4,-0.26253 -0.008,-0.393488 -0.0113,-0.126307 -0.0277,-0.25413 -0.0846,-0.3693 -0.0583,-0.109912 -0.12175,-0.09387 -0.23758,-0.109672 -0.0144,0.0015 -0.0292,6.9e-4 -0.0432,0.0045 -0.0125,0.003 -0.0462,0.0231 -0.0351,0.01642 0.16611,-0.100433 0.3337,-0.198413 0.50046,-0.29778 0.0116,-0.0067 -0.0251,0.0111 -0.035,0.0204 -0.0177,0.0168 -0.0346,0.0582 -0.0443,0.07858 -0.0134,0.136463 0.005,0.274223 0.0192,0.409965 0.0302,0.21276 0.0687,0.424995 0.11241,0.63507 0.017,0.106958 0.0299,0.215018 0.0574,0.31998 0.0291,0.111278 0.0218,0.07057 0.0611,0.174315 0.008,0.02107 0.0146,0.04268 0.0219,0.06405 0,0 -0.55203,0.30669 -0.55203,0.30669 z"
     inkscape:connector-curvature="0" />
</svg>
