<?xml version="1.0" standalone="no"?>
<!DOCTYPE svg PUBLIC "-//W3C//DTD SVG 20010904//EN"
 "http://www.w3.org/TR/2001/REC-SVG-20010904/DTD/svg10.dtd">
<svg version="1.0" xmlns="http://www.w3.org/2000/svg"
 width="298.000000pt" height="285.000000pt" viewBox="0 0 298.000000 285.000000"
 preserveAspectRatio="xMidYMid meet">
<metadata>
Created by potrace 1.16, written by Peter Selinger 2001-2019
</metadata>
<g transform="translate(0.000000,285.000000) scale(0.100000,-0.100000)"
fill="#000000" stroke="none">
<path d="M0 1425 l0 -1425 1490 0 1490 0 0 1425 0 1425 -1490 0 -1490 0 0
-1425z m1700 1364 c425 -52 645 -268 700 -689 7 -47 16 -88 22 -91 17 -11 12
-245 -7 -334 -32 -151 -120 -324 -228 -449 l-34 -38 -7 53 c-4 30 -12 72 -17
93 -22 81 -107 128 -191 105 -51 -13 -113 -74 -123 -118 -10 -44 18 -119 77
-207 28 -42 47 -79 42 -83 -15 -13 -130 -61 -161 -67 l-30 -6 4 54 c8 100 43
292 70 380 19 63 23 92 16 99 -26 26 -50 -21 -87 -173 -43 -180 -51 -267 -51
-540 1 -221 3 -259 17 -275 40 -45 27 -178 -26 -261 -74 -117 -224 -170 -361
-127 -73 23 -154 95 -183 162 -22 52 -40 137 -24 115 6 -9 11 2 15 37 8 63 41
142 74 173 24 21 25 21 20 3 -3 -11 -8 -59 -12 -106 -5 -72 -4 -87 8 -92 27
-10 35 16 48 146 15 161 7 497 -16 627 -30 176 -75 320 -101 320 -25 0 -26
-25 -4 -90 35 -103 80 -358 80 -450 0 -14 -20 -8 -115 31 -106 44 -103 40 -62
96 47 64 97 170 97 206 0 61 -59 128 -130 147 -47 13 -104 1 -143 -31 -28 -21
-57 -99 -57 -153 0 -56 -13 -61 -51 -19 -20 22 -49 59 -65 83 -47 69 -49 74
-32 68 10 -4 5 15 -19 60 -62 124 -103 296 -103 437 0 189 40 384 107 524 98
206 293 332 577 376 101 16 354 18 466 4z m-1113 -409 c-9 -24 -21 -33 -52
-41 -236 -59 -358 -123 -405 -212 -37 -70 -26 -75 115 -53 108 17 171 17 243
-1 22 -5 22 -7 16 -127 -10 -196 25 -362 113 -535 l43 -84 -75 5 c-205 13
-407 208 -497 478 -28 83 -32 109 -32 205 -1 95 2 116 21 151 28 53 88 106
160 143 77 38 275 98 335 100 25 1 26 0 15 -29z m1896 15 c232 -54 365 -126
420 -229 19 -35 22 -56 21 -151 0 -96 -4 -122 -32 -205 -85 -257 -286 -457
-476 -477 l-58 -6 21 41 c11 22 33 80 48 129 25 83 27 102 31 330 l4 241 31 6
c103 17 136 17 242 1 62 -10 120 -15 129 -12 15 6 15 10 1 44 -38 91 -148 159
-345 214 -124 34 -135 39 -143 69 -6 25 16 26 106 5z m-2026 -1086 c39 -15 88
-24 150 -27 l91 -4 54 -62 c53 -59 55 -64 66 -145 20 -140 57 -165 135 -92
l41 39 51 -25 c27 -14 79 -36 115 -49 l65 -22 3 -110 3 -109 -83 33 c-163 65
-293 81 -390 48 -56 -19 -120 -72 -149 -124 -13 -22 -26 -40 -29 -40 -14 0
-89 105 -79 110 5 4 -13 44 -41 89 -87 146 -144 325 -157 494 l-6 88 51 -35
c29 -19 78 -44 109 -57z m579 75 c36 -17 64 -58 64 -92 0 -70 -195 -329 -219
-292 -30 44 -25 274 6 338 29 60 84 77 149 46z m998 5 c49 -23 61 -69 61 -231
0 -184 -5 -192 -76 -123 -82 81 -159 205 -159 258 0 29 43 85 74 97 30 12 71
12 100 -1z m630 -66 c-4 -50 -3 -64 5 -53 9 13 11 12 11 -3 0 -37 -32 -172
-62 -255 -38 -110 -67 -167 -134 -269 l-54 -81 -53 52 c-63 64 -121 86 -223
86 -89 0 -218 -36 -328 -91 -43 -21 -80 -39 -82 -39 -3 0 -3 57 -2 127 l3 126
30 10 c17 5 67 25 113 44 l82 35 35 -31 c45 -40 80 -49 104 -27 20 18 41 105
41 167 0 21 6 42 13 46 6 4 34 33 61 63 l48 54 76 -2 c92 -4 180 20 262 72 30
19 56 34 58 35 1 1 0 -29 -4 -66z m-1653 -593 c94 -24 169 -57 169 -74 0 -7
-8 -21 -19 -30 -10 -9 -31 -45 -47 -79 -36 -79 -39 -186 -7 -258 14 -31 18
-51 11 -62 -8 -15 -12 -15 -41 3 -38 24 -110 26 -151 5 -26 -14 -30 -13 -53 5
-39 30 -92 41 -138 29 -41 -12 -105 -69 -105 -95 0 -23 -16 -16 -30 14 -21 43
-24 186 -7 279 28 145 88 237 178 269 51 19 157 16 240 -6z m1244 6 c66 -28
113 -162 121 -346 6 -134 1 -149 -44 -126 -57 30 -156 11 -185 -35 -10 -16
-12 -16 -46 2 -42 22 -99 24 -144 5 -30 -12 -35 -11 -56 5 -34 28 -91 40 -131
29 -19 -6 -36 -10 -37 -10 -1 0 5 19 13 43 13 34 15 68 10 174 l-6 131 57 35
c54 33 198 89 254 100 55 10 161 6 194 -7z m-1413 -534 c16 -16 17 -25 9 -60
-5 -24 -6 -52 -3 -64 5 -20 3 -21 -47 -15 -74 9 -125 36 -129 68 -3 28 29 76
62 90 30 13 87 3 108 -19z m1031 -1 c17 -17 18 -23 7 -56 -7 -20 -10 -48 -7
-62 5 -25 4 -25 -45 -20 -105 13 -148 56 -116 115 27 52 119 65 161 23z m449
18 c29 -15 51 -74 38 -99 -20 -38 -190 -68 -182 -32 1 8 -2 30 -7 49 -9 32 -7
38 19 64 22 23 38 29 70 29 23 0 50 -5 62 -11z m-1288 -23 c18 -8 41 -24 50
-37 20 -29 21 -83 1 -99 -19 -15 -144 -16 -173 -1 -49 26 -14 121 51 140 18 5
33 10 35 10 1 1 18 -5 36 -13z m1023 4 c8 0 28 -13 44 -29 36 -36 41 -94 10
-111 -27 -14 -164 -13 -179 2 -17 17 -15 70 4 97 19 26 72 53 92 46 8 -3 20
-5 29 -5z"/>
<path d="M1109 2315 c-64 -21 -141 -92 -169 -156 -60 -140 17 -315 158 -363
211 -72 419 118 358 327 -44 150 -204 238 -347 192z m155 -47 c25 -8 59 -31
86 -58 74 -73 90 -166 44 -258 -70 -140 -250 -169 -360 -58 -169 168 0 442
230 374z"/>
<path d="M1202 2070 c-46 -43 -34 -113 23 -136 60 -24 126 31 110 93 -8 34
-45 63 -80 63 -18 0 -41 -9 -53 -20z"/>
<path d="M1705 2317 c-138 -46 -214 -154 -202 -287 21 -234 306 -334 470 -165
128 132 83 362 -85 435 -63 27 -132 33 -183 17z m139 -48 c51 -14 121 -80 142
-135 36 -95 -1 -214 -84 -268 -62 -41 -120 -51 -186 -32 -103 30 -166 113
-166 217 1 157 140 261 294 218z"/>
<path d="M1666 2069 c-33 -26 -36 -84 -6 -117 49 -52 140 -16 140 55 0 70 -78
106 -134 62z"/>
<path d="M1429 1693 c-46 -7 -134 -66 -137 -91 -4 -30 17 -29 64 3 79 54 150
55 242 3 41 -22 57 -26 67 -18 23 19 6 38 -59 70 -60 30 -127 42 -177 33z"/>
</g>
</svg>
