<svg width="82" height="96" viewBox="0 0 82 96" fill="none" xmlns="http://www.w3.org/2000/svg">
<path d="M17.5522 23H14.6309V12.813H3.52051V23H0.614258V0.960938H3.52051V10.4365H14.6309V0.960938H17.5522V23ZM37.4873 3.35254H30.4033V23H27.5122V3.35254H20.4434V0.960938H37.4873V3.35254ZM44.5107 0.960938L51.7158 18.9434L58.9209 0.960938H62.6899V23H59.7837V14.4175L60.0562 5.15381L52.8208 23H50.5957L43.3755 5.19922L43.6631 14.4175V23H40.7568V0.960938H44.5107ZM70.7427 20.6235H81.187V23H67.8213V0.960938H70.7427V20.6235Z" fill="#DB4C4C"/>
<path d="M30.2671 52.0068C29.9946 54.3379 29.1318 56.1392 27.6787 57.4106C26.2357 58.672 24.3133 59.3027 21.9116 59.3027C19.3081 59.3027 17.2192 58.3693 15.645 56.5024C14.0809 54.6356 13.2988 52.138 13.2988 49.0098V46.8906C13.2988 44.8421 13.6621 43.0409 14.3887 41.4868C15.1253 39.9328 16.1647 38.742 17.5068 37.9146C18.849 37.077 20.403 36.6582 22.1689 36.6582C24.5101 36.6582 26.387 37.3141 27.7998 38.626C29.2126 39.9277 30.035 41.734 30.2671 44.0449H27.3457C27.0934 42.2891 26.5435 41.0176 25.6958 40.2305C24.8582 39.4434 23.6826 39.0498 22.1689 39.0498C20.3122 39.0498 18.854 39.736 17.7944 41.1084C16.745 42.4808 16.2202 44.4334 16.2202 46.9663V49.1006C16.2202 51.4922 16.7197 53.3944 17.7188 54.8071C18.7178 56.2199 20.1154 56.9263 21.9116 56.9263C23.5262 56.9263 24.7624 56.563 25.6201 55.8364C26.488 55.0998 27.0632 53.8232 27.3457 52.0068H30.2671ZM40.7417 49.1763C38.2492 48.4598 36.4328 47.5819 35.2925 46.5425C34.1623 45.493 33.5972 44.2013 33.5972 42.6675C33.5972 40.9318 34.2884 39.4989 35.6709 38.3687C37.0635 37.2284 38.8698 36.6582 41.0898 36.6582C42.6035 36.6582 43.9507 36.9508 45.1313 37.5361C46.3221 38.1214 47.2404 38.9287 47.8862 39.958C48.5422 40.9873 48.8701 42.1125 48.8701 43.3335H45.9487C45.9487 42.0015 45.5249 40.957 44.6772 40.2002C43.8296 39.4333 42.6338 39.0498 41.0898 39.0498C39.6569 39.0498 38.5368 39.3677 37.7295 40.0034C36.9323 40.6291 36.5337 41.502 36.5337 42.6221C36.5337 43.5202 36.9121 44.2821 37.6689 44.9077C38.4359 45.5233 39.7326 46.0884 41.5591 46.603C43.3957 47.1177 44.8286 47.6878 45.8579 48.3135C46.8973 48.929 47.6642 49.6506 48.1587 50.478C48.6632 51.3055 48.9155 52.2793 48.9155 53.3994C48.9155 55.1855 48.2192 56.6185 46.8267 57.6982C45.4341 58.7679 43.5723 59.3027 41.2412 59.3027C39.7275 59.3027 38.3148 59.0151 37.0029 58.4399C35.6911 57.8547 34.6769 57.0575 33.9604 56.0483C33.2541 55.0392 32.9009 53.8939 32.9009 52.6123H35.8223C35.8223 53.9443 36.3117 54.9989 37.2905 55.7759C38.2795 56.5428 39.5964 56.9263 41.2412 56.9263C42.7751 56.9263 43.9507 56.6134 44.7681 55.9878C45.5854 55.3621 45.9941 54.5094 45.9941 53.4297C45.9941 52.3499 45.6157 51.5174 44.8589 50.9321C44.1021 50.3368 42.7297 49.7515 40.7417 49.1763ZM59.1479 49.1763C56.6554 48.4598 54.839 47.5819 53.6987 46.5425C52.5685 45.493 52.0034 44.2013 52.0034 42.6675C52.0034 40.9318 52.6947 39.4989 54.0771 38.3687C55.4697 37.2284 57.276 36.6582 59.4961 36.6582C61.0098 36.6582 62.3569 36.9508 63.5376 37.5361C64.7284 38.1214 65.6466 38.9287 66.2925 39.958C66.9484 40.9873 67.2764 42.1125 67.2764 43.3335H64.355C64.355 42.0015 63.9312 40.957 63.0835 40.2002C62.2358 39.4333 61.04 39.0498 59.4961 39.0498C58.0632 39.0498 56.943 39.3677 56.1357 40.0034C55.3385 40.6291 54.9399 41.502 54.9399 42.6221C54.9399 43.5202 55.3184 44.2821 56.0752 44.9077C56.8421 45.5233 58.1388 46.0884 59.9653 46.603C61.8019 47.1177 63.2349 47.6878 64.2642 48.3135C65.3035 48.929 66.0705 49.6506 66.5649 50.478C67.0695 51.3055 67.3218 52.2793 67.3218 53.3994C67.3218 55.1855 66.6255 56.6185 65.2329 57.6982C63.8403 58.7679 61.9785 59.3027 59.6475 59.3027C58.1338 59.3027 56.721 59.0151 55.4092 58.4399C54.0973 57.8547 53.0832 57.0575 52.3667 56.0483C51.6603 55.0392 51.3071 53.8939 51.3071 52.6123H54.2285C54.2285 53.9443 54.7179 54.9989 55.6968 55.7759C56.6857 56.5428 58.0026 56.9263 59.6475 56.9263C61.1813 56.9263 62.3569 56.6134 63.1743 55.9878C63.9917 55.3621 64.4004 54.5094 64.4004 53.4297C64.4004 52.3499 64.022 51.5174 63.2651 50.9321C62.5083 50.3368 61.1359 49.7515 59.1479 49.1763Z" fill="#71DB4C"/>
<path d="M34.0361 72.9609H36.9575V88.5669C36.9575 90.6759 36.3218 92.3258 35.0503 93.5166C33.7889 94.7074 32.1037 95.3027 29.9946 95.3027C27.8049 95.3027 26.0994 94.7427 24.8784 93.6226C23.6574 92.5024 23.0469 90.9333 23.0469 88.915H25.9531C25.9531 90.1764 26.2962 91.1603 26.9824 91.8667C27.6787 92.5731 28.6828 92.9263 29.9946 92.9263C31.1955 92.9263 32.1642 92.5479 32.9009 91.791C33.6476 91.0342 34.026 89.9746 34.0361 88.6123V72.9609ZM48.4009 85.1763C45.9084 84.4598 44.092 83.5819 42.9517 82.5425C41.8215 81.493 41.2563 80.2013 41.2563 78.6675C41.2563 76.9318 41.9476 75.4989 43.3301 74.3687C44.7227 73.2284 46.529 72.6582 48.749 72.6582C50.2627 72.6582 51.6099 72.9508 52.7905 73.5361C53.9813 74.1214 54.8996 74.9287 55.5454 75.958C56.2013 76.9873 56.5293 78.1125 56.5293 79.3335H53.6079C53.6079 78.0015 53.1841 76.957 52.3364 76.2002C51.4888 75.4333 50.293 75.0498 48.749 75.0498C47.3161 75.0498 46.196 75.3677 45.3887 76.0034C44.5915 76.6291 44.1929 77.502 44.1929 78.6221C44.1929 79.5202 44.5713 80.2821 45.3281 80.9077C46.0951 81.5233 47.3918 82.0884 49.2183 82.603C51.0549 83.1177 52.4878 83.6878 53.5171 84.3135C54.5565 84.929 55.3234 85.6506 55.8179 86.478C56.3224 87.3055 56.5747 88.2793 56.5747 89.3994C56.5747 91.1855 55.8784 92.6185 54.4858 93.6982C53.0933 94.7679 51.2314 95.3027 48.9004 95.3027C47.3867 95.3027 45.974 95.0151 44.6621 94.4399C43.3503 93.8547 42.3361 93.0575 41.6196 92.0483C40.9132 91.0392 40.5601 89.8939 40.5601 88.6123H43.4814C43.4814 89.9443 43.9709 90.9989 44.9497 91.7759C45.9386 92.5428 47.2555 92.9263 48.9004 92.9263C50.4342 92.9263 51.6099 92.6134 52.4272 91.9878C53.2446 91.3621 53.6533 90.5094 53.6533 89.4297C53.6533 88.3499 53.2749 87.5174 52.5181 86.9321C51.7612 86.3368 50.3888 85.7515 48.4009 85.1763Z" fill="#7A4CDB"/>
</svg>
