<svg width="515" height="241" viewBox="0 0 515 241" fill="none" xmlns="http://www.w3.org/2000/svg">
<path d="M494.734 155.863L225.134 146.549L16.6504 226.166L363.825 240.328L494.734 155.863Z" fill="#BCBEC0"/>
<path d="M490.077 142.655L220.541 133.341L12.0576 212.894L359.233 227.057L490.077 142.655Z" fill="#E6E7E8"/>
<path d="M490.97 123.584L221.37 114.333L12.8867 193.886L360.126 208.049L490.97 123.584Z" fill="#BCBEC0"/>
<path d="M501.751 106.87L232.152 97.5562L23.668 177.173L370.843 191.336L501.751 106.87Z" fill="#E6E7E8"/>
<path d="M490.843 97.6183L221.243 88.3042L12.7593 167.857L359.998 182.02L490.843 97.6183Z" fill="#BCBEC0"/>
<path d="M501.56 79.8195L232.024 70.5054L23.54 150.122L370.715 164.285L501.56 79.8195Z" fill="#E6E7E8"/>
<path d="M502.453 60.8053L232.853 51.4912L24.4336 131.108L371.609 145.271L502.453 60.8053Z" fill="#BCBEC0"/>
<path d="M513.235 44.0964L243.635 34.7822L35.1514 114.335L382.326 128.498L513.235 44.0964Z" fill="#E6E7E8"/>
<path d="M514.128 30.1848L244.528 20.8706L36.0444 100.487L383.283 114.65L514.128 30.1848Z" fill="#BCBEC0"/>
<path d="M383.666 89.8332L123.317 79.626L104.051 87.2814L370.333 97.8715L383.666 89.8332Z" fill="#A7A9AC"/>
<path d="M408.227 75.0316L158.723 65.5898L141.116 72.5436L396.042 82.3681L408.227 75.0316Z" fill="#A7A9AC"/>
<path d="M430.747 61.5098L191.195 52.7061L175.055 59.0856L419.583 68.2721L430.747 61.5098Z" fill="#A7A9AC"/>
<path d="M451.417 49.1313L221.116 40.8379L206.188 46.7071L441.082 55.3195L451.417 49.1313Z" fill="#A7A9AC"/>
<path d="M470.428 37.6497L248.675 29.8667L234.896 35.3531L460.923 43.3913L470.428 37.6497Z" fill="#A7A9AC"/>
<path d="M0 90.8538L216.969 99.6575L150.621 33.374L0 90.8538Z" fill="#E2E4E8"/>
<path d="M251.163 12.7715C230.493 31.9101 198.723 35.0999 171.227 25.5306L150.621 33.4412L216.968 99.7885L347.239 105.084L478.083 20.5545L251.163 12.7715Z" fill="#D2D3D7"/>
<path d="M251.163 12.7699L208.484 11.2388L171.227 25.4652C198.723 35.0983 230.493 32.1637 251.163 12.7699Z" fill="#E2E4E8"/>
<path d="M334.288 88.2378L347.622 80.1996L191.323 74.0752L200.19 82.879L334.288 88.2378Z" fill="#BDBEC3"/>
<path d="M191.323 74.0771L87.2086 69.9941L67.9424 77.6496L200.19 82.8808L191.323 74.0771Z" fill="#CDCFD4"/>
<path d="M372.183 65.4035L175.182 57.9395L183.22 65.9777L359.998 72.74L372.183 65.4035Z" fill="#BDBEC3"/>
<path d="M122.678 55.958L105.071 62.9117L183.22 65.9739L175.182 57.9357L122.678 55.958Z" fill="#CDCFD4"/>
<path d="M155.151 43.0742L138.947 49.4538L167.782 50.5383L160.51 43.2656L155.151 43.0742Z" fill="#CDCFD4"/>
<path d="M394.703 51.8736L160.51 43.2612L167.782 50.5339L383.475 58.6359L394.703 51.8736Z" fill="#BDBEC3"/>
<path d="M185.007 31.2061L170.143 37.0752L405.038 45.6876L415.309 39.4995L185.007 31.2061Z" fill="#BDBEC3"/>
<path d="M212.631 20.2354L198.851 25.7218L424.879 33.76L434.384 28.0184L212.631 20.2354Z" fill="#BDBEC3"/>
<path d="M401.72 10.666L402.103 17.9387C402.137 18.6143 402.037 19.2899 401.808 19.9263C401.578 20.5627 401.225 21.1473 400.768 21.6459C400.311 22.1445 399.759 22.5473 399.145 22.8309C398.531 23.1144 397.867 23.273 397.191 23.2975L389.854 23.6803L389.152 11.304L401.72 10.666Z" fill="#9BA6B1"/>
<path d="M395.915 0.0107109C397.276 -0.0770012 398.616 0.376681 399.643 1.27292C400.671 2.16917 401.303 3.43531 401.401 4.79537V10.6645L388.642 11.3025L388.068 0.393468L395.915 0.0107109Z" fill="#BCBEC0"/>
<path d="M160.254 36.1852L159.233 36.249L159.169 35.8662L160.254 36.1852Z" fill="#EA5F21"/>
<path d="M158.978 12.896L157.958 13.3426V12.9598L158.978 12.896Z" fill="#F9773D"/>
<path d="M360.445 12.8952L378.69 11.8745L379.328 24.2508L366.314 24.9526L160.254 36.1806L159.553 23.8043L360.445 12.8952Z" fill="#EA5F21"/>
<path d="M365.038 1.66757L378.052 0.96582L378.69 11.8748L360.445 12.8956L159.553 23.8046L158.979 12.8956L365.038 1.66757Z" fill="#F9773D"/>
<path d="M386.346 0.520172L388.578 0.392578L389.153 11.3016L386.984 11.4292L378.69 11.8758L378.052 0.966739L386.346 0.520172Z" fill="#20B7EA"/>
<path d="M386.983 11.4289L389.152 11.3013L389.854 23.6776L387.621 23.8052L379.328 24.2518L378.69 11.8754L386.983 11.4289Z" fill="#07A6DB"/>
<path d="M147.049 24.5088L147.496 32.6746L124.721 26.4226L126.89 25.5933L147.049 24.5088Z" fill="#42454C"/>
<path d="M147.049 24.5101L126.889 25.5946L146.666 17.8115L147.049 24.5101Z" fill="#58595B"/>
<path d="M158.532 23.869L159.553 23.8052L160.255 36.1815L159.17 35.8625L147.495 32.6727L147.049 24.5069L158.532 23.869Z" fill="#E8CB37"/>
<path d="M157.958 13.3426L158.978 12.896L159.553 23.805L158.532 23.8688L147.049 24.5068L146.666 17.8083L157.958 13.3426Z" fill="#F7DC54"/>
<path d="M197.702 60.7428L221.434 62.7205L220.286 46.644L197.064 51.9391L197.702 60.7428Z" fill="#20B7EA"/>
<path d="M424.176 25.5277L448.674 23.8052L438.53 54.2356L420.795 55.4477L424.176 25.5277Z" fill="#20B7EA"/>
<path d="M349.727 61.1892L347.558 30.1846L338.436 31.1415L340.541 61.5719L349.727 61.1892Z" fill="#414042"/>
<path d="M327.271 32.3525C295.373 35.9251 264.751 40.327 219.329 45.941C219.712 51.8101 220.158 57.6793 220.541 63.5485C266.283 62.7192 297.479 62.783 329.376 61.8898L327.271 32.3525Z" fill="#58595B"/>
<path d="M420.094 28.59C420.164 26.7073 419.705 24.8427 418.769 23.2077C417.833 21.5726 416.458 20.2326 414.799 19.3396C408.419 14.9378 396.234 13.7256 379.328 15.7033C345.389 19.0845 302.774 21.0621 302.327 21.1259C305.033 25.0044 309.079 27.7437 313.685 28.8157C318.291 29.8877 323.131 29.2164 327.271 26.9313C339.265 26.102 390.684 24.3795 391.067 24.3157C393.157 24.2904 395.221 24.7952 397.063 25.783C398.212 26.5485 399.551 28.0158 398.02 31.716C396.489 35.4161 397.638 36.1816 398.595 36.8196C402.422 39.3076 415.5 31.8436 419.392 29.4831L419.902 29.1642L420.094 28.59Z" fill="#58595B"/>
<path d="M340.54 61.5745L338.435 31.144L327.271 32.3562L329.376 61.8935L340.54 61.5745Z" fill="#20B7EA"/>
<path d="M428.323 55.7673C427.557 45.3686 426.855 34.97 426.09 24.5713C394.639 26.1662 370.141 27.9525 347.558 30.1853L349.727 61.1899C372.374 60.233 397.063 58.5105 428.323 55.7673Z" fill="#58595B"/>
<path d="M197.064 52.1328C195.233 52.4393 193.438 52.9309 191.706 53.6001C189.158 54.5378 186.753 55.8262 184.561 57.4279C186.724 58.4854 188.99 59.3191 191.323 59.9159C193.418 60.4295 195.552 60.7709 197.702 60.9366C197.511 57.8106 197.256 54.876 197.064 52.1328Z" fill="#414042"/>
</svg>
