<svg width="180" height="200" viewBox="0 0 180 200" fill="none" xmlns="http://www.w3.org/2000/svg">
<g id="Component 1">
<g id="Property 1=HTML CSS JS">
<g id="HTML">
<path d="M56.6133 63H49.8457V48.9234H36.6489V63H29.8813V30.1547H36.6489V43.4643H49.8457V30.1547H56.6133V63ZM86.5937 35.6364H76.5325V63H69.7649V35.6364H59.8392V30.1547H86.5937V35.6364ZM99.3167 30.1547L107.754 53.9766L116.145 30.1547H125.033V63H118.243V54.0217L118.92 38.5239L110.055 63H105.408L96.5646 38.5465L97.2413 54.0217V63H90.4737V30.1547H99.3167ZM137.711 57.5634H152.081V63H130.944V30.1547H137.711V57.5634Z" fill="#DB4C4C"/>
<path d="M56.6133 63V63.7H57.3133V63H56.6133ZM49.8457 63H49.1457V63.7H49.8457V63ZM49.8457 48.9234H50.5457V48.2234H49.8457V48.9234ZM36.6489 48.9234V48.2234H35.9489V48.9234H36.6489ZM36.6489 63V63.7H37.3489V63H36.6489ZM29.8813 63H29.1813V63.7H29.8813V63ZM29.8813 30.1547V29.4547H29.1813V30.1547H29.8813ZM36.6489 30.1547H37.3489V29.4547H36.6489V30.1547ZM36.6489 43.4643H35.9489V44.1643H36.6489V43.4643ZM49.8457 43.4643V44.1643H50.5457V43.4643H49.8457ZM49.8457 30.1547V29.4547H49.1457V30.1547H49.8457ZM56.6133 30.1547H57.3133V29.4547H56.6133V30.1547ZM56.6133 62.3H49.8457V63.7H56.6133V62.3ZM50.5457 63V48.9234H49.1457V63H50.5457ZM49.8457 48.2234H36.6489V49.6234H49.8457V48.2234ZM35.9489 48.9234V63H37.3489V48.9234H35.9489ZM36.6489 62.3H29.8813V63.7H36.6489V62.3ZM30.5813 63V30.1547H29.1813V63H30.5813ZM29.8813 30.8547H36.6489V29.4547H29.8813V30.8547ZM35.9489 30.1547V43.4643H37.3489V30.1547H35.9489ZM36.6489 44.1643H49.8457V42.7643H36.6489V44.1643ZM50.5457 43.4643V30.1547H49.1457V43.4643H50.5457ZM49.8457 30.8547H56.6133V29.4547H49.8457V30.8547ZM55.9133 30.1547V63H57.3133V30.1547H55.9133ZM86.5937 35.6364V36.3364H87.2937V35.6364H86.5937ZM76.5325 35.6364V34.9364H75.8325V35.6364H76.5325ZM76.5325 63V63.7H77.2325V63H76.5325ZM69.7649 63H69.0649V63.7H69.7649V63ZM69.7649 35.6364H70.4649V34.9364H69.7649V35.6364ZM59.8392 35.6364H59.1392V36.3364H59.8392V35.6364ZM59.8392 30.1547V29.4547H59.1392V30.1547H59.8392ZM86.5937 30.1547H87.2937V29.4547H86.5937V30.1547ZM86.5937 34.9364H76.5325V36.3364H86.5937V34.9364ZM75.8325 35.6364V63H77.2325V35.6364H75.8325ZM76.5325 62.3H69.7649V63.7H76.5325V62.3ZM70.4649 63V35.6364H69.0649V63H70.4649ZM69.7649 34.9364H59.8392V36.3364H69.7649V34.9364ZM60.5392 35.6364V30.1547H59.1392V35.6364H60.5392ZM59.8392 30.8547H86.5937V29.4547H59.8392V30.8547ZM85.8937 30.1547V35.6364H87.2937V30.1547H85.8937ZM99.3167 30.1547L99.9765 29.921L99.8114 29.4547H99.3167V30.1547ZM107.754 53.9766L107.094 54.2103L107.755 56.0783L108.414 54.2091L107.754 53.9766ZM116.145 30.1547V29.4547H115.65L115.485 29.9221L116.145 30.1547ZM125.033 30.1547H125.733V29.4547H125.033V30.1547ZM125.033 63V63.7H125.733V63H125.033ZM118.243 63H117.543V63.7H118.243V63ZM118.243 54.0217L117.544 53.9911L117.543 54.0064V54.0217H118.243ZM118.92 38.5239L119.619 38.5545L118.262 38.2855L118.92 38.5239ZM110.055 63V63.7H110.546L110.713 63.2384L110.055 63ZM105.408 63L104.749 63.238L104.916 63.7H105.408V63ZM96.5646 38.5465L97.2228 38.3084L95.8652 38.5771L96.5646 38.5465ZM97.2413 54.0217H97.9413V54.0064L97.9406 53.9911L97.2413 54.0217ZM97.2413 63V63.7H97.9413V63H97.2413ZM90.4737 63H89.7737V63.7H90.4737V63ZM90.4737 30.1547V29.4547H89.7737V30.1547H90.4737ZM98.6569 30.3884L107.094 54.2103L108.413 53.7429L99.9765 29.921L98.6569 30.3884ZM108.414 54.2091L116.806 30.3873L115.485 29.9221L107.093 53.744L108.414 54.2091ZM116.145 30.8547H125.033V29.4547H116.145V30.8547ZM124.333 30.1547V63H125.733V30.1547H124.333ZM125.033 62.3H118.243V63.7H125.033V62.3ZM118.943 63V54.0217H117.543V63H118.943ZM118.943 54.0522L119.619 38.5545L118.221 38.4934L117.544 53.9911L118.943 54.0522ZM118.262 38.2855L109.396 62.7616L110.713 63.2384L119.578 38.7623L118.262 38.2855ZM110.055 62.3H105.408V63.7H110.055V62.3ZM106.066 62.762L97.2228 38.3084L95.9063 38.7845L104.749 63.238L106.066 62.762ZM95.8652 38.5771L96.542 54.0523L97.9406 53.9911L97.2639 38.5159L95.8652 38.5771ZM96.5413 54.0217V63H97.9413V54.0217H96.5413ZM97.2413 62.3H90.4737V63.7H97.2413V62.3ZM91.1737 63V30.1547H89.7737V63H91.1737ZM90.4737 30.8547H99.3167V29.4547H90.4737V30.8547ZM137.711 57.5634H137.011V58.2634H137.711V57.5634ZM152.081 57.5634H152.781V56.8634H152.081V57.5634ZM152.081 63V63.7H152.781V63H152.081ZM130.944 63H130.244V63.7H130.944V63ZM130.944 30.1547V29.4547H130.244V30.1547H130.944ZM137.711 30.1547H138.411V29.4547H137.711V30.1547ZM137.711 58.2634H152.081V56.8634H137.711V58.2634ZM151.381 57.5634V63H152.781V57.5634H151.381ZM152.081 62.3H130.944V63.7H152.081V62.3ZM131.644 63V30.1547H130.244V63H131.644ZM130.944 30.8547H137.711V29.4547H130.944V30.8547ZM137.011 30.1547V57.5634H138.411V30.1547H137.011Z" fill="black"/>
</g>
</g>
<g id="Property 1=JS">
<g id="JS">
<path d="M73.3859 118.225H83.2297V151.3C83.2297 154.341 82.5516 157.031 81.1953 159.372C79.8609 161.691 77.9687 163.484 75.5187 164.753C73.0687 166.022 70.3016 166.656 67.2172 166.656C62.1641 166.656 58.2266 165.377 55.4047 162.817C52.5828 160.236 51.1719 156.594 51.1719 151.891H61.0812C61.0812 154.231 61.5734 155.959 62.5578 157.075C63.5422 158.191 65.0953 158.748 67.2172 158.748C69.0984 158.748 70.5969 158.103 71.7125 156.813C72.8281 155.522 73.3859 153.684 73.3859 151.3V118.225ZM116.436 153.466C116.436 151.606 115.78 150.184 114.467 149.2C113.155 148.194 110.792 147.144 107.38 146.05C103.967 144.934 101.266 143.841 99.275 142.769C93.85 139.838 91.1375 135.889 91.1375 130.923C91.1375 128.342 91.8594 126.045 93.3031 124.033C94.7687 121.998 96.8578 120.413 99.5703 119.275C102.305 118.138 105.367 117.569 108.758 117.569C112.17 117.569 115.211 118.192 117.88 119.439C120.548 120.664 122.616 122.403 124.081 124.656C125.569 126.909 126.312 129.469 126.312 132.334H116.469C116.469 130.147 115.78 128.452 114.402 127.248C113.023 126.023 111.087 125.411 108.594 125.411C106.187 125.411 104.317 125.925 102.983 126.953C101.648 127.959 100.981 129.294 100.981 130.956C100.981 132.509 101.758 133.811 103.311 134.861C104.886 135.911 107.194 136.895 110.234 137.814C115.834 139.498 119.914 141.588 122.473 144.081C125.033 146.575 126.312 149.681 126.312 153.4C126.312 157.534 124.748 160.783 121.62 163.145C118.492 165.486 114.281 166.656 108.987 166.656C105.312 166.656 101.966 165.989 98.9469 164.655C95.9281 163.298 93.6203 161.45 92.0234 159.109C90.4484 156.769 89.6609 154.056 89.6609 150.972H99.5375C99.5375 156.244 102.687 158.88 108.987 158.88C111.328 158.88 113.155 158.409 114.467 157.469C115.78 156.506 116.436 155.172 116.436 153.466Z" fill="#7A4CDB"/>
<path d="M73.3859 118.225V117.525H72.6859V118.225H73.3859ZM83.2297 118.225H83.9297V117.525H83.2297V118.225ZM81.1953 159.372L80.5896 159.021L80.5886 159.023L81.1953 159.372ZM55.4047 162.817L54.9322 163.334L54.9344 163.336L55.4047 162.817ZM51.1719 151.891V151.191H50.4719V151.891H51.1719ZM61.0812 151.891H61.7812V151.191H61.0812V151.891ZM71.7125 156.813L71.1829 156.355L71.7125 156.813ZM73.3859 118.925H83.2297V117.525H73.3859V118.925ZM82.5297 118.225V151.3H83.9297V118.225H82.5297ZM82.5297 151.3C82.5297 154.233 81.8767 156.8 80.5896 159.021L81.801 159.723C83.2264 157.263 83.9297 154.448 83.9297 151.3H82.5297ZM80.5886 159.023C79.3233 161.221 77.5317 162.922 75.1968 164.132L75.8406 165.375C78.4058 164.046 80.3986 162.16 81.802 159.721L80.5886 159.023ZM75.1968 164.132C72.8576 165.343 70.2029 165.956 67.2172 165.956V167.356C70.4002 167.356 73.2799 166.701 75.8406 165.375L75.1968 164.132ZM67.2172 165.956C62.28 165.956 58.5308 164.707 55.875 162.299L54.9344 163.336C57.9223 166.046 62.0481 167.356 67.2172 167.356V165.956ZM55.8771 162.301C53.2326 159.882 51.8719 156.446 51.8719 151.891H50.4719C50.4719 156.742 51.933 160.59 54.9322 163.334L55.8771 162.301ZM51.1719 152.591H61.0812V151.191H51.1719V152.591ZM60.3812 151.891C60.3812 154.309 60.8865 156.239 62.0329 157.538L63.0827 156.612C62.2604 155.68 61.7812 154.154 61.7812 151.891H60.3812ZM62.0329 157.538C63.199 158.86 64.9825 159.448 67.2172 159.448V158.048C65.2081 158.048 63.8853 157.522 63.0827 156.612L62.0329 157.538ZM67.2172 159.448C69.2783 159.448 70.9788 158.732 72.2421 157.27L71.1829 156.355C70.2149 157.475 68.9186 158.048 67.2172 158.048V159.448ZM72.2421 157.27C73.5044 155.81 74.0859 153.786 74.0859 151.3H72.6859C72.6859 153.583 72.1518 155.234 71.1829 156.355L72.2421 157.27ZM74.0859 151.3V118.225H72.6859V151.3H74.0859ZM114.467 149.2L114.041 149.756L114.047 149.76L114.467 149.2ZM107.38 146.05L107.162 146.715L107.166 146.717L107.38 146.05ZM99.275 142.769L98.9422 143.385L98.9431 143.385L99.275 142.769ZM93.3031 124.033L92.7352 123.624L92.7343 123.625L93.3031 124.033ZM99.5703 119.275L99.3014 118.629L99.2996 118.629L99.5703 119.275ZM117.88 119.439L117.583 120.073L117.588 120.075L117.88 119.439ZM124.081 124.656L123.494 125.038L123.497 125.042L124.081 124.656ZM126.312 132.334V133.034H127.012V132.334H126.312ZM116.469 132.334H115.769V133.034H116.469V132.334ZM114.402 127.248L113.936 127.772L113.941 127.776L114.402 127.248ZM102.983 126.953L103.404 127.512L103.41 127.508L102.983 126.953ZM103.311 134.861L102.919 135.441L102.923 135.443L103.311 134.861ZM110.234 137.814L110.032 138.484L110.033 138.484L110.234 137.814ZM121.62 163.145L122.04 163.706L122.042 163.704L121.62 163.145ZM98.9469 164.655L98.66 165.293L98.6639 165.295L98.9469 164.655ZM92.0234 159.109L91.4427 159.5L91.4452 159.504L92.0234 159.109ZM89.6609 150.972V150.272H88.9609V150.972H89.6609ZM99.5375 150.972H100.237V150.272H99.5375V150.972ZM114.467 157.469L114.875 158.038L114.881 158.033L114.467 157.469ZM117.136 153.466C117.136 151.42 116.401 149.776 114.887 148.64L114.047 149.76C115.158 150.593 115.736 151.793 115.736 153.466H117.136ZM114.893 148.644C113.478 147.559 111.014 146.48 107.593 145.383L107.166 146.717C110.57 147.808 112.832 148.828 114.041 149.756L114.893 148.644ZM107.597 145.385C104.204 144.275 101.546 143.197 99.6069 142.152L98.9431 143.385C100.985 144.485 103.73 145.593 107.162 146.715L107.597 145.385ZM99.6077 142.153C94.3443 139.309 91.8375 135.566 91.8375 130.923H90.4375C90.4375 136.212 93.3557 140.366 98.9422 143.385L99.6077 142.153ZM91.8375 130.923C91.8375 128.482 92.5172 126.329 93.8719 124.441L92.7343 123.625C91.2015 125.761 90.4375 128.202 90.4375 130.923H91.8375ZM93.8711 124.442C95.2491 122.529 97.2266 121.017 99.841 119.921L99.2996 118.629C96.489 119.808 94.2884 121.468 92.7352 123.624L93.8711 124.442ZM99.8392 119.921C102.477 118.824 105.446 118.269 108.758 118.269V116.869C105.288 116.869 102.132 117.451 99.3014 118.629L99.8392 119.921ZM108.758 118.269C112.084 118.269 115.021 118.876 117.583 120.073L118.176 118.805C115.401 117.508 112.257 116.869 108.758 116.869V118.269ZM117.588 120.075C120.148 121.25 122.108 122.906 123.494 125.038L124.668 124.275C123.124 121.9 120.949 120.078 118.172 118.803L117.588 120.075ZM123.497 125.042C124.904 127.173 125.612 129.597 125.612 132.334H127.012C127.012 129.34 126.233 126.645 124.665 124.271L123.497 125.042ZM126.312 131.634H116.469V133.034H126.312V131.634ZM117.169 132.334C117.169 129.988 116.422 128.083 114.862 126.721L113.941 127.776C115.137 128.82 115.769 130.306 115.769 132.334H117.169ZM114.867 126.725C113.321 125.351 111.198 124.711 108.594 124.711V126.111C110.977 126.111 112.726 126.695 113.936 127.772L114.867 126.725ZM108.594 124.711C106.097 124.711 104.055 125.243 102.556 126.399L103.41 127.508C104.579 126.607 106.278 126.111 108.594 126.111V124.711ZM102.561 126.394C101.053 127.532 100.281 129.073 100.281 130.956H101.681C101.681 129.515 102.244 128.387 103.404 127.512L102.561 126.394ZM100.281 130.956C100.281 132.792 101.219 134.291 102.919 135.441L103.703 134.281C102.297 133.33 101.681 132.227 101.681 130.956H100.281ZM102.923 135.443C104.581 136.549 106.964 137.557 110.032 138.484L110.437 137.144C107.424 136.234 105.191 135.273 103.699 134.279L102.923 135.443ZM110.033 138.484C115.586 140.155 119.542 142.202 121.985 144.583L122.962 143.58C120.286 140.973 116.083 138.842 110.436 137.144L110.033 138.484ZM121.985 144.583C124.403 146.939 125.612 149.861 125.612 153.4H127.012C127.012 149.501 125.663 146.211 122.962 143.58L121.985 144.583ZM125.612 153.4C125.612 157.329 124.141 160.365 121.198 162.587L122.042 163.704C125.356 161.201 127.012 157.74 127.012 153.4H125.612ZM121.201 162.585C118.23 164.808 114.183 165.956 108.987 165.956V167.356C114.379 167.356 118.754 166.164 122.04 163.706L121.201 162.585ZM108.987 165.956C105.399 165.956 102.15 165.305 99.2299 164.014L98.6639 165.295C101.781 166.673 105.226 167.356 108.987 167.356V165.956ZM99.2337 164.016C96.3127 162.704 94.1143 160.932 92.6017 158.715L91.4452 159.504C93.1263 161.968 95.5436 163.893 98.66 165.293L99.2337 164.016ZM92.6042 158.719C91.1142 156.504 90.3609 153.931 90.3609 150.972H88.9609C88.9609 154.182 89.7827 157.033 91.4427 159.5L92.6042 158.719ZM89.6609 151.672H99.5375V150.272H89.6609V151.672ZM98.8375 150.972C98.8375 153.752 99.6739 155.953 101.451 157.44C103.204 158.906 105.757 159.58 108.987 159.58V158.18C105.918 158.18 103.746 157.535 102.349 156.366C100.976 155.217 100.237 153.464 100.237 150.972H98.8375ZM108.987 159.58C111.411 159.58 113.401 159.094 114.875 158.038L114.059 156.9C112.908 157.725 111.245 158.18 108.987 158.18V159.58ZM114.881 158.033C116.383 156.932 117.136 155.382 117.136 153.466H115.736C115.736 154.962 115.176 156.081 114.053 156.904L114.881 158.033Z" fill="black"/>
</g>
</g>
<g id="Property 1=CSS">
<g id="CSS">
<path d="M54.4663 98.6698C54.1641 102.847 52.6178 106.135 49.8274 108.534C47.0547 110.933 43.3934 112.133 38.8434 112.133C33.8669 112.133 29.9478 110.462 27.0863 107.121C24.2425 103.762 22.8207 99.1586 22.8207 93.3111V90.9384C22.8207 87.2059 23.4783 83.9179 24.7935 81.0741C26.1088 78.2304 27.9839 76.0531 30.4188 74.5424C32.8715 73.0139 35.7153 72.2496 38.9501 72.2496C43.429 72.2496 47.037 73.4493 49.7741 75.8487C52.5112 78.2481 54.093 81.6162 54.5196 85.9529H46.5215C46.326 83.4469 45.624 81.634 44.4154 80.5142C43.2246 79.3767 41.4028 78.808 38.9501 78.808C36.284 78.808 34.2845 79.7678 32.9515 81.6873C31.6363 83.5891 30.9609 86.5483 30.9254 90.5651V93.4977C30.9254 97.6923 31.5563 100.758 32.8182 102.695C34.0979 104.633 36.1063 105.601 38.8434 105.601C41.3139 105.601 43.1535 105.042 44.3621 103.922C45.5884 102.784 46.2905 101.034 46.4682 98.6698H54.4663ZM97.8647 101.416C97.8647 99.9051 97.3315 98.7498 96.2651 97.95C95.1987 97.1324 93.2792 96.2793 90.5065 95.3906C87.7339 94.4842 85.5389 93.5955 83.9215 92.7246C79.5137 90.343 77.3098 87.1349 77.3098 83.1003C77.3098 81.003 77.8963 79.1368 79.0693 77.5016C80.2602 75.8487 81.9575 74.5601 84.1614 73.6359C86.3831 72.7117 88.8714 72.2496 91.6263 72.2496C94.3989 72.2496 96.8694 72.7561 99.0378 73.7692C101.206 74.7645 102.886 76.1775 104.077 78.0082C105.285 79.8389 105.889 81.9183 105.889 84.2467H97.8914C97.8914 82.4693 97.3315 81.0919 96.2118 80.1143C95.0921 79.119 93.5191 78.6214 91.493 78.6214C89.5379 78.6214 88.0183 79.0391 86.9341 79.8744C85.8499 80.692 85.3078 81.7762 85.3078 83.1269C85.3078 84.3889 85.9388 85.4464 87.2007 86.2995C88.4804 87.1526 90.3555 87.9524 92.826 88.6989C97.376 90.0675 100.691 91.7648 102.77 93.791C104.85 95.8172 105.889 98.341 105.889 101.362C105.889 104.722 104.619 107.361 102.077 109.281C99.5354 111.182 96.1141 112.133 91.8129 112.133C88.8269 112.133 86.1076 111.591 83.6549 110.507C81.2021 109.405 79.327 107.903 78.0296 106.001C76.7499 104.1 76.1101 101.896 76.1101 99.3896H84.1348C84.1348 103.673 86.6941 105.815 91.8129 105.815C93.7146 105.815 95.1987 105.433 96.2651 104.668C97.3315 103.886 97.8647 102.802 97.8647 101.416ZM149.475 101.416C149.475 99.9051 148.941 98.7498 147.875 97.95C146.809 97.1324 144.889 96.2793 142.116 95.3906C139.344 94.4842 137.149 93.5955 135.531 92.7246C131.123 90.343 128.92 87.1349 128.92 83.1003C128.92 81.003 129.506 79.1368 130.679 77.5016C131.87 75.8487 133.567 74.5601 135.771 73.6359C137.993 72.7117 140.481 72.2496 143.236 72.2496C146.009 72.2496 148.479 72.7561 150.648 73.7692C152.816 74.7645 154.496 76.1775 155.686 78.0082C156.895 79.8389 157.499 81.9183 157.499 84.2467H149.501C149.501 82.4693 148.941 81.0919 147.822 80.1143C146.702 79.119 145.129 78.6214 143.103 78.6214C141.148 78.6214 139.628 79.0391 138.544 79.8744C137.46 80.692 136.918 81.7762 136.918 83.1269C136.918 84.3889 137.549 85.4464 138.81 86.2995C140.09 87.1526 141.965 87.9524 144.436 88.6989C148.986 90.0675 152.301 91.7648 154.38 93.791C156.46 95.8172 157.499 98.341 157.499 101.362C157.499 104.722 156.228 107.361 153.687 109.281C151.145 111.182 147.724 112.133 143.423 112.133C140.437 112.133 137.717 111.591 135.265 110.507C132.812 109.405 130.937 107.903 129.639 106.001C128.36 104.1 127.72 101.896 127.72 99.3896H135.745C135.745 103.673 138.304 105.815 143.423 105.815C145.324 105.815 146.809 105.433 147.875 104.668C148.941 103.886 149.475 102.802 149.475 101.416Z" fill="#71DB4C"/>
<path d="M54.4663 98.6698L55.1644 98.7203L55.2187 97.9698H54.4663V98.6698ZM49.8274 108.534L49.371 108.003L49.3693 108.005L49.8274 108.534ZM27.0863 107.121L26.552 107.573L26.5546 107.576L27.0863 107.121ZM24.7935 81.0741L24.1582 80.7803L24.7935 81.0741ZM30.4188 74.5424L30.7879 75.1372L30.789 75.1365L30.4188 74.5424ZM49.7741 75.8487L49.3126 76.3751L49.7741 75.8487ZM54.5196 85.9529V86.6529H55.2918L55.2162 85.8844L54.5196 85.9529ZM46.5215 85.9529L45.8237 86.0074L45.874 86.6529H46.5215V85.9529ZM44.4154 80.5142L43.9318 81.0205L43.9397 81.0277L44.4154 80.5142ZM32.9515 81.6873L32.3766 81.288L32.3758 81.2891L32.9515 81.6873ZM30.9254 90.5651L30.2254 90.5589V90.5651H30.9254ZM32.8182 102.695L32.2317 103.078L32.2341 103.081L32.8182 102.695ZM44.3621 103.922L44.8378 104.435L44.8381 104.435L44.3621 103.922ZM46.4682 98.6698V97.9698H45.8189L45.7702 98.6173L46.4682 98.6698ZM53.7681 98.6193C53.4774 102.638 52.0002 105.743 49.371 108.003L50.2838 109.065C53.2354 106.527 54.8509 103.055 55.1644 98.7203L53.7681 98.6193ZM49.3693 108.005C46.7524 110.269 43.2672 111.433 38.8434 111.433V112.833C43.5197 112.833 47.3571 111.598 50.2855 109.063L49.3693 108.005ZM38.8434 111.433C34.0413 111.433 30.3282 109.83 27.618 106.666L26.5546 107.576C29.5675 111.095 33.6924 112.833 38.8434 112.833V111.433ZM27.6206 106.669C24.9146 103.472 23.5207 99.0479 23.5207 93.3111H22.1207C22.1207 99.2693 23.5704 104.051 26.552 107.573L27.6206 106.669ZM23.5207 93.3111V90.9384H22.1207V93.3111H23.5207ZM23.5207 90.9384C23.5207 87.2883 24.1636 84.1037 25.4289 81.368L24.1582 80.7803C22.793 83.732 22.1207 87.1236 22.1207 90.9384H23.5207ZM25.4289 81.368C26.6922 78.6363 28.48 76.5691 30.7879 75.1372L30.0498 73.9476C27.4877 75.5372 25.5253 77.8244 24.1582 80.7803L25.4289 81.368ZM30.789 75.1365C33.1178 73.6852 35.8301 72.9496 38.9501 72.9496V71.5496C35.6005 71.5496 32.6253 72.3425 30.0486 73.9483L30.789 75.1365ZM38.9501 72.9496C43.2999 72.9496 46.7308 74.1118 49.3126 76.3751L50.2355 75.3223C47.3431 72.7868 43.558 71.5496 38.9501 71.5496V72.9496ZM49.3126 76.3751C51.8905 78.6349 53.4102 81.8247 53.823 86.0214L55.2162 85.8844C54.7759 81.4077 53.1319 77.8614 50.2355 75.3223L49.3126 76.3751ZM54.5196 85.2529H46.5215V86.6529H54.5196V85.2529ZM47.2194 85.8985C47.0172 83.3064 46.2823 81.2896 44.8911 80.0008L43.9397 81.0277C44.9657 81.9783 45.6349 83.5873 45.8237 86.0074L47.2194 85.8985ZM44.8989 80.0081C43.5263 78.697 41.4962 78.108 38.9501 78.108V79.508C41.3094 79.508 42.9228 80.0565 43.9319 81.0204L44.8989 80.0081ZM38.9501 78.108C36.0921 78.108 33.8604 79.1513 32.3766 81.288L33.5265 82.0866C34.7087 80.3842 36.476 79.508 38.9501 79.508V78.108ZM32.3758 81.2891C30.9412 83.3635 30.2614 86.4933 30.2254 90.5589L31.6253 90.5713C31.6604 86.6033 32.3314 83.8146 33.5273 82.0855L32.3758 81.2891ZM30.2254 90.5651V93.4977H31.6254V90.5651H30.2254ZM30.2254 93.4977C30.2254 97.7326 30.8568 100.967 32.2317 103.078L33.4048 102.313C32.2558 100.55 31.6254 97.652 31.6254 93.4977H30.2254ZM32.2341 103.081C33.6681 105.252 35.9199 106.301 38.8434 106.301V104.901C36.2927 104.901 34.5277 104.013 33.4023 102.31L32.2341 103.081ZM38.8434 106.301C41.4042 106.301 43.4481 105.723 44.8378 104.435L43.8863 103.408C42.8589 104.36 41.2236 104.901 38.8434 104.901V106.301ZM44.8381 104.435C46.2393 103.135 46.9808 101.189 47.1663 98.7223L45.7702 98.6173C45.6002 100.879 44.9376 102.433 43.886 103.409L44.8381 104.435ZM46.4682 99.3698H54.4663V97.9698H46.4682V99.3698ZM96.2651 97.95L95.8392 98.5055L95.8451 98.51L96.2651 97.95ZM90.5065 95.3906L90.289 96.056L90.2929 96.0572L90.5065 95.3906ZM83.9215 92.7246L83.5887 93.3405L83.5896 93.3409L83.9215 92.7246ZM79.0693 77.5016L78.5014 77.0925L78.5006 77.0936L79.0693 77.5016ZM84.1614 73.6359L83.8926 72.9896L83.8907 72.9904L84.1614 73.6359ZM99.0378 73.7692L98.7415 74.4034L98.7458 74.4054L99.0378 73.7692ZM104.077 78.0082L103.49 78.3899L103.492 78.3939L104.077 78.0082ZM105.889 84.2467V84.9467H106.589V84.2467H105.889ZM97.8914 84.2467H97.1914V84.9467H97.8914V84.2467ZM96.2118 80.1143L95.7467 80.6376L95.7515 80.6417L96.2118 80.1143ZM86.9341 79.8744L87.3556 80.4333L87.3613 80.4289L86.9341 79.8744ZM87.2007 86.2995L86.8086 86.8794L86.8124 86.8819L87.2007 86.2995ZM92.826 88.6989L92.6235 89.369L92.6243 89.3692L92.826 88.6989ZM102.077 109.281L102.496 109.841L102.499 109.839L102.077 109.281ZM83.6549 110.507L83.368 111.145L83.3719 111.147L83.6549 110.507ZM78.0296 106.001L77.4488 106.392L77.4513 106.396L78.0296 106.001ZM76.1101 99.3896V98.6896H75.4101V99.3896H76.1101ZM84.1348 99.3896H84.8348V98.6896H84.1348V99.3896ZM96.2651 104.668L96.6729 105.237L96.6791 105.233L96.2651 104.668ZM98.5647 101.416C98.5647 99.7184 97.9531 98.3409 96.6851 97.39L95.8451 98.51C96.71 99.1587 97.1647 100.092 97.1647 101.416H98.5647ZM96.691 97.3945C95.5216 96.4979 93.5012 95.6154 90.7202 94.724L90.2929 96.0572C93.0571 96.9432 94.8758 97.7669 95.8392 98.5055L96.691 97.3945ZM90.7241 94.7253C87.9708 93.8252 85.8193 92.9515 84.2534 92.1083L83.5896 93.3409C85.2584 94.2395 87.497 95.1432 90.289 96.056L90.7241 94.7253ZM84.2542 92.1087C80.008 89.8144 78.0098 86.8117 78.0098 83.1003H76.6098C76.6098 87.458 79.0193 90.8715 83.5887 93.3405L84.2542 92.1087ZM78.0098 83.1003C78.0098 81.1428 78.5541 79.4207 79.6381 77.9097L78.5006 77.0936C77.2384 78.853 76.6098 80.8632 76.6098 83.1003H78.0098ZM79.6373 77.9108C80.7405 76.3795 82.3263 75.1645 84.4321 74.2815L83.8907 72.9904C81.5887 73.9557 79.7798 75.3179 78.5014 77.0925L79.6373 77.9108ZM84.4303 74.2822C86.5553 73.3982 88.9504 72.9496 91.6263 72.9496V71.5496C88.7924 71.5496 86.2109 72.0252 83.8926 72.9896L84.4303 74.2822ZM91.6263 72.9496C94.3127 72.9496 96.6795 73.44 98.7415 74.4034L99.3341 73.135C97.0594 72.0722 94.4852 71.5496 91.6263 71.5496V72.9496ZM98.7458 74.4054C100.805 75.3508 102.378 76.6804 103.49 78.3899L104.663 77.6265C103.394 75.6746 101.607 74.1783 99.3298 73.133L98.7458 74.4054ZM103.492 78.3939C104.621 80.1029 105.189 82.0466 105.189 84.2467H106.589C106.589 81.7901 105.95 79.5748 104.661 77.6225L103.492 78.3939ZM105.889 83.5467H97.8914V84.9467H105.889V83.5467ZM98.5914 84.2467C98.5914 82.3105 97.974 80.7236 96.6722 79.587L95.7515 80.6417C96.689 81.4602 97.1914 82.6281 97.1914 84.2467H98.5914ZM96.6769 79.5912C95.3897 78.447 93.6295 77.9214 91.493 77.9214V79.3214C93.4087 79.3214 94.7944 79.791 95.7468 80.6375L96.6769 79.5912ZM91.493 77.9214C89.4477 77.9214 87.7562 78.3573 86.5068 79.3199L87.3613 80.4289C88.2803 79.7208 89.6281 79.3214 91.493 79.3214V77.9214ZM86.5126 79.3155C85.2541 80.2645 84.6078 81.5551 84.6078 83.1269H86.0078C86.0078 81.9972 86.4457 81.1194 87.3555 80.4333L86.5126 79.3155ZM84.6078 83.1269C84.6078 84.6714 85.3998 85.9269 86.8086 86.8794L87.5927 85.7196C86.4778 84.9658 86.0078 84.1063 86.0078 83.1269H84.6078ZM86.8124 86.8819C88.1751 87.7904 90.1253 88.6141 92.6235 89.369L93.0284 88.0288C90.5857 87.2907 88.7856 86.5148 87.589 85.7171L86.8124 86.8819ZM92.6243 89.3692C97.1274 90.7237 100.319 92.3796 102.282 94.2924L103.259 93.2896C101.063 91.1501 97.6246 89.4113 93.0276 88.0286L92.6243 89.3692ZM102.282 94.2924C104.22 96.1809 105.189 98.5212 105.189 101.362H106.589C106.589 98.1608 105.479 95.4535 103.259 93.2896L102.282 94.2924ZM105.189 101.362C105.189 104.516 104.011 106.943 101.655 108.722L102.499 109.839C105.227 107.779 106.589 104.927 106.589 101.362H105.189ZM101.658 108.72C99.2736 110.504 96.0158 111.433 91.8129 111.433V112.833C96.2123 112.833 99.7973 111.861 102.496 109.841L101.658 108.72ZM91.8129 111.433C88.9133 111.433 86.2918 110.907 83.9379 109.867L83.3719 111.147C85.9234 112.275 88.7406 112.833 91.8129 112.833V111.433ZM83.9417 109.868C81.5867 108.81 79.8211 107.385 78.6078 105.607L77.4513 106.396C78.833 108.421 80.8176 110 83.368 111.145L83.9417 109.868ZM78.6103 105.611C77.4156 103.835 76.8101 101.77 76.8101 99.3896H75.4101C75.4101 102.021 76.0842 104.364 77.4488 106.392L78.6103 105.611ZM76.1101 100.09H84.1348V98.6896H76.1101V100.09ZM83.4348 99.3896C83.4348 101.675 84.1235 103.506 85.6051 104.745C87.0627 105.965 89.173 106.515 91.8129 106.515V105.115C89.334 105.115 87.6053 104.594 86.5035 103.672C85.4257 102.77 84.8348 101.387 84.8348 99.3896H83.4348ZM91.8129 106.515C93.7979 106.515 95.445 106.117 96.6729 105.237L95.8574 104.099C94.9525 104.748 93.6314 105.115 91.8129 105.115V106.515ZM96.6791 105.233C97.9353 104.312 98.5647 103.012 98.5647 101.416H97.1647C97.1647 102.592 96.7278 103.461 95.8512 104.104L96.6791 105.233ZM147.875 97.95L147.449 98.5055L147.455 98.51L147.875 97.95ZM142.116 95.3906L141.899 96.056L141.903 96.0572L142.116 95.3906ZM135.531 92.7246L135.199 93.3405L135.199 93.3409L135.531 92.7246ZM130.679 77.5016L130.111 77.0925L130.11 77.0936L130.679 77.5016ZM135.771 73.6359L135.502 72.9896L135.501 72.9904L135.771 73.6359ZM150.648 73.7692L150.351 74.4034L150.356 74.4054L150.648 73.7692ZM155.686 78.0082L155.1 78.3899L155.102 78.3939L155.686 78.0082ZM157.499 84.2467V84.9467H158.199V84.2467H157.499ZM149.501 84.2467H148.801V84.9467H149.501V84.2467ZM147.822 80.1143L147.357 80.6376L147.361 80.6417L147.822 80.1143ZM138.544 79.8744L138.965 80.4333L138.971 80.4289L138.544 79.8744ZM138.81 86.2995L138.418 86.8794L138.422 86.8819L138.81 86.2995ZM144.436 88.6989L144.233 89.369L144.234 89.3692L144.436 88.6989ZM153.687 109.281L154.106 109.841L154.109 109.839L153.687 109.281ZM135.265 110.507L134.978 111.145L134.982 111.147L135.265 110.507ZM129.639 106.001L129.059 106.392L129.061 106.396L129.639 106.001ZM127.72 99.3896V98.6896H127.02V99.3896H127.72ZM135.745 99.3896H136.445V98.6896H135.745V99.3896ZM147.875 104.668L148.283 105.237L148.289 105.233L147.875 104.668ZM150.175 101.416C150.175 99.7184 149.563 98.3409 148.295 97.39L147.455 98.51C148.32 99.1587 148.775 100.092 148.775 101.416H150.175ZM148.301 97.3945C147.131 96.4979 145.111 95.6154 142.33 94.724L141.903 96.0572C144.667 96.9432 146.486 97.7669 147.449 98.5055L148.301 97.3945ZM142.334 94.7253C139.581 93.8252 137.429 92.9515 135.863 92.1083L135.199 93.3409C136.868 94.2395 139.107 95.1432 141.899 96.056L142.334 94.7253ZM135.864 92.1087C131.618 89.8144 129.62 86.8117 129.62 83.1003H128.22C128.22 87.458 130.629 90.8715 135.199 93.3405L135.864 92.1087ZM129.62 83.1003C129.62 81.1428 130.164 79.4207 131.248 77.9097L130.11 77.0936C128.848 78.853 128.22 80.8632 128.22 83.1003H129.62ZM131.247 77.9108C132.35 76.3795 133.936 75.1645 136.042 74.2815L135.501 72.9904C133.199 73.9557 131.39 75.3179 130.111 77.0925L131.247 77.9108ZM136.04 74.2822C138.165 73.3982 140.56 72.9496 143.236 72.9496V71.5496C140.402 71.5496 137.821 72.0252 135.502 72.9896L136.04 74.2822ZM143.236 72.9496C145.922 72.9496 148.289 73.44 150.351 74.4034L150.944 73.135C148.669 72.0722 146.095 71.5496 143.236 71.5496V72.9496ZM150.356 74.4054C152.415 75.3508 153.988 76.6804 155.1 78.3899L156.273 77.6265C155.003 75.6746 153.217 74.1783 150.94 73.133L150.356 74.4054ZM155.102 78.3939C156.23 80.1029 156.799 82.0466 156.799 84.2467H158.199C158.199 81.7901 157.559 79.5748 156.271 77.6225L155.102 78.3939ZM157.499 83.5467H149.501V84.9467H157.499V83.5467ZM150.201 84.2467C150.201 82.3105 149.584 80.7236 148.282 79.587L147.361 80.6417C148.299 81.4602 148.801 82.6281 148.801 84.2467H150.201ZM148.287 79.5912C147 78.447 145.239 77.9214 143.103 77.9214V79.3214C145.019 79.3214 146.404 79.791 147.357 80.6375L148.287 79.5912ZM143.103 77.9214C141.057 77.9214 139.366 78.3573 138.117 79.3199L138.971 80.4289C139.89 79.7208 141.238 79.3214 143.103 79.3214V77.9214ZM138.122 79.3155C136.864 80.2645 136.218 81.5551 136.218 83.1269H137.618C137.618 81.9972 138.055 81.1194 138.965 80.4333L138.122 79.3155ZM136.218 83.1269C136.218 84.6714 137.01 85.9269 138.418 86.8794L139.203 85.7196C138.088 84.9658 137.618 84.1063 137.618 83.1269H136.218ZM138.422 86.8819C139.785 87.7904 141.735 88.6141 144.233 89.369L144.638 88.0288C142.195 87.2907 140.395 86.5148 139.199 85.7171L138.422 86.8819ZM144.234 89.3692C148.737 90.7237 151.928 92.3796 153.892 94.2924L154.869 93.2896C152.673 91.1501 149.234 89.4113 144.637 88.0286L144.234 89.3692ZM153.892 94.2924C155.83 96.1809 156.799 98.5212 156.799 101.362H158.199C158.199 98.1608 157.089 95.4535 154.869 93.2896L153.892 94.2924ZM156.799 101.362C156.799 104.516 155.621 106.943 153.265 108.722L154.109 109.839C156.836 107.779 158.199 104.927 158.199 101.362H156.799ZM153.267 108.72C150.883 110.504 147.626 111.433 143.423 111.433V112.833C147.822 112.833 151.407 111.861 154.106 109.841L153.267 108.72ZM143.423 111.433C140.523 111.433 137.902 110.907 135.548 109.867L134.982 111.147C137.533 112.275 140.35 112.833 143.423 112.833V111.433ZM135.552 109.868C133.197 108.81 131.431 107.385 130.218 105.607L129.061 106.396C130.443 108.421 132.427 110 134.978 111.145L135.552 109.868ZM130.22 105.611C129.025 103.835 128.42 101.77 128.42 99.3896H127.02C127.02 102.021 127.694 104.364 129.059 106.392L130.22 105.611ZM127.72 100.09H135.745V98.6896H127.72V100.09ZM135.045 99.3896C135.045 101.675 135.733 103.506 137.215 104.745C138.673 105.965 140.783 106.515 143.423 106.515V105.115C140.944 105.115 139.215 104.594 138.113 103.672C137.035 102.77 136.445 101.387 136.445 99.3896H135.045ZM143.423 106.515C145.408 106.515 147.055 106.117 148.283 105.237L147.467 104.099C146.562 104.748 145.241 105.115 143.423 105.115V106.515ZM148.289 105.233C149.545 104.312 150.175 103.012 150.175 101.416H148.775C148.775 102.592 148.338 103.461 147.461 104.104L148.289 105.233Z" fill="black"/>
</g>
</g>
<rect x="0.5" y="0.5" width="179" height="198.6" rx="4.5" stroke="#7B61FF" stroke-dasharray="10 5"/>
</g>
</svg>
