<svg width="78" height="98" viewBox="0 0 78 98" fill="none" xmlns="http://www.w3.org/2000/svg">
<g id="HTML CSS JS">
<path d="M17.0005 22H14.2676V12.4702H3.87402V22H1.15527V1.38281H3.87402V10.2471H14.2676V1.38281H17.0005V22ZM35.6494 3.62012H29.0225V22H26.3179V3.62012H19.7051V1.38281H35.6494V3.62012ZM42.2197 1.38281L48.96 18.2051L55.7002 1.38281H59.2261V22H56.5073V13.9712L56.7622 5.30518L49.9937 22H47.9121L41.1577 5.34766L41.4268 13.9712V22H38.708V1.38281H42.2197ZM66.7593 19.7769H76.5298V22H64.0264V1.38281H66.7593V19.7769Z" fill="#DB4C4C"/>
<path d="M18.9671 51.0068C18.6946 53.3379 17.8318 55.1392 16.3787 56.4106C14.9357 57.672 13.0133 58.3027 10.6116 58.3027C8.00811 58.3027 5.91924 57.3693 4.34502 55.5024C2.78089 53.6356 1.99883 51.138 1.99883 48.0098V45.8906C1.99883 43.8421 2.36211 42.0409 3.08867 40.4868C3.82533 38.9328 4.86471 37.742 6.20684 36.9146C7.54896 36.077 9.103 35.6582 10.8689 35.6582C13.2101 35.6582 15.087 36.3141 16.4998 37.626C17.9126 38.9277 18.735 40.734 18.9671 43.0449H16.0457C15.7934 41.2891 15.2435 40.0176 14.3958 39.2305C13.5582 38.4434 12.3826 38.0498 10.8689 38.0498C9.01218 38.0498 7.554 38.736 6.49443 40.1084C5.44496 41.4808 4.92022 43.4334 4.92022 45.9663V48.1006C4.92022 50.4922 5.41973 52.3944 6.41875 53.8071C7.41777 55.2199 8.8154 55.9263 10.6116 55.9263C12.2262 55.9263 13.4624 55.563 14.3201 54.8364C15.188 54.0998 15.7632 52.8232 16.0457 51.0068H18.9671ZM38.7417 48.1763C36.2492 47.4598 34.4328 46.5819 33.2925 45.5425C32.1623 44.493 31.5972 43.2013 31.5972 41.6675C31.5972 39.9318 32.2884 38.4989 33.6709 37.3687C35.0635 36.2284 36.8698 35.6582 39.0898 35.6582C40.6035 35.6582 41.9507 35.9508 43.1313 36.5361C44.3221 37.1214 45.2404 37.9287 45.8862 38.958C46.5422 39.9873 46.8701 41.1125 46.8701 42.3335H43.9487C43.9487 41.0015 43.5249 39.957 42.6772 39.2002C41.8296 38.4333 40.6338 38.0498 39.0898 38.0498C37.6569 38.0498 36.5368 38.3677 35.7295 39.0034C34.9323 39.6291 34.5337 40.502 34.5337 41.6221C34.5337 42.5202 34.9121 43.2821 35.6689 43.9077C36.4359 44.5233 37.7326 45.0884 39.5591 45.603C41.3957 46.1177 42.8286 46.6878 43.8579 47.3135C44.8973 47.929 45.6642 48.6506 46.1587 49.478C46.6632 50.3055 46.9155 51.2793 46.9155 52.3994C46.9155 54.1855 46.2192 55.6185 44.8267 56.6982C43.4341 57.7679 41.5723 58.3027 39.2412 58.3027C37.7275 58.3027 36.3148 58.0151 35.0029 57.4399C33.6911 56.8547 32.6769 56.0575 31.9604 55.0483C31.2541 54.0392 30.9009 52.8939 30.9009 51.6123H33.8223C33.8223 52.9443 34.3117 53.9989 35.2905 54.7759C36.2795 55.5428 37.5964 55.9263 39.2412 55.9263C40.7751 55.9263 41.9507 55.6134 42.7681 54.9878C43.5854 54.3621 43.9941 53.5094 43.9941 52.4297C43.9941 51.3499 43.6157 50.5174 42.8589 49.9321C42.1021 49.3368 40.7297 48.7515 38.7417 48.1763ZM66.448 48.1763C63.9554 47.4598 62.139 46.5819 60.9987 45.5425C59.8685 44.493 59.3034 43.2013 59.3034 41.6675C59.3034 39.9318 59.9947 38.4989 61.3772 37.3687C62.7697 36.2284 64.576 35.6582 66.7961 35.6582C68.3098 35.6582 69.6569 35.9508 70.8376 36.5361C72.0284 37.1214 72.9467 37.9287 73.5925 38.958C74.2484 39.9873 74.5764 41.1125 74.5764 42.3335H71.655C71.655 41.0015 71.2312 39.957 70.3835 39.2002C69.5358 38.4333 68.34 38.0498 66.7961 38.0498C65.3632 38.0498 64.243 38.3677 63.4357 39.0034C62.6385 39.6291 62.2399 40.502 62.2399 41.6221C62.2399 42.5202 62.6184 43.2821 63.3752 43.9077C64.1421 44.5233 65.4388 45.0884 67.2653 45.603C69.1019 46.1177 70.5349 46.6878 71.5642 47.3135C72.6036 47.929 73.3705 48.6506 73.8649 49.478C74.3695 50.3055 74.6218 51.2793 74.6218 52.3994C74.6218 54.1855 73.9255 55.6185 72.5329 56.6982C71.1403 57.7679 69.2785 58.3027 66.9475 58.3027C65.4338 58.3027 64.021 58.0151 62.7092 57.4399C61.3973 56.8547 60.3832 56.0575 59.6667 55.0483C58.9603 54.0392 58.6071 52.8939 58.6071 51.6123H61.5285C61.5285 52.9443 62.0179 53.9989 62.9968 54.7759C63.9857 55.5428 65.3026 55.9263 66.9475 55.9263C68.4813 55.9263 69.6569 55.6134 70.4743 54.9878C71.2917 54.3621 71.7004 53.5094 71.7004 52.4297C71.7004 51.3499 71.322 50.5174 70.5651 49.9321C69.8083 49.3368 68.4359 48.7515 66.448 48.1763Z" fill="#71DB4C"/>
<path d="M31.6514 73.5391H34.7612V90.1519C34.7612 92.397 34.0845 94.1533 32.731 95.4209C31.3882 96.6885 29.5942 97.3223 27.3491 97.3223C25.0181 97.3223 23.2026 96.7261 21.9028 95.5337C20.603 94.3413 19.9531 92.6709 19.9531 90.5225H23.0469C23.0469 91.8652 23.4121 92.9126 24.1426 93.6646C24.8838 94.4165 25.9526 94.7925 27.3491 94.7925C28.6274 94.7925 29.6587 94.3896 30.4429 93.584C31.2378 92.7783 31.6406 91.6504 31.6514 90.2002V73.5391ZM46.9429 86.5425C44.2896 85.7798 42.356 84.8452 41.1421 83.7388C39.939 82.6216 39.3374 81.2466 39.3374 79.6138C39.3374 77.7661 40.0732 76.2407 41.5449 75.0376C43.0273 73.8237 44.9502 73.2168 47.3135 73.2168C48.9248 73.2168 50.3589 73.5283 51.6157 74.1514C52.8833 74.7744 53.8608 75.6338 54.5483 76.7295C55.2466 77.8252 55.5957 79.0229 55.5957 80.3228H52.4858C52.4858 78.9048 52.0347 77.793 51.1323 76.9873C50.23 76.1709 48.957 75.7627 47.3135 75.7627C45.7881 75.7627 44.5957 76.1011 43.7363 76.7778C42.8877 77.4438 42.4634 78.373 42.4634 79.5654C42.4634 80.5215 42.8662 81.3325 43.6719 81.9985C44.4883 82.6538 45.8687 83.2554 47.813 83.8032C49.7681 84.3511 51.2935 84.958 52.3892 85.624C53.4956 86.2793 54.312 87.0474 54.8384 87.9282C55.3755 88.8091 55.644 89.8457 55.644 91.0381C55.644 92.9395 54.9028 94.4648 53.4204 95.6143C51.938 96.7529 49.9561 97.3223 47.4746 97.3223C45.8633 97.3223 44.3594 97.0161 42.9629 96.4038C41.5664 95.7808 40.4868 94.9321 39.7241 93.8579C38.9722 92.7837 38.5962 91.5645 38.5962 90.2002H41.7061C41.7061 91.6182 42.2271 92.7407 43.269 93.5679C44.3218 94.3843 45.7236 94.7925 47.4746 94.7925C49.1074 94.7925 50.3589 94.4595 51.229 93.7935C52.0991 93.1274 52.5342 92.2197 52.5342 91.0703C52.5342 89.9209 52.1313 89.0347 51.3257 88.4116C50.52 87.7778 49.0591 87.1548 46.9429 86.5425Z" fill="#7A4CDB"/>
<path d="M17.0005 22V22.5H17.5005V22H17.0005ZM14.2676 22H13.7676V22.5H14.2676V22ZM14.2676 12.4702H14.7676V11.9702H14.2676V12.4702ZM3.87402 12.4702V11.9702H3.37402V12.4702H3.87402ZM3.87402 22V22.5H4.37402V22H3.87402ZM1.15527 22H0.655273V22.5H1.15527V22ZM1.15527 1.38281V0.882812H0.655273V1.38281H1.15527ZM3.87402 1.38281H4.37402V0.882812H3.87402V1.38281ZM3.87402 10.2471H3.37402V10.7471H3.87402V10.2471ZM14.2676 10.2471V10.7471H14.7676V10.2471H14.2676ZM14.2676 1.38281V0.882812H13.7676V1.38281H14.2676ZM17.0005 1.38281H17.5005V0.882812H17.0005V1.38281ZM17.0005 21.5H14.2676V22.5H17.0005V21.5ZM14.7676 22V12.4702H13.7676V22H14.7676ZM14.2676 11.9702H3.87402V12.9702H14.2676V11.9702ZM3.37402 12.4702V22H4.37402V12.4702H3.37402ZM3.87402 21.5H1.15527V22.5H3.87402V21.5ZM1.65527 22V1.38281H0.655273V22H1.65527ZM1.15527 1.88281H3.87402V0.882812H1.15527V1.88281ZM3.37402 1.38281V10.2471H4.37402V1.38281H3.37402ZM3.87402 10.7471H14.2676V9.74707H3.87402V10.7471ZM14.7676 10.2471V1.38281H13.7676V10.2471H14.7676ZM14.2676 1.88281H17.0005V0.882812H14.2676V1.88281ZM16.5005 1.38281V22H17.5005V1.38281H16.5005ZM35.6494 3.62012V4.12012H36.1494V3.62012H35.6494ZM29.0225 3.62012V3.12012H28.5225V3.62012H29.0225ZM29.0225 22V22.5H29.5225V22H29.0225ZM26.3179 22H25.8179V22.5H26.3179V22ZM26.3179 3.62012H26.8179V3.12012H26.3179V3.62012ZM19.7051 3.62012H19.2051V4.12012H19.7051V3.62012ZM19.7051 1.38281V0.882812H19.2051V1.38281H19.7051ZM35.6494 1.38281H36.1494V0.882812H35.6494V1.38281ZM35.6494 3.12012H29.0225V4.12012H35.6494V3.12012ZM28.5225 3.62012V22H29.5225V3.62012H28.5225ZM29.0225 21.5H26.3179V22.5H29.0225V21.5ZM26.8179 22V3.62012H25.8179V22H26.8179ZM26.3179 3.12012H19.7051V4.12012H26.3179V3.12012ZM20.2051 3.62012V1.38281H19.2051V3.62012H20.2051ZM19.7051 1.88281H35.6494V0.882812H19.7051V1.88281ZM35.1494 1.38281V3.62012H36.1494V1.38281H35.1494ZM42.2197 1.38281L42.6839 1.19685L42.558 0.882812H42.2197V1.38281ZM48.96 18.2051L48.4958 18.391L48.96 19.5494L49.4241 18.391L48.96 18.2051ZM55.7002 1.38281V0.882812H55.3619L55.2361 1.19685L55.7002 1.38281ZM59.2261 1.38281H59.7261V0.882812H59.2261V1.38281ZM59.2261 22V22.5H59.7261V22H59.2261ZM56.5073 22H56.0073V22.5H56.5073V22ZM56.5073 13.9712L56.0075 13.9565L56.0073 13.9638V13.9712H56.5073ZM56.7622 5.30518L57.262 5.31988L56.2988 5.11731L56.7622 5.30518ZM49.9937 22V22.5H50.3305L50.457 22.1879L49.9937 22ZM47.9121 22L47.4488 22.1879L47.5754 22.5H47.9121V22ZM41.1577 5.34766L41.6211 5.15972L40.658 5.36325L41.1577 5.34766ZM41.4268 13.9712H41.9268V13.9634L41.9265 13.9556L41.4268 13.9712ZM41.4268 22V22.5H41.9268V22H41.4268ZM38.708 22H38.208V22.5H38.708V22ZM38.708 1.38281V0.882812H38.208V1.38281H38.708ZM41.7556 1.56878L48.4958 18.391L49.4241 18.0191L42.6839 1.19685L41.7556 1.56878ZM49.4241 18.391L56.1643 1.56878L55.2361 1.19685L48.4958 18.0191L49.4241 18.391ZM55.7002 1.88281H59.2261V0.882812H55.7002V1.88281ZM58.7261 1.38281V22H59.7261V1.38281H58.7261ZM59.2261 21.5H56.5073V22.5H59.2261V21.5ZM57.0073 22V13.9712H56.0073V22H57.0073ZM57.0071 13.9859L57.262 5.31988L56.2624 5.29048L56.0075 13.9565L57.0071 13.9859ZM56.2988 5.11731L49.5303 21.8121L50.457 22.1879L57.2256 5.49304L56.2988 5.11731ZM49.9937 21.5H47.9121V22.5H49.9937V21.5ZM48.3754 21.8121L41.6211 5.15972L40.6944 5.53559L47.4488 22.1879L48.3754 21.8121ZM40.658 5.36325L40.927 13.9868L41.9265 13.9556L41.6575 5.33206L40.658 5.36325ZM40.9268 13.9712V22H41.9268V13.9712H40.9268ZM41.4268 21.5H38.708V22.5H41.4268V21.5ZM39.208 22V1.38281H38.208V22H39.208ZM38.708 1.88281H42.2197V0.882812H38.708V1.88281ZM66.7593 19.7769H66.2593V20.2769H66.7593V19.7769ZM76.5298 19.7769H77.0298V19.2769H76.5298V19.7769ZM76.5298 22V22.5H77.0298V22H76.5298ZM64.0264 22H63.5264V22.5H64.0264V22ZM64.0264 1.38281V0.882812H63.5264V1.38281H64.0264ZM66.7593 1.38281H67.2593V0.882812H66.7593V1.38281ZM66.7593 20.2769H76.5298V19.2769H66.7593V20.2769ZM76.0298 19.7769V22H77.0298V19.7769H76.0298ZM76.5298 21.5H64.0264V22.5H76.5298V21.5ZM64.5264 22V1.38281H63.5264V22H64.5264ZM64.0264 1.88281H66.7593V0.882812H64.0264V1.88281ZM66.2593 1.38281V19.7769H67.2593V1.38281H66.2593ZM18.9671 51.0068L19.4637 51.0649L19.5289 50.5068H18.9671V51.0068ZM16.3787 56.4106L16.7078 56.7871L16.708 56.7869L16.3787 56.4106ZM4.34502 55.5024L3.96176 55.8236L3.96278 55.8248L4.34502 55.5024ZM3.08867 40.4868L2.63686 40.2726L2.63573 40.2751L3.08867 40.4868ZM6.20684 36.9146L6.46925 37.3402L6.47155 37.3387L6.20684 36.9146ZM16.4998 37.626L16.1596 37.9924L16.161 37.9937L16.4998 37.626ZM18.9671 43.0449V43.5449H19.5198L19.4646 42.995L18.9671 43.0449ZM16.0457 43.0449L15.5508 43.116L15.6124 43.5449H16.0457V43.0449ZM14.3958 39.2305L14.0534 39.5948L14.0556 39.5969L14.3958 39.2305ZM6.49443 40.1084L6.09866 39.8028L6.09726 39.8047L6.49443 40.1084ZM14.3201 54.8364L14.6433 55.2179L14.6437 55.2176L14.3201 54.8364ZM16.0457 51.0068V50.5068H15.6175L15.5516 50.93L16.0457 51.0068ZM18.4705 50.9488C18.2091 53.1845 17.3901 54.8613 16.0495 56.0344L16.708 56.7869C18.2736 55.417 19.1801 53.4912 19.4637 51.0649L18.4705 50.9488ZM16.0496 56.0342C14.7191 57.1973 12.924 57.8027 10.6116 57.8027V58.8027C13.1027 58.8027 15.1523 58.1468 16.7078 56.7871L16.0496 56.0342ZM10.6116 57.8027C8.14436 57.8027 6.19954 56.9261 4.72726 55.1801L3.96278 55.8248C5.63894 57.8125 7.87185 58.8027 10.6116 58.8027V57.8027ZM4.72828 55.1813C3.25888 53.4275 2.49883 51.0547 2.49883 48.0098H1.49883C1.49883 51.2214 2.3029 53.8436 3.96176 55.8236L4.72828 55.1813ZM2.49883 48.0098V45.8906H1.49883V48.0098H2.49883ZM2.49883 45.8906C2.49883 43.9013 2.85148 42.1747 3.54161 40.6986L2.63573 40.2751C1.87274 41.907 1.49883 43.783 1.49883 45.8906H2.49883ZM3.54048 40.701C4.23966 39.226 5.2168 38.1123 6.46924 37.3402L5.94443 36.4889C4.51263 37.3717 3.41099 38.6396 2.63686 40.2726L3.54048 40.701ZM6.47155 37.3387C7.72527 36.5563 9.18538 36.1582 10.8689 36.1582V35.1582C9.02061 35.1582 7.37265 35.5976 5.94212 36.4904L6.47155 37.3387ZM10.8689 36.1582C13.1124 36.1582 14.8583 36.784 16.1596 37.9924L16.84 37.2596C15.3158 35.8442 13.3078 35.1582 10.8689 35.1582V36.1582ZM16.161 37.9937C17.4658 39.196 18.247 40.8791 18.4696 43.0949L19.4646 42.995C19.2229 40.589 18.3593 38.6595 16.8386 37.2583L16.161 37.9937ZM18.9671 42.5449H16.0457V43.5449H18.9671V42.5449ZM16.5406 42.9738C16.2803 41.1622 15.7019 39.761 14.736 38.8641L14.0556 39.5969C14.785 40.2742 15.3065 41.416 15.5508 43.116L16.5406 42.9738ZM14.7382 38.8661C13.7816 37.9671 12.4684 37.5498 10.8689 37.5498V38.5498C12.2968 38.5498 13.3349 38.9196 14.0534 39.5948L14.7382 38.8661ZM10.8689 37.5498C8.86996 37.5498 7.26041 38.2981 6.09866 39.8028L6.8902 40.414C7.8476 39.1739 9.15439 38.5498 10.8689 38.5498V37.5498ZM6.09726 39.8047C4.95637 41.2966 4.42022 43.3728 4.42022 45.9663H5.42022C5.42022 43.494 5.93354 41.665 6.89161 40.4121L6.09726 39.8047ZM4.42022 45.9663V48.1006H5.42022V45.9663H4.42022ZM4.42022 48.1006C4.42022 50.5571 4.93286 52.5719 6.01051 54.0958L6.82699 53.5184C5.90659 52.2169 5.42022 50.4273 5.42022 48.1006H4.42022ZM6.01051 54.0958C7.1074 55.647 8.66042 56.4263 10.6116 56.4263V55.4263C8.97038 55.4263 7.72815 54.7928 6.82699 53.5184L6.01051 54.0958ZM10.6116 56.4263C12.2939 56.4263 13.6629 56.0484 14.6433 55.2179L13.9969 54.4549C13.2618 55.0776 12.1585 55.4263 10.6116 55.4263V56.4263ZM14.6437 55.2176C15.6448 54.3678 16.2494 52.9502 16.5398 51.0837L15.5516 50.93C15.2769 52.6962 14.7311 53.8317 13.9966 54.4552L14.6437 55.2176ZM16.0457 51.5068H18.9671V50.5068H16.0457V51.5068ZM38.7417 48.1763L38.8807 47.696L38.8798 47.6957L38.7417 48.1763ZM33.2925 45.5425L32.9522 45.9089L32.9557 45.912L33.2925 45.5425ZM33.6709 37.3687L33.9874 37.7558L33.9877 37.7555L33.6709 37.3687ZM43.1313 36.5361L42.9093 36.9841L42.9108 36.9849L43.1313 36.5361ZM45.8862 38.958L45.4627 39.2238L45.4646 39.2267L45.8862 38.958ZM46.8701 42.3335V42.8335H47.3701V42.3335H46.8701ZM43.9487 42.3335H43.4487V42.8335H43.9487V42.3335ZM42.6772 39.2002L42.3418 39.571L42.3442 39.5732L42.6772 39.2002ZM35.7295 39.0034L36.0382 39.3968L36.0388 39.3962L35.7295 39.0034ZM35.6689 43.9077L35.3503 44.2931L35.356 44.2976L35.6689 43.9077ZM39.5591 45.603L39.4235 46.0843L39.4242 46.0845L39.5591 45.603ZM43.8579 47.3135L43.5982 47.7408L43.6031 47.7437L43.8579 47.3135ZM46.1587 49.478L45.7295 49.7345L45.7318 49.7383L46.1587 49.478ZM44.8267 56.6982L45.1312 57.0948L45.133 57.0934L44.8267 56.6982ZM35.0029 57.4399L34.7992 57.8966L34.8022 57.8979L35.0029 57.4399ZM31.9604 55.0483L31.5508 55.3351L31.5528 55.3378L31.9604 55.0483ZM30.9009 51.6123V51.1123H30.4009V51.6123H30.9009ZM33.8223 51.6123H34.3223V51.1123H33.8223V51.6123ZM35.2905 54.7759L34.9796 55.1675L34.9841 55.171L35.2905 54.7759ZM42.8589 49.9321L42.5497 50.3251L42.553 50.3277L42.8589 49.9321ZM38.8798 47.6957C36.4173 46.9879 34.6866 46.1367 33.6293 45.173L32.9557 45.912C34.179 47.027 36.0811 47.9317 38.6036 48.6568L38.8798 47.6957ZM33.6327 45.1761C32.6037 44.2206 32.0972 43.0614 32.0972 41.6675H31.0972C31.0972 43.3412 31.7208 44.7654 32.9523 45.9089L33.6327 45.1761ZM32.0972 41.6675C32.0972 40.0868 32.7172 38.7942 33.9874 37.7558L33.3544 36.9815C31.8597 38.2036 31.0972 39.7768 31.0972 41.6675H32.0972ZM33.9877 37.7555C35.2715 36.7042 36.9575 36.1582 39.0898 36.1582V35.1582C36.7821 35.1582 34.8554 35.7525 33.3541 36.9818L33.9877 37.7555ZM39.0898 36.1582C40.538 36.1582 41.8072 36.4378 42.9093 36.9841L43.3534 36.0882C42.0941 35.4639 40.6691 35.1582 39.0898 35.1582V36.1582ZM42.9108 36.9849C44.0261 37.5331 44.8707 38.2803 45.4627 39.2238L46.3098 38.6923C45.6101 37.5771 44.6181 36.7098 43.3519 36.0874L42.9108 36.9849ZM45.4646 39.2267C46.0693 40.1757 46.3701 41.2076 46.3701 42.3335H47.3701C47.3701 41.0173 47.015 39.7989 46.3079 38.6893L45.4646 39.2267ZM46.8701 41.8335H43.9487V42.8335H46.8701V41.8335ZM44.4487 42.3335C44.4487 40.886 43.9827 39.6955 43.0103 38.8272L42.3442 39.5732C43.0671 40.2186 43.4487 41.117 43.4487 42.3335H44.4487ZM43.0127 38.8294C42.045 37.9539 40.7137 37.5498 39.0898 37.5498V38.5498C40.5539 38.5498 41.6142 38.9127 42.3418 39.571L43.0127 38.8294ZM39.0898 37.5498C37.5882 37.5498 36.3446 37.8826 35.4201 38.6106L36.0388 39.3962C36.729 38.8528 37.7256 38.5498 39.0898 38.5498V37.5498ZM35.4208 38.6101C34.489 39.3414 34.0337 40.3669 34.0337 41.6221H35.0337C35.0337 40.637 35.3756 39.9168 36.0382 39.3967L35.4208 38.6101ZM34.0337 41.6221C34.0337 42.6844 34.4908 43.5825 35.3504 44.2931L35.9875 43.5223C35.3334 42.9816 35.0337 42.356 35.0337 41.6221H34.0337ZM35.356 44.2976C36.2041 44.9784 37.5812 45.5652 39.4235 46.0843L39.6947 45.1218C37.8839 44.6116 36.6677 44.0682 35.9819 43.5178L35.356 44.2976ZM39.4242 46.0845C41.2392 46.5931 42.6237 47.1484 43.5982 47.7407L44.1176 46.8862C43.0336 46.2273 41.5521 45.6423 39.694 45.1216L39.4242 46.0845ZM43.6031 47.7437C44.5886 48.3273 45.2873 48.9945 45.7295 49.7345L46.5879 49.2215C46.0412 48.3066 45.206 47.5307 44.1127 46.8833L43.6031 47.7437ZM45.7318 49.7383C46.1815 50.4758 46.4155 51.3566 46.4155 52.3994H47.4155C47.4155 51.202 47.145 50.1352 46.5856 49.2177L45.7318 49.7383ZM46.4155 52.3994C46.4155 54.0335 45.7888 55.3196 44.5203 56.3031L45.133 57.0934C46.6497 55.9174 47.4155 54.3376 47.4155 52.3994H46.4155ZM44.5221 56.3017C43.2416 57.2852 41.4981 57.8027 39.2412 57.8027V58.8027C41.6464 58.8027 43.6265 58.2506 45.1312 57.0948L44.5221 56.3017ZM39.2412 57.8027C37.7927 57.8027 36.4487 57.5279 35.2037 56.982L34.8022 57.8979C36.1809 58.5024 37.6624 58.8027 39.2412 58.8027V57.8027ZM35.2067 56.9833C33.9632 56.4286 33.025 55.684 32.3681 54.7589L31.5528 55.3378C32.3289 56.4309 33.4189 57.2807 34.7992 57.8966L35.2067 56.9833ZM32.3701 54.7616C31.725 53.8401 31.4009 52.7957 31.4009 51.6123H30.4009C30.4009 52.9921 30.7831 54.2384 31.5508 55.3351L32.3701 54.7616ZM30.9009 52.1123H33.8223V51.1123H30.9009V52.1123ZM33.3223 51.6123C33.3223 53.0853 33.8726 54.2887 34.9797 55.1675L35.6014 54.3843C34.7508 53.7091 34.3223 52.8034 34.3223 51.6123H33.3223ZM34.9841 55.171C36.0848 56.0246 37.5204 56.4263 39.2412 56.4263V55.4263C37.6724 55.4263 36.4741 55.061 35.5969 54.3808L34.9841 55.171ZM39.2412 56.4263C40.8335 56.4263 42.1338 56.1029 43.072 55.3848L42.4642 54.5908C41.7675 55.124 40.7166 55.4263 39.2412 55.4263V56.4263ZM43.072 55.3848C44.0198 54.6593 44.4941 53.6562 44.4941 52.4297H43.4941C43.4941 53.3627 43.1511 54.065 42.4642 54.5908L43.072 55.3848ZM44.4941 52.4297C44.4941 51.2178 44.0609 50.2296 43.1648 49.5366L42.553 50.3277C43.1705 50.8052 43.4941 51.482 43.4941 52.4297H44.4941ZM43.168 49.5392C42.3297 48.8796 40.8757 48.2732 38.8807 47.696L38.6027 48.6566C40.5836 49.2297 41.8744 49.7939 42.5497 50.3251L43.168 49.5392ZM66.448 48.1763L66.5869 47.696L66.5861 47.6957L66.448 48.1763ZM60.9987 45.5425L60.6585 45.9089L60.6619 45.912L60.9987 45.5425ZM61.3772 37.3687L61.6936 37.7558L61.6939 37.7555L61.3772 37.3687ZM70.8376 36.5361L70.6155 36.9841L70.617 36.9849L70.8376 36.5361ZM73.5925 38.958L73.1689 39.2238L73.1708 39.2267L73.5925 38.958ZM74.5764 42.3335V42.8335H75.0764V42.3335H74.5764ZM71.655 42.3335H71.155V42.8335H71.655V42.3335ZM70.3835 39.2002L70.048 39.571L70.0505 39.5732L70.3835 39.2002ZM63.4357 39.0034L63.7444 39.3968L63.7451 39.3962L63.4357 39.0034ZM63.3752 43.9077L63.0566 44.2931L63.0622 44.2976L63.3752 43.9077ZM67.2653 45.603L67.1297 46.0843L67.1304 46.0845L67.2653 45.603ZM71.5642 47.3135L71.3044 47.7408L71.3094 47.7437L71.5642 47.3135ZM73.8649 49.478L73.4357 49.7345L73.438 49.7383L73.8649 49.478ZM72.5329 56.6982L72.8375 57.0948L72.8393 57.0934L72.5329 56.6982ZM62.7092 57.4399L62.5055 57.8966L62.5084 57.8979L62.7092 57.4399ZM59.6667 55.0483L59.2571 55.3351L59.259 55.3378L59.6667 55.0483ZM58.6071 51.6123V51.1123H58.1071V51.6123H58.6071ZM61.5285 51.6123H62.0285V51.1123H61.5285V51.6123ZM62.9968 54.7759L62.6859 55.1675L62.6904 55.171L62.9968 54.7759ZM70.5651 49.9321L70.256 50.3251L70.2593 50.3277L70.5651 49.9321ZM66.5861 47.6957C64.1235 46.9879 62.3929 46.1367 61.3356 45.173L60.6619 45.912C61.8852 47.027 63.7874 47.9317 66.3098 48.6568L66.5861 47.6957ZM61.339 45.1761C60.31 44.2206 59.8034 43.0614 59.8034 41.6675H58.8034C58.8034 43.3412 59.4271 44.7654 60.6585 45.9089L61.339 45.1761ZM59.8034 41.6675C59.8034 40.0868 60.4234 38.7942 61.6936 37.7558L61.0607 36.9815C59.5659 38.2036 58.8034 39.7768 58.8034 41.6675H59.8034ZM61.6939 37.7555C62.9778 36.7042 64.6637 36.1582 66.7961 36.1582V35.1582C64.4883 35.1582 62.5617 35.7525 61.0604 36.9818L61.6939 37.7555ZM66.7961 36.1582C68.2442 36.1582 69.5135 36.4378 70.6155 36.9841L71.0597 36.0882C69.8004 35.4639 68.3753 35.1582 66.7961 35.1582V36.1582ZM70.617 36.9849C71.7324 37.5331 72.577 38.2803 73.169 39.2238L74.016 38.6923C73.3163 37.5771 72.3243 36.7098 71.0582 36.0874L70.617 36.9849ZM73.1708 39.2267C73.7756 40.1757 74.0764 41.2076 74.0764 42.3335H75.0764C75.0764 41.0173 74.7213 39.7989 74.0141 38.6893L73.1708 39.2267ZM74.5764 41.8335H71.655V42.8335H74.5764V41.8335ZM72.155 42.3335C72.155 40.886 71.689 39.6955 70.7165 38.8272L70.0505 39.5732C70.7733 40.2186 71.155 41.117 71.155 42.3335H72.155ZM70.719 38.8294C69.7512 37.9539 68.42 37.5498 66.7961 37.5498V38.5498C68.2601 38.5498 69.3204 38.9127 70.048 39.571L70.719 38.8294ZM66.7961 37.5498C65.2945 37.5498 64.0508 37.8826 63.1264 38.6106L63.7451 39.3962C64.4352 38.8528 65.4319 38.5498 66.7961 38.5498V37.5498ZM63.1271 38.6101C62.1952 39.3414 61.7399 40.3669 61.7399 41.6221H62.7399C62.7399 40.637 63.0818 39.9168 63.7444 39.3967L63.1271 38.6101ZM61.7399 41.6221C61.7399 42.6844 62.1971 43.5825 63.0566 44.2931L63.6938 43.5223C63.0397 42.9816 62.7399 42.356 62.7399 41.6221H61.7399ZM63.0622 44.2976C63.9103 44.9784 65.2875 45.5652 67.1297 46.0843L67.4009 45.1218C65.5902 44.6116 64.3739 44.0682 63.6882 43.5178L63.0622 44.2976ZM67.1304 46.0845C68.9455 46.5931 70.3299 47.1484 71.3045 47.7407L71.8239 46.8862C70.7398 46.2273 69.2584 45.6423 67.4002 45.1216L67.1304 46.0845ZM71.3094 47.7437C72.2949 48.3273 72.9935 48.9945 73.4357 49.7345L74.2942 49.2215C73.7474 48.3066 72.9122 47.5307 71.8189 46.8833L71.3094 47.7437ZM73.438 49.7383C73.8877 50.4758 74.1218 51.3566 74.1218 52.3994H75.1218C75.1218 51.202 74.8513 50.1352 74.2918 49.2177L73.438 49.7383ZM74.1218 52.3994C74.1218 54.0335 73.495 55.3196 72.2265 56.3031L72.8393 57.0934C74.3559 55.9174 75.1218 54.3376 75.1218 52.3994H74.1218ZM72.2283 56.3017C70.9479 57.2852 69.2043 57.8027 66.9475 57.8027V58.8027C69.3527 58.8027 71.3328 58.2506 72.8375 57.0948L72.2283 56.3017ZM66.9475 57.8027C65.4989 57.8027 64.155 57.5279 62.91 56.982L62.5084 57.8979C63.8871 58.5024 65.3687 58.8027 66.9475 58.8027V57.8027ZM62.9129 56.9833C61.6695 56.4286 60.7312 55.684 60.0744 54.7589L59.259 55.3378C60.0351 56.4309 61.1252 57.2807 62.5055 57.8966L62.9129 56.9833ZM60.0763 54.7616C59.4312 53.8401 59.1071 52.7957 59.1071 51.6123H58.1071C58.1071 52.9921 58.4894 54.2384 59.2571 55.3351L60.0763 54.7616ZM58.6071 52.1123H61.5285V51.1123H58.6071V52.1123ZM61.0285 51.6123C61.0285 53.0853 61.5788 54.2887 62.6859 55.1675L63.3076 54.3843C62.4571 53.7091 62.0285 52.8034 62.0285 51.6123H61.0285ZM62.6904 55.171C63.7911 56.0246 65.2266 56.4263 66.9475 56.4263V55.4263C65.3786 55.4263 64.1803 55.061 63.3032 54.3808L62.6904 55.171ZM66.9475 56.4263C68.5397 56.4263 69.8401 56.1029 70.7782 55.3848L70.1704 54.5908C69.4738 55.124 68.4229 55.4263 66.9475 55.4263V56.4263ZM70.7782 55.3848C71.7261 54.6593 72.2004 53.6562 72.2004 52.4297H71.2004C71.2004 53.3627 70.8573 54.065 70.1704 54.5908L70.7782 55.3848ZM72.2004 52.4297C72.2004 51.2178 71.7672 50.2296 70.871 49.5366L70.2593 50.3277C70.8768 50.8052 71.2004 51.482 71.2004 52.4297H72.2004ZM70.8743 49.5392C70.0359 48.8796 68.582 48.2732 66.5869 47.696L66.309 48.6566C68.2898 49.2297 69.5807 49.7939 70.256 50.3251L70.8743 49.5392ZM31.6514 73.5391V73.0391H31.1514V73.5391H31.6514ZM34.7612 73.5391H35.2612V73.0391H34.7612V73.5391ZM32.731 95.4209L32.3892 95.0559L32.3877 95.0573L32.731 95.4209ZM19.9531 90.5225V90.0225H19.4531V90.5225H19.9531ZM23.0469 90.5225H23.5469V90.0225H23.0469V90.5225ZM24.1426 93.6646L23.7839 94.013L23.7865 94.0156L24.1426 93.6646ZM30.4429 93.584L30.0869 93.2328L30.0846 93.2352L30.4429 93.584ZM31.6514 90.2002L32.1514 90.2039V90.2002H31.6514ZM31.6514 74.0391H34.7612V73.0391H31.6514V74.0391ZM34.2612 73.5391V90.1519H35.2612V73.5391H34.2612ZM34.2612 90.1519C34.2612 92.2901 33.6209 93.9024 32.3892 95.0559L33.0727 95.7858C34.548 94.4042 35.2612 92.5038 35.2612 90.1519H34.2612ZM32.3877 95.0573C31.157 96.2192 29.4957 96.8223 27.3491 96.8223V97.8223C29.6928 97.8223 31.6194 97.1578 33.0742 95.7845L32.3877 95.0573ZM27.3491 96.8223C25.1021 96.8223 23.422 96.2488 22.2408 95.1652L21.5648 95.9021C22.9833 97.2034 24.9341 97.8223 27.3491 97.8223V96.8223ZM22.2408 95.1652C21.0663 94.0878 20.4531 92.5638 20.4531 90.5225H19.4531C19.4531 92.778 20.1398 94.5948 21.5648 95.9021L22.2408 95.1652ZM19.9531 91.0225H23.0469V90.0225H19.9531V91.0225ZM22.5469 90.5225C22.5469 91.9572 22.9393 93.1435 23.7839 94.0129L24.5012 93.3162C23.8849 92.6817 23.5469 91.7732 23.5469 90.5225H22.5469ZM23.7865 94.0156C24.6491 94.8906 25.8636 95.2925 27.3491 95.2925V94.2925C26.0417 94.2925 25.1185 93.9424 24.4987 93.3136L23.7865 94.0156ZM27.3491 95.2925C28.7422 95.2925 29.9096 94.8487 30.8012 93.9327L30.0846 93.2352C29.4077 93.9306 28.5127 94.2925 27.3491 94.2925V95.2925ZM30.7988 93.9352C31.7088 93.0128 32.1399 91.7461 32.1514 90.2039L31.1514 90.1965C31.1413 91.5547 30.7667 92.5438 30.087 93.2328L30.7988 93.9352ZM32.1514 90.2002V73.5391H31.1514V90.2002H32.1514ZM46.9429 86.5425L47.0818 86.0622L47.081 86.0619L46.9429 86.5425ZM41.1421 83.7388L40.8018 84.1052L40.8053 84.1083L41.1421 83.7388ZM41.5449 75.0376L41.8614 75.4247L41.8617 75.4245L41.5449 75.0376ZM51.6157 74.1514L51.3936 74.5993L51.3952 74.6001L51.6157 74.1514ZM54.5483 76.7295L54.1248 76.9952L54.1267 76.9982L54.5483 76.7295ZM55.5957 80.3228V80.8228H56.0957V80.3228H55.5957ZM52.4858 80.3228H51.9858V80.8228H52.4858V80.3228ZM51.1323 76.9873L50.7969 77.3581L50.7993 77.3603L51.1323 76.9873ZM43.7363 76.7778L44.045 77.1712L44.0457 77.1707L43.7363 76.7778ZM43.6719 81.9985L43.3533 82.3839L43.3589 82.3885L43.6719 81.9985ZM47.813 83.8032L47.6774 84.2845L47.6781 84.2847L47.813 83.8032ZM52.3892 85.624L52.1294 86.0513L52.1344 86.0542L52.3892 85.624ZM54.8384 87.9282L54.4092 88.1847L54.4115 88.1885L54.8384 87.9282ZM53.4204 95.6143L53.725 96.0108L53.7268 96.0094L53.4204 95.6143ZM42.9629 96.4038L42.7592 96.8604L42.7621 96.8617L42.9629 96.4038ZM39.7241 93.8579L39.3145 94.1446L39.3164 94.1474L39.7241 93.8579ZM38.5962 90.2002V89.7002H38.0962V90.2002H38.5962ZM41.7061 90.2002H42.2061V89.7002H41.7061V90.2002ZM43.269 93.5679L42.9582 93.9595L42.9626 93.963L43.269 93.5679ZM51.3257 88.4116L51.0165 88.8046L51.0198 88.8071L51.3257 88.4116ZM47.081 86.0619C44.4576 85.3079 42.6098 84.4 41.4789 83.3692L40.8053 84.1083C42.1021 85.2904 44.1215 86.2517 46.8047 87.023L47.081 86.0619ZM41.4823 83.3724C40.3804 82.3492 39.8374 81.1067 39.8374 79.6138H38.8374C38.8374 81.3865 39.4975 82.894 40.8019 84.1052L41.4823 83.3724ZM39.8374 79.6138C39.8374 77.9211 40.502 76.536 41.8614 75.4247L41.2285 74.6505C39.6445 75.9454 38.8374 77.6111 38.8374 79.6138H39.8374ZM41.8617 75.4245C43.2354 74.2996 45.0379 73.7168 47.3135 73.7168V72.7168C44.8625 72.7168 42.8193 73.3479 41.2282 74.6507L41.8617 75.4245ZM47.3135 73.7168C48.8592 73.7168 50.2154 74.0153 51.3936 74.5993L51.8378 73.7034C50.5023 73.0414 48.9904 72.7168 47.3135 72.7168V73.7168ZM51.3952 74.6001C52.5873 75.1861 53.4912 75.9854 54.1248 76.9952L54.9719 76.4637C54.2305 75.2822 53.1793 74.3628 51.8363 73.7026L51.3952 74.6001ZM54.1267 76.9982C54.7737 78.0136 55.0957 79.1181 55.0957 80.3228H56.0957C56.0957 78.9278 55.7194 77.6368 54.97 76.4608L54.1267 76.9982ZM55.5957 79.8228H52.4858V80.8228H55.5957V79.8228ZM52.9858 80.3228C52.9858 78.7893 52.4925 77.5314 51.4653 76.6143L50.7993 77.3603C51.5769 78.0545 51.9858 79.0203 51.9858 80.3228H52.9858ZM51.4678 76.6165C50.4454 75.6915 49.037 75.2627 47.3135 75.2627V76.2627C48.8771 76.2627 50.0146 76.6503 50.7969 77.3581L51.4678 76.6165ZM47.3135 75.2627C45.7194 75.2627 44.4035 75.616 43.427 76.385L44.0457 77.1707C44.7879 76.5862 45.8568 76.2627 47.3135 76.2627V75.2627ZM43.4276 76.3845C42.4444 77.1562 41.9634 78.238 41.9634 79.5654H42.9634C42.9634 78.5081 43.331 77.7315 44.045 77.1712L43.4276 76.3845ZM41.9634 79.5654C41.9634 80.6857 42.4449 81.633 43.3533 82.3839L43.9904 81.6132C43.2875 81.0321 42.9634 80.3573 42.9634 79.5654H41.9634ZM43.3589 82.3885C44.2565 83.1089 45.7173 83.7322 47.6774 84.2845L47.9486 83.322C46.02 82.7785 44.7201 82.1987 43.9848 81.6086L43.3589 82.3885ZM47.6781 84.2847C49.6116 84.8265 51.0885 85.4185 52.1295 86.0513L52.6489 85.1968C51.4984 84.4975 49.9245 83.8756 47.9479 83.3218L47.6781 84.2847ZM52.1344 86.0542C53.1869 86.6776 53.9351 87.3913 54.4092 88.1847L55.2676 87.6717C54.689 86.7034 53.8043 85.881 52.6439 85.1938L52.1344 86.0542ZM54.4115 88.1885C54.8937 88.9794 55.144 89.923 55.144 91.0381H56.144C56.144 89.7684 55.8572 88.6387 55.2653 87.6679L54.4115 88.1885ZM55.144 91.0381C55.144 92.7874 54.4724 94.1659 53.114 95.2191L53.7268 96.0094C55.3333 94.7638 56.144 93.0915 56.144 91.0381H55.144ZM53.1158 95.2177C51.7456 96.2703 49.8819 96.8223 47.4746 96.8223V97.8223C50.0302 97.8223 52.1304 97.2356 53.725 96.0108L53.1158 95.2177ZM47.4746 96.8223C45.9284 96.8223 44.4933 96.5289 43.1637 95.9459L42.7621 96.8617C44.2255 97.5033 45.7982 97.8223 47.4746 97.8223V96.8223ZM43.1666 95.9472C41.8385 95.3547 40.8349 94.5587 40.1318 93.5684L39.3164 94.1474C40.1388 95.3056 41.2943 96.2069 42.7592 96.8604L43.1666 95.9472ZM40.1337 93.5712C39.4431 92.5845 39.0962 91.4663 39.0962 90.2002H38.0962C38.0962 91.6626 38.5012 92.9828 39.3145 94.1446L40.1337 93.5712ZM38.5962 90.7002H41.7061V89.7002H38.5962V90.7002ZM41.2061 90.2002C41.2061 91.7591 41.7879 93.0305 42.9582 93.9595L43.5799 93.1763C42.6662 92.4509 42.2061 91.4772 42.2061 90.2002H41.2061ZM42.9626 93.963C44.1271 94.8661 45.6476 95.2925 47.4746 95.2925V94.2925C45.7996 94.2925 44.5164 93.9025 43.5755 93.1728L42.9626 93.963ZM47.4746 95.2925C49.1658 95.2925 50.542 94.949 51.5329 94.1905L50.9251 93.3964C50.1758 93.97 49.049 94.2925 47.4746 94.2925V95.2925ZM51.5329 94.1905C52.5335 93.4246 53.0342 92.3665 53.0342 91.0703H52.0342C52.0342 92.073 51.6647 92.8303 50.9251 93.3964L51.5329 94.1905ZM53.0342 91.0703C53.0342 89.7888 52.5765 88.7469 51.6316 88.0161L51.0198 88.8071C51.6862 89.3225 52.0342 90.053 52.0342 91.0703H53.0342ZM51.6348 88.0186C50.7476 87.3207 49.2052 86.6765 47.0818 86.0622L46.8039 87.0228C48.913 87.633 50.2924 88.235 51.0165 88.8046L51.6348 88.0186Z" fill="black"/>
</g>
</svg>
